%TF.GenerationSoftware,KiCad,Pcbnew,(6.0.10)*%
%TF.CreationDate,2023-03-05T19:00:04+01:00*%
%TF.ProjectId,HighPrecPosSens,48696768-5072-4656-9350-6f7353656e73,1*%
%TF.SameCoordinates,Original*%
%TF.FileFunction,Soldermask,Bot*%
%TF.FilePolarity,Negative*%
%FSLAX46Y46*%
G04 Gerber Fmt 4.6, Leading zero omitted, Abs format (unit mm)*
G04 Created by KiCad (PCBNEW (6.0.10)) date 2023-03-05 19:00:04*
%MOMM*%
%LPD*%
G01*
G04 APERTURE LIST*
G04 Aperture macros list*
%AMRoundRect*
0 Rectangle with rounded corners*
0 $1 Rounding radius*
0 $2 $3 $4 $5 $6 $7 $8 $9 X,Y pos of 4 corners*
0 Add a 4 corners polygon primitive as box body*
4,1,4,$2,$3,$4,$5,$6,$7,$8,$9,$2,$3,0*
0 Add four circle primitives for the rounded corners*
1,1,$1+$1,$2,$3*
1,1,$1+$1,$4,$5*
1,1,$1+$1,$6,$7*
1,1,$1+$1,$8,$9*
0 Add four rect primitives between the rounded corners*
20,1,$1+$1,$2,$3,$4,$5,0*
20,1,$1+$1,$4,$5,$6,$7,0*
20,1,$1+$1,$6,$7,$8,$9,0*
20,1,$1+$1,$8,$9,$2,$3,0*%
G04 Aperture macros list end*
%ADD10C,6.400000*%
%ADD11RoundRect,0.250000X0.725000X-0.600000X0.725000X0.600000X-0.725000X0.600000X-0.725000X-0.600000X0*%
%ADD12O,1.950000X1.700000*%
%ADD13C,1.500000*%
%ADD14R,1.700000X1.700000*%
%ADD15O,1.700000X1.700000*%
%ADD16O,1.800000X1.800000*%
%ADD17O,1.500000X1.500000*%
%ADD18RoundRect,0.237500X-0.287500X-0.237500X0.287500X-0.237500X0.287500X0.237500X-0.287500X0.237500X0*%
%ADD19C,2.000000*%
%ADD20RoundRect,0.237500X0.287500X0.237500X-0.287500X0.237500X-0.287500X-0.237500X0.287500X-0.237500X0*%
%ADD21RoundRect,0.225000X-0.225000X-0.250000X0.225000X-0.250000X0.225000X0.250000X-0.225000X0.250000X0*%
%ADD22RoundRect,0.225000X0.250000X-0.225000X0.250000X0.225000X-0.250000X0.225000X-0.250000X-0.225000X0*%
%ADD23C,0.700000*%
G04 APERTURE END LIST*
D10*
%TO.C,H2*%
X118750000Y-57980864D03*
%TD*%
D11*
%TO.C,J5*%
X118725000Y-105730864D03*
D12*
X118725000Y-103230864D03*
X118725000Y-100730864D03*
X118725000Y-98230864D03*
X118725000Y-95730864D03*
X118725000Y-93230864D03*
%TD*%
D13*
%TO.C,TP1*%
X78740000Y-125000000D03*
%TD*%
D10*
%TO.C,H4*%
X118750000Y-124980864D03*
%TD*%
D14*
%TO.C,J8*%
X77978000Y-96774000D03*
D15*
X77978000Y-99314000D03*
%TD*%
D13*
%TO.C,TP4*%
X76200000Y-125000000D03*
%TD*%
%TO.C,TP3*%
X81280000Y-125000000D03*
%TD*%
D10*
%TO.C,H1*%
X66750000Y-57980864D03*
%TD*%
D13*
%TO.C,TP2*%
X83820000Y-125000000D03*
%TD*%
D10*
%TO.C,H3*%
X66750000Y-124980864D03*
%TD*%
D16*
%TO.C,U6*%
X98925000Y-55980864D03*
X104375000Y-55980864D03*
D17*
X99225000Y-59010864D03*
X104075000Y-59010864D03*
D15*
X92760000Y-55850864D03*
X92760000Y-58390864D03*
D14*
X92760000Y-60930864D03*
D15*
X92760000Y-63470864D03*
X92760000Y-66010864D03*
X92760000Y-68550864D03*
X92760000Y-71090864D03*
D14*
X92760000Y-73630864D03*
D15*
X92760000Y-76170864D03*
X92760000Y-78710864D03*
X92760000Y-81250864D03*
X92760000Y-83790864D03*
D14*
X92760000Y-86330864D03*
D15*
X92760000Y-88870864D03*
X92760000Y-91410864D03*
X92760000Y-93950864D03*
X92760000Y-96490864D03*
D14*
X92760000Y-99030864D03*
D15*
X92760000Y-101570864D03*
X92760000Y-104110864D03*
X110540000Y-104110864D03*
X110540000Y-101570864D03*
D14*
X110540000Y-99030864D03*
D15*
X110540000Y-96490864D03*
X110540000Y-93950864D03*
X110540000Y-91410864D03*
X110540000Y-88870864D03*
D14*
X110540000Y-86330864D03*
D15*
X110540000Y-83790864D03*
X110540000Y-81250864D03*
X110540000Y-78710864D03*
X110540000Y-76170864D03*
D14*
X110540000Y-73630864D03*
D15*
X110540000Y-71090864D03*
X110540000Y-68550864D03*
X110540000Y-66010864D03*
X110540000Y-63470864D03*
D14*
X110540000Y-60930864D03*
D15*
X110540000Y-58390864D03*
X110540000Y-55850864D03*
X99110000Y-103880864D03*
D14*
X101650000Y-103880864D03*
D15*
X104190000Y-103880864D03*
%TD*%
D14*
%TO.C,J6*%
X78232000Y-64770000D03*
D15*
X75692000Y-64770000D03*
%TD*%
D14*
%TO.C,J7*%
X78994000Y-91191000D03*
D15*
X78994000Y-88651000D03*
%TD*%
D18*
%TO.C,D2*%
X73418000Y-77492864D03*
X75168000Y-77492864D03*
%TD*%
D19*
%TO.C,FID4*%
X64750000Y-67980864D03*
%TD*%
D18*
%TO.C,D4*%
X73418000Y-82492864D03*
X75168000Y-82492864D03*
%TD*%
D20*
%TO.C,D15*%
X67125000Y-89980864D03*
X65375000Y-89980864D03*
%TD*%
D14*
%TO.C,J4*%
X71925000Y-66480864D03*
D15*
X69385000Y-66480864D03*
%TD*%
D21*
%TO.C,C6*%
X73631000Y-94470864D03*
X75181000Y-94470864D03*
%TD*%
D14*
%TO.C,J3*%
X71930000Y-102310864D03*
D15*
X69390000Y-102310864D03*
%TD*%
D18*
%TO.C,D6*%
X73418000Y-87492864D03*
X75168000Y-87492864D03*
%TD*%
D22*
%TO.C,C8*%
X67500000Y-72505864D03*
X67500000Y-70955864D03*
%TD*%
D19*
%TO.C,FID3*%
X83820000Y-97790000D03*
%TD*%
D20*
%TO.C,D11*%
X67125000Y-79980864D03*
X65375000Y-79980864D03*
%TD*%
D18*
%TO.C,D7*%
X73418000Y-89992864D03*
X75168000Y-89992864D03*
%TD*%
D20*
%TO.C,D14*%
X67125000Y-87480864D03*
X65375000Y-87480864D03*
%TD*%
%TO.C,D12*%
X67125000Y-82480864D03*
X65375000Y-82480864D03*
%TD*%
D21*
%TO.C,C10*%
X73377000Y-71864864D03*
X74927000Y-71864864D03*
%TD*%
%TO.C,C7*%
X73377000Y-69832864D03*
X74927000Y-69832864D03*
%TD*%
%TO.C,C9*%
X73631000Y-92438864D03*
X75181000Y-92438864D03*
%TD*%
D23*
%TO.C,U2*%
X70885000Y-71820864D03*
X70885000Y-74360864D03*
X70885000Y-76900864D03*
X70885000Y-81980864D03*
X70885000Y-87060864D03*
X70885000Y-89600864D03*
X70885000Y-92140864D03*
X69615000Y-92140864D03*
X69615000Y-89600864D03*
X69615000Y-87060864D03*
X69615000Y-81980864D03*
X69615000Y-76900864D03*
X69615000Y-74360864D03*
X69615000Y-71820864D03*
%TD*%
D20*
%TO.C,D13*%
X67125000Y-84980864D03*
X65375000Y-84980864D03*
%TD*%
D14*
%TO.C,J1*%
X71930000Y-98310864D03*
D15*
X69390000Y-98310864D03*
%TD*%
D20*
%TO.C,D9*%
X67125000Y-74992864D03*
X65375000Y-74992864D03*
%TD*%
D18*
%TO.C,D1*%
X73418000Y-74992864D03*
X75168000Y-74992864D03*
%TD*%
D14*
%TO.C,J2*%
X71925000Y-62480864D03*
D15*
X69385000Y-62480864D03*
%TD*%
D18*
%TO.C,D3*%
X73418000Y-79992864D03*
X75168000Y-79992864D03*
%TD*%
D20*
%TO.C,D10*%
X67125000Y-77480864D03*
X65375000Y-77480864D03*
%TD*%
D18*
%TO.C,D5*%
X73418000Y-84992864D03*
X75168000Y-84992864D03*
%TD*%
M02*
