%TF.GenerationSoftware,KiCad,Pcbnew,(6.0.10)*%
%TF.CreationDate,2023-03-05T19:00:04+01:00*%
%TF.ProjectId,HighPrecPosSens,48696768-5072-4656-9350-6f7353656e73,1*%
%TF.SameCoordinates,Original*%
%TF.FileFunction,AssemblyDrawing,Bot*%
%FSLAX46Y46*%
G04 Gerber Fmt 4.6, Leading zero omitted, Abs format (unit mm)*
G04 Created by KiCad (PCBNEW (6.0.10)) date 2023-03-05 19:00:04*
%MOMM*%
%LPD*%
G01*
G04 APERTURE LIST*
%ADD10C,0.150000*%
%ADD11C,0.060000*%
%ADD12C,0.100000*%
G04 APERTURE END LIST*
D10*
%TO.C,D2*%
X74935857Y-76515244D02*
X75412047Y-76515244D01*
X75412047Y-75515244D01*
X74602523Y-75991435D02*
X74269190Y-75991435D01*
X74126333Y-76515244D02*
X74602523Y-76515244D01*
X74602523Y-75515244D01*
X74126333Y-75515244D01*
X73697761Y-76515244D02*
X73697761Y-75515244D01*
X73459666Y-75515244D01*
X73316809Y-75562864D01*
X73221571Y-75658102D01*
X73173952Y-75753340D01*
X73126333Y-75943816D01*
X73126333Y-76086673D01*
X73173952Y-76277149D01*
X73221571Y-76372387D01*
X73316809Y-76467625D01*
X73459666Y-76515244D01*
X73697761Y-76515244D01*
D11*
X74588238Y-77673816D02*
X74588238Y-77273816D01*
X74493000Y-77273816D01*
X74435857Y-77292864D01*
X74397761Y-77330959D01*
X74378714Y-77369054D01*
X74359666Y-77445244D01*
X74359666Y-77502387D01*
X74378714Y-77578578D01*
X74397761Y-77616673D01*
X74435857Y-77654768D01*
X74493000Y-77673816D01*
X74588238Y-77673816D01*
X74207285Y-77311911D02*
X74188238Y-77292864D01*
X74150142Y-77273816D01*
X74054904Y-77273816D01*
X74016809Y-77292864D01*
X73997761Y-77311911D01*
X73978714Y-77350006D01*
X73978714Y-77388102D01*
X73997761Y-77445244D01*
X74226333Y-77673816D01*
X73978714Y-77673816D01*
D10*
%TO.C,FID4*%
X67130952Y-69909435D02*
X67464285Y-69909435D01*
X67464285Y-70433244D02*
X67464285Y-69433244D01*
X66988095Y-69433244D01*
X66607142Y-70433244D02*
X66607142Y-69766578D01*
X66607142Y-69433244D02*
X66654761Y-69480864D01*
X66607142Y-69528483D01*
X66559523Y-69480864D01*
X66607142Y-69433244D01*
X66607142Y-69528483D01*
X65702380Y-70433244D02*
X65702380Y-69433244D01*
X65702380Y-70385625D02*
X65797619Y-70433244D01*
X65988095Y-70433244D01*
X66083333Y-70385625D01*
X66130952Y-70338006D01*
X66178571Y-70242768D01*
X66178571Y-69957054D01*
X66130952Y-69861816D01*
X66083333Y-69814197D01*
X65988095Y-69766578D01*
X65797619Y-69766578D01*
X65702380Y-69814197D01*
X64797619Y-69766578D02*
X64797619Y-70433244D01*
X65226190Y-69766578D02*
X65226190Y-70290387D01*
X65178571Y-70385625D01*
X65083333Y-70433244D01*
X64940476Y-70433244D01*
X64845238Y-70385625D01*
X64797619Y-70338006D01*
X63892857Y-70385625D02*
X63988095Y-70433244D01*
X64178571Y-70433244D01*
X64273809Y-70385625D01*
X64321428Y-70338006D01*
X64369047Y-70242768D01*
X64369047Y-69957054D01*
X64321428Y-69861816D01*
X64273809Y-69814197D01*
X64178571Y-69766578D01*
X63988095Y-69766578D01*
X63892857Y-69814197D01*
X63464285Y-70433244D02*
X63464285Y-69766578D01*
X63464285Y-69433244D02*
X63511904Y-69480864D01*
X63464285Y-69528483D01*
X63416666Y-69480864D01*
X63464285Y-69433244D01*
X63464285Y-69528483D01*
X62559523Y-70433244D02*
X62559523Y-69909435D01*
X62607142Y-69814197D01*
X62702380Y-69766578D01*
X62892857Y-69766578D01*
X62988095Y-69814197D01*
X62559523Y-70385625D02*
X62654761Y-70433244D01*
X62892857Y-70433244D01*
X62988095Y-70385625D01*
X63035714Y-70290387D01*
X63035714Y-70195149D01*
X62988095Y-70099911D01*
X62892857Y-70052292D01*
X62654761Y-70052292D01*
X62559523Y-70004673D01*
X61940476Y-70433244D02*
X62035714Y-70385625D01*
X62083333Y-70290387D01*
X62083333Y-69433244D01*
D11*
X65178571Y-67952292D02*
X65311904Y-67952292D01*
X65311904Y-68161816D02*
X65311904Y-67761816D01*
X65121428Y-67761816D01*
X64969047Y-68161816D02*
X64969047Y-67761816D01*
X64778571Y-68161816D02*
X64778571Y-67761816D01*
X64683333Y-67761816D01*
X64626190Y-67780864D01*
X64588095Y-67818959D01*
X64569047Y-67857054D01*
X64550000Y-67933244D01*
X64550000Y-67990387D01*
X64569047Y-68066578D01*
X64588095Y-68104673D01*
X64626190Y-68142768D01*
X64683333Y-68161816D01*
X64778571Y-68161816D01*
X64207142Y-67895149D02*
X64207142Y-68161816D01*
X64302380Y-67742768D02*
X64397619Y-68028483D01*
X64150000Y-68028483D01*
D10*
%TO.C,D4*%
X74935857Y-81515244D02*
X75412047Y-81515244D01*
X75412047Y-80515244D01*
X74602523Y-80991435D02*
X74269190Y-80991435D01*
X74126333Y-81515244D02*
X74602523Y-81515244D01*
X74602523Y-80515244D01*
X74126333Y-80515244D01*
X73697761Y-81515244D02*
X73697761Y-80515244D01*
X73459666Y-80515244D01*
X73316809Y-80562864D01*
X73221571Y-80658102D01*
X73173952Y-80753340D01*
X73126333Y-80943816D01*
X73126333Y-81086673D01*
X73173952Y-81277149D01*
X73221571Y-81372387D01*
X73316809Y-81467625D01*
X73459666Y-81515244D01*
X73697761Y-81515244D01*
D11*
X74588238Y-82673816D02*
X74588238Y-82273816D01*
X74493000Y-82273816D01*
X74435857Y-82292864D01*
X74397761Y-82330959D01*
X74378714Y-82369054D01*
X74359666Y-82445244D01*
X74359666Y-82502387D01*
X74378714Y-82578578D01*
X74397761Y-82616673D01*
X74435857Y-82654768D01*
X74493000Y-82673816D01*
X74588238Y-82673816D01*
X74016809Y-82407149D02*
X74016809Y-82673816D01*
X74112047Y-82254768D02*
X74207285Y-82540483D01*
X73959666Y-82540483D01*
D10*
%TO.C,D15*%
X66892857Y-91863244D02*
X67369047Y-91863244D01*
X67369047Y-90863244D01*
X66559523Y-91339435D02*
X66226190Y-91339435D01*
X66083333Y-91863244D02*
X66559523Y-91863244D01*
X66559523Y-90863244D01*
X66083333Y-90863244D01*
X65654761Y-91863244D02*
X65654761Y-90863244D01*
X65416666Y-90863244D01*
X65273809Y-90910864D01*
X65178571Y-91006102D01*
X65130952Y-91101340D01*
X65083333Y-91291816D01*
X65083333Y-91434673D01*
X65130952Y-91625149D01*
X65178571Y-91720387D01*
X65273809Y-91815625D01*
X65416666Y-91863244D01*
X65654761Y-91863244D01*
D11*
X66735714Y-90161816D02*
X66735714Y-89761816D01*
X66640476Y-89761816D01*
X66583333Y-89780864D01*
X66545238Y-89818959D01*
X66526190Y-89857054D01*
X66507142Y-89933244D01*
X66507142Y-89990387D01*
X66526190Y-90066578D01*
X66545238Y-90104673D01*
X66583333Y-90142768D01*
X66640476Y-90161816D01*
X66735714Y-90161816D01*
X66126190Y-90161816D02*
X66354761Y-90161816D01*
X66240476Y-90161816D02*
X66240476Y-89761816D01*
X66278571Y-89818959D01*
X66316666Y-89857054D01*
X66354761Y-89876102D01*
X65764285Y-89761816D02*
X65954761Y-89761816D01*
X65973809Y-89952292D01*
X65954761Y-89933244D01*
X65916666Y-89914197D01*
X65821428Y-89914197D01*
X65783333Y-89933244D01*
X65764285Y-89952292D01*
X65745238Y-89990387D01*
X65745238Y-90085625D01*
X65764285Y-90123721D01*
X65783333Y-90142768D01*
X65821428Y-90161816D01*
X65916666Y-90161816D01*
X65954761Y-90142768D01*
X65973809Y-90123721D01*
D10*
%TO.C,J4*%
X78107142Y-55147530D02*
X78154761Y-55099911D01*
X78202380Y-54957054D01*
X78202380Y-54861816D01*
X78154761Y-54718959D01*
X78059523Y-54623721D01*
X77964285Y-54576102D01*
X77773809Y-54528483D01*
X77630952Y-54528483D01*
X77440476Y-54576102D01*
X77345238Y-54623721D01*
X77250000Y-54718959D01*
X77202380Y-54861816D01*
X77202380Y-54957054D01*
X77250000Y-55099911D01*
X77297619Y-55147530D01*
X78202380Y-55718959D02*
X78154761Y-55623721D01*
X78107142Y-55576102D01*
X78011904Y-55528483D01*
X77726190Y-55528483D01*
X77630952Y-55576102D01*
X77583333Y-55623721D01*
X77535714Y-55718959D01*
X77535714Y-55861816D01*
X77583333Y-55957054D01*
X77630952Y-56004673D01*
X77726190Y-56052292D01*
X78011904Y-56052292D01*
X78107142Y-56004673D01*
X78154761Y-55957054D01*
X78202380Y-55861816D01*
X78202380Y-55718959D01*
X77535714Y-56480864D02*
X78202380Y-56480864D01*
X77630952Y-56480864D02*
X77583333Y-56528483D01*
X77535714Y-56623721D01*
X77535714Y-56766578D01*
X77583333Y-56861816D01*
X77678571Y-56909435D01*
X78202380Y-56909435D01*
X77535714Y-57385625D02*
X78202380Y-57385625D01*
X77630952Y-57385625D02*
X77583333Y-57433244D01*
X77535714Y-57528483D01*
X77535714Y-57671340D01*
X77583333Y-57766578D01*
X77678571Y-57814197D01*
X78202380Y-57814197D01*
X78297619Y-58052292D02*
X78297619Y-58814197D01*
X77202380Y-59242768D02*
X77202380Y-59338006D01*
X77250000Y-59433244D01*
X77297619Y-59480864D01*
X77392857Y-59528483D01*
X77583333Y-59576102D01*
X77821428Y-59576102D01*
X78011904Y-59528483D01*
X78107142Y-59480864D01*
X78154761Y-59433244D01*
X78202380Y-59338006D01*
X78202380Y-59242768D01*
X78154761Y-59147530D01*
X78107142Y-59099911D01*
X78011904Y-59052292D01*
X77821428Y-59004673D01*
X77583333Y-59004673D01*
X77392857Y-59052292D01*
X77297619Y-59099911D01*
X77250000Y-59147530D01*
X77202380Y-59242768D01*
X78202380Y-60528483D02*
X78202380Y-59957054D01*
X78202380Y-60242768D02*
X77202380Y-60242768D01*
X77345238Y-60147530D01*
X77440476Y-60052292D01*
X77488095Y-59957054D01*
X78202380Y-60861816D02*
X77535714Y-61385625D01*
X77535714Y-60861816D02*
X78202380Y-61385625D01*
X77202380Y-61957054D02*
X77202380Y-62052292D01*
X77250000Y-62147530D01*
X77297619Y-62195149D01*
X77392857Y-62242768D01*
X77583333Y-62290387D01*
X77821428Y-62290387D01*
X78011904Y-62242768D01*
X78107142Y-62195149D01*
X78154761Y-62147530D01*
X78202380Y-62052292D01*
X78202380Y-61957054D01*
X78154761Y-61861816D01*
X78107142Y-61814197D01*
X78011904Y-61766578D01*
X77821428Y-61718959D01*
X77583333Y-61718959D01*
X77392857Y-61766578D01*
X77297619Y-61814197D01*
X77250000Y-61861816D01*
X77202380Y-61957054D01*
X77297619Y-62671340D02*
X77250000Y-62718959D01*
X77202380Y-62814197D01*
X77202380Y-63052292D01*
X77250000Y-63147530D01*
X77297619Y-63195149D01*
X77392857Y-63242768D01*
X77488095Y-63242768D01*
X77630952Y-63195149D01*
X78202380Y-62623721D01*
X78202380Y-63242768D01*
X78297619Y-63433244D02*
X78297619Y-64195149D01*
X78202380Y-64433244D02*
X77202380Y-64433244D01*
X77916666Y-64766578D01*
X77202380Y-65099911D01*
X78202380Y-65099911D01*
X78202380Y-66004673D02*
X77678571Y-66004673D01*
X77583333Y-65957054D01*
X77535714Y-65861816D01*
X77535714Y-65671340D01*
X77583333Y-65576102D01*
X78154761Y-66004673D02*
X78202380Y-65909435D01*
X78202380Y-65671340D01*
X78154761Y-65576102D01*
X78059523Y-65528483D01*
X77964285Y-65528483D01*
X77869047Y-65576102D01*
X77821428Y-65671340D01*
X77821428Y-65909435D01*
X77773809Y-66004673D01*
X78202380Y-66623721D02*
X78154761Y-66528483D01*
X78059523Y-66480864D01*
X77202380Y-66480864D01*
X78154761Y-67385625D02*
X78202380Y-67290387D01*
X78202380Y-67099911D01*
X78154761Y-67004673D01*
X78059523Y-66957054D01*
X77678571Y-66957054D01*
X77583333Y-67004673D01*
X77535714Y-67099911D01*
X77535714Y-67290387D01*
X77583333Y-67385625D01*
X77678571Y-67433244D01*
X77773809Y-67433244D01*
X77869047Y-66957054D01*
X70988333Y-65933244D02*
X70988333Y-66647530D01*
X71035952Y-66790387D01*
X71131190Y-66885625D01*
X71274047Y-66933244D01*
X71369285Y-66933244D01*
X70083571Y-66266578D02*
X70083571Y-66933244D01*
X70321666Y-65885625D02*
X70559761Y-66599911D01*
X69940714Y-66599911D01*
%TO.C,C6*%
X75620285Y-92588483D02*
X75572666Y-92540864D01*
X75477428Y-92493244D01*
X75239333Y-92493244D01*
X75144095Y-92540864D01*
X75096476Y-92588483D01*
X75048857Y-92683721D01*
X75048857Y-92778959D01*
X75096476Y-92921816D01*
X75667904Y-93493244D01*
X75048857Y-93493244D01*
X74667904Y-92588483D02*
X74620285Y-92540864D01*
X74525047Y-92493244D01*
X74286952Y-92493244D01*
X74191714Y-92540864D01*
X74144095Y-92588483D01*
X74096476Y-92683721D01*
X74096476Y-92778959D01*
X74144095Y-92921816D01*
X74715523Y-93493244D01*
X74096476Y-93493244D01*
X73239333Y-92826578D02*
X73239333Y-93493244D01*
X73667904Y-92826578D02*
X73667904Y-93350387D01*
X73620285Y-93445625D01*
X73525047Y-93493244D01*
X73382190Y-93493244D01*
X73286952Y-93445625D01*
X73239333Y-93398006D01*
D11*
X74472666Y-94613721D02*
X74491714Y-94632768D01*
X74548857Y-94651816D01*
X74586952Y-94651816D01*
X74644095Y-94632768D01*
X74682190Y-94594673D01*
X74701238Y-94556578D01*
X74720285Y-94480387D01*
X74720285Y-94423244D01*
X74701238Y-94347054D01*
X74682190Y-94308959D01*
X74644095Y-94270864D01*
X74586952Y-94251816D01*
X74548857Y-94251816D01*
X74491714Y-94270864D01*
X74472666Y-94289911D01*
X74129809Y-94251816D02*
X74206000Y-94251816D01*
X74244095Y-94270864D01*
X74263142Y-94289911D01*
X74301238Y-94347054D01*
X74320285Y-94423244D01*
X74320285Y-94575625D01*
X74301238Y-94613721D01*
X74282190Y-94632768D01*
X74244095Y-94651816D01*
X74167904Y-94651816D01*
X74129809Y-94632768D01*
X74110761Y-94613721D01*
X74091714Y-94575625D01*
X74091714Y-94480387D01*
X74110761Y-94442292D01*
X74129809Y-94423244D01*
X74167904Y-94404197D01*
X74244095Y-94404197D01*
X74282190Y-94423244D01*
X74301238Y-94442292D01*
X74320285Y-94480387D01*
D10*
%TO.C,J3*%
X67417142Y-96477530D02*
X67464761Y-96429911D01*
X67512380Y-96287054D01*
X67512380Y-96191816D01*
X67464761Y-96048959D01*
X67369523Y-95953721D01*
X67274285Y-95906102D01*
X67083809Y-95858483D01*
X66940952Y-95858483D01*
X66750476Y-95906102D01*
X66655238Y-95953721D01*
X66560000Y-96048959D01*
X66512380Y-96191816D01*
X66512380Y-96287054D01*
X66560000Y-96429911D01*
X66607619Y-96477530D01*
X67512380Y-97048959D02*
X67464761Y-96953721D01*
X67417142Y-96906102D01*
X67321904Y-96858483D01*
X67036190Y-96858483D01*
X66940952Y-96906102D01*
X66893333Y-96953721D01*
X66845714Y-97048959D01*
X66845714Y-97191816D01*
X66893333Y-97287054D01*
X66940952Y-97334673D01*
X67036190Y-97382292D01*
X67321904Y-97382292D01*
X67417142Y-97334673D01*
X67464761Y-97287054D01*
X67512380Y-97191816D01*
X67512380Y-97048959D01*
X66845714Y-97810864D02*
X67512380Y-97810864D01*
X66940952Y-97810864D02*
X66893333Y-97858483D01*
X66845714Y-97953721D01*
X66845714Y-98096578D01*
X66893333Y-98191816D01*
X66988571Y-98239435D01*
X67512380Y-98239435D01*
X66845714Y-98715625D02*
X67512380Y-98715625D01*
X66940952Y-98715625D02*
X66893333Y-98763244D01*
X66845714Y-98858483D01*
X66845714Y-99001340D01*
X66893333Y-99096578D01*
X66988571Y-99144197D01*
X67512380Y-99144197D01*
X67607619Y-99382292D02*
X67607619Y-100144197D01*
X66512380Y-100572768D02*
X66512380Y-100668006D01*
X66560000Y-100763244D01*
X66607619Y-100810864D01*
X66702857Y-100858483D01*
X66893333Y-100906102D01*
X67131428Y-100906102D01*
X67321904Y-100858483D01*
X67417142Y-100810864D01*
X67464761Y-100763244D01*
X67512380Y-100668006D01*
X67512380Y-100572768D01*
X67464761Y-100477530D01*
X67417142Y-100429911D01*
X67321904Y-100382292D01*
X67131428Y-100334673D01*
X66893333Y-100334673D01*
X66702857Y-100382292D01*
X66607619Y-100429911D01*
X66560000Y-100477530D01*
X66512380Y-100572768D01*
X67512380Y-101858483D02*
X67512380Y-101287054D01*
X67512380Y-101572768D02*
X66512380Y-101572768D01*
X66655238Y-101477530D01*
X66750476Y-101382292D01*
X66798095Y-101287054D01*
X67512380Y-102191816D02*
X66845714Y-102715625D01*
X66845714Y-102191816D02*
X67512380Y-102715625D01*
X66512380Y-103287054D02*
X66512380Y-103382292D01*
X66560000Y-103477530D01*
X66607619Y-103525149D01*
X66702857Y-103572768D01*
X66893333Y-103620387D01*
X67131428Y-103620387D01*
X67321904Y-103572768D01*
X67417142Y-103525149D01*
X67464761Y-103477530D01*
X67512380Y-103382292D01*
X67512380Y-103287054D01*
X67464761Y-103191816D01*
X67417142Y-103144197D01*
X67321904Y-103096578D01*
X67131428Y-103048959D01*
X66893333Y-103048959D01*
X66702857Y-103096578D01*
X66607619Y-103144197D01*
X66560000Y-103191816D01*
X66512380Y-103287054D01*
X66607619Y-104001340D02*
X66560000Y-104048959D01*
X66512380Y-104144197D01*
X66512380Y-104382292D01*
X66560000Y-104477530D01*
X66607619Y-104525149D01*
X66702857Y-104572768D01*
X66798095Y-104572768D01*
X66940952Y-104525149D01*
X67512380Y-103953721D01*
X67512380Y-104572768D01*
X67607619Y-104763244D02*
X67607619Y-105525149D01*
X67512380Y-105763244D02*
X66512380Y-105763244D01*
X67226666Y-106096578D01*
X66512380Y-106429911D01*
X67512380Y-106429911D01*
X67512380Y-107334673D02*
X66988571Y-107334673D01*
X66893333Y-107287054D01*
X66845714Y-107191816D01*
X66845714Y-107001340D01*
X66893333Y-106906102D01*
X67464761Y-107334673D02*
X67512380Y-107239435D01*
X67512380Y-107001340D01*
X67464761Y-106906102D01*
X67369523Y-106858483D01*
X67274285Y-106858483D01*
X67179047Y-106906102D01*
X67131428Y-107001340D01*
X67131428Y-107239435D01*
X67083809Y-107334673D01*
X67512380Y-107953721D02*
X67464761Y-107858483D01*
X67369523Y-107810864D01*
X66512380Y-107810864D01*
X67464761Y-108715625D02*
X67512380Y-108620387D01*
X67512380Y-108429911D01*
X67464761Y-108334673D01*
X67369523Y-108287054D01*
X66988571Y-108287054D01*
X66893333Y-108334673D01*
X66845714Y-108429911D01*
X66845714Y-108620387D01*
X66893333Y-108715625D01*
X66988571Y-108763244D01*
X67083809Y-108763244D01*
X67179047Y-108287054D01*
X70993333Y-101763244D02*
X70993333Y-102477530D01*
X71040952Y-102620387D01*
X71136190Y-102715625D01*
X71279047Y-102763244D01*
X71374285Y-102763244D01*
X70612380Y-101763244D02*
X69993333Y-101763244D01*
X70326666Y-102144197D01*
X70183809Y-102144197D01*
X70088571Y-102191816D01*
X70040952Y-102239435D01*
X69993333Y-102334673D01*
X69993333Y-102572768D01*
X70040952Y-102668006D01*
X70088571Y-102715625D01*
X70183809Y-102763244D01*
X70469523Y-102763244D01*
X70564761Y-102715625D01*
X70612380Y-102668006D01*
%TO.C,D6*%
X74935857Y-86515244D02*
X75412047Y-86515244D01*
X75412047Y-85515244D01*
X74602523Y-85991435D02*
X74269190Y-85991435D01*
X74126333Y-86515244D02*
X74602523Y-86515244D01*
X74602523Y-85515244D01*
X74126333Y-85515244D01*
X73697761Y-86515244D02*
X73697761Y-85515244D01*
X73459666Y-85515244D01*
X73316809Y-85562864D01*
X73221571Y-85658102D01*
X73173952Y-85753340D01*
X73126333Y-85943816D01*
X73126333Y-86086673D01*
X73173952Y-86277149D01*
X73221571Y-86372387D01*
X73316809Y-86467625D01*
X73459666Y-86515244D01*
X73697761Y-86515244D01*
D11*
X74588238Y-87673816D02*
X74588238Y-87273816D01*
X74493000Y-87273816D01*
X74435857Y-87292864D01*
X74397761Y-87330959D01*
X74378714Y-87369054D01*
X74359666Y-87445244D01*
X74359666Y-87502387D01*
X74378714Y-87578578D01*
X74397761Y-87616673D01*
X74435857Y-87654768D01*
X74493000Y-87673816D01*
X74588238Y-87673816D01*
X74016809Y-87273816D02*
X74093000Y-87273816D01*
X74131095Y-87292864D01*
X74150142Y-87311911D01*
X74188238Y-87369054D01*
X74207285Y-87445244D01*
X74207285Y-87597625D01*
X74188238Y-87635721D01*
X74169190Y-87654768D01*
X74131095Y-87673816D01*
X74054904Y-87673816D01*
X74016809Y-87654768D01*
X73997761Y-87635721D01*
X73978714Y-87597625D01*
X73978714Y-87502387D01*
X73997761Y-87464292D01*
X74016809Y-87445244D01*
X74054904Y-87426197D01*
X74131095Y-87426197D01*
X74169190Y-87445244D01*
X74188238Y-87464292D01*
X74207285Y-87502387D01*
D10*
%TO.C,C8*%
X66522380Y-71564197D02*
X66522380Y-70992768D01*
X66522380Y-71278483D02*
X65522380Y-71278483D01*
X65665238Y-71183244D01*
X65760476Y-71088006D01*
X65808095Y-70992768D01*
X65855714Y-72421340D02*
X66522380Y-72421340D01*
X65855714Y-71992768D02*
X66379523Y-71992768D01*
X66474761Y-72040387D01*
X66522380Y-72135625D01*
X66522380Y-72278483D01*
X66474761Y-72373721D01*
X66427142Y-72421340D01*
D11*
X67642857Y-71664197D02*
X67661904Y-71645149D01*
X67680952Y-71588006D01*
X67680952Y-71549911D01*
X67661904Y-71492768D01*
X67623809Y-71454673D01*
X67585714Y-71435625D01*
X67509523Y-71416578D01*
X67452380Y-71416578D01*
X67376190Y-71435625D01*
X67338095Y-71454673D01*
X67300000Y-71492768D01*
X67280952Y-71549911D01*
X67280952Y-71588006D01*
X67300000Y-71645149D01*
X67319047Y-71664197D01*
X67452380Y-71892768D02*
X67433333Y-71854673D01*
X67414285Y-71835625D01*
X67376190Y-71816578D01*
X67357142Y-71816578D01*
X67319047Y-71835625D01*
X67300000Y-71854673D01*
X67280952Y-71892768D01*
X67280952Y-71968959D01*
X67300000Y-72007054D01*
X67319047Y-72026102D01*
X67357142Y-72045149D01*
X67376190Y-72045149D01*
X67414285Y-72026102D01*
X67433333Y-72007054D01*
X67452380Y-71968959D01*
X67452380Y-71892768D01*
X67471428Y-71854673D01*
X67490476Y-71835625D01*
X67528571Y-71816578D01*
X67604761Y-71816578D01*
X67642857Y-71835625D01*
X67661904Y-71854673D01*
X67680952Y-71892768D01*
X67680952Y-71968959D01*
X67661904Y-72007054D01*
X67642857Y-72026102D01*
X67604761Y-72045149D01*
X67528571Y-72045149D01*
X67490476Y-72026102D01*
X67471428Y-72007054D01*
X67452380Y-71968959D01*
D10*
%TO.C,FID3*%
X86200952Y-99718571D02*
X86534285Y-99718571D01*
X86534285Y-100242380D02*
X86534285Y-99242380D01*
X86058095Y-99242380D01*
X85677142Y-100242380D02*
X85677142Y-99575714D01*
X85677142Y-99242380D02*
X85724761Y-99290000D01*
X85677142Y-99337619D01*
X85629523Y-99290000D01*
X85677142Y-99242380D01*
X85677142Y-99337619D01*
X84772380Y-100242380D02*
X84772380Y-99242380D01*
X84772380Y-100194761D02*
X84867619Y-100242380D01*
X85058095Y-100242380D01*
X85153333Y-100194761D01*
X85200952Y-100147142D01*
X85248571Y-100051904D01*
X85248571Y-99766190D01*
X85200952Y-99670952D01*
X85153333Y-99623333D01*
X85058095Y-99575714D01*
X84867619Y-99575714D01*
X84772380Y-99623333D01*
X83867619Y-99575714D02*
X83867619Y-100242380D01*
X84296190Y-99575714D02*
X84296190Y-100099523D01*
X84248571Y-100194761D01*
X84153333Y-100242380D01*
X84010476Y-100242380D01*
X83915238Y-100194761D01*
X83867619Y-100147142D01*
X82962857Y-100194761D02*
X83058095Y-100242380D01*
X83248571Y-100242380D01*
X83343809Y-100194761D01*
X83391428Y-100147142D01*
X83439047Y-100051904D01*
X83439047Y-99766190D01*
X83391428Y-99670952D01*
X83343809Y-99623333D01*
X83248571Y-99575714D01*
X83058095Y-99575714D01*
X82962857Y-99623333D01*
X82534285Y-100242380D02*
X82534285Y-99575714D01*
X82534285Y-99242380D02*
X82581904Y-99290000D01*
X82534285Y-99337619D01*
X82486666Y-99290000D01*
X82534285Y-99242380D01*
X82534285Y-99337619D01*
X81629523Y-100242380D02*
X81629523Y-99718571D01*
X81677142Y-99623333D01*
X81772380Y-99575714D01*
X81962857Y-99575714D01*
X82058095Y-99623333D01*
X81629523Y-100194761D02*
X81724761Y-100242380D01*
X81962857Y-100242380D01*
X82058095Y-100194761D01*
X82105714Y-100099523D01*
X82105714Y-100004285D01*
X82058095Y-99909047D01*
X81962857Y-99861428D01*
X81724761Y-99861428D01*
X81629523Y-99813809D01*
X81010476Y-100242380D02*
X81105714Y-100194761D01*
X81153333Y-100099523D01*
X81153333Y-99242380D01*
D11*
X84248571Y-97761428D02*
X84381904Y-97761428D01*
X84381904Y-97970952D02*
X84381904Y-97570952D01*
X84191428Y-97570952D01*
X84039047Y-97970952D02*
X84039047Y-97570952D01*
X83848571Y-97970952D02*
X83848571Y-97570952D01*
X83753333Y-97570952D01*
X83696190Y-97590000D01*
X83658095Y-97628095D01*
X83639047Y-97666190D01*
X83620000Y-97742380D01*
X83620000Y-97799523D01*
X83639047Y-97875714D01*
X83658095Y-97913809D01*
X83696190Y-97951904D01*
X83753333Y-97970952D01*
X83848571Y-97970952D01*
X83486666Y-97570952D02*
X83239047Y-97570952D01*
X83372380Y-97723333D01*
X83315238Y-97723333D01*
X83277142Y-97742380D01*
X83258095Y-97761428D01*
X83239047Y-97799523D01*
X83239047Y-97894761D01*
X83258095Y-97932857D01*
X83277142Y-97951904D01*
X83315238Y-97970952D01*
X83429523Y-97970952D01*
X83467619Y-97951904D01*
X83486666Y-97932857D01*
D10*
%TO.C,D11*%
X66892857Y-81863244D02*
X67369047Y-81863244D01*
X67369047Y-80863244D01*
X66559523Y-81339435D02*
X66226190Y-81339435D01*
X66083333Y-81863244D02*
X66559523Y-81863244D01*
X66559523Y-80863244D01*
X66083333Y-80863244D01*
X65654761Y-81863244D02*
X65654761Y-80863244D01*
X65416666Y-80863244D01*
X65273809Y-80910864D01*
X65178571Y-81006102D01*
X65130952Y-81101340D01*
X65083333Y-81291816D01*
X65083333Y-81434673D01*
X65130952Y-81625149D01*
X65178571Y-81720387D01*
X65273809Y-81815625D01*
X65416666Y-81863244D01*
X65654761Y-81863244D01*
D11*
X66735714Y-80161816D02*
X66735714Y-79761816D01*
X66640476Y-79761816D01*
X66583333Y-79780864D01*
X66545238Y-79818959D01*
X66526190Y-79857054D01*
X66507142Y-79933244D01*
X66507142Y-79990387D01*
X66526190Y-80066578D01*
X66545238Y-80104673D01*
X66583333Y-80142768D01*
X66640476Y-80161816D01*
X66735714Y-80161816D01*
X66126190Y-80161816D02*
X66354761Y-80161816D01*
X66240476Y-80161816D02*
X66240476Y-79761816D01*
X66278571Y-79818959D01*
X66316666Y-79857054D01*
X66354761Y-79876102D01*
X65745238Y-80161816D02*
X65973809Y-80161816D01*
X65859523Y-80161816D02*
X65859523Y-79761816D01*
X65897619Y-79818959D01*
X65935714Y-79857054D01*
X65973809Y-79876102D01*
D10*
%TO.C,D7*%
X74935857Y-89015244D02*
X75412047Y-89015244D01*
X75412047Y-88015244D01*
X74602523Y-88491435D02*
X74269190Y-88491435D01*
X74126333Y-89015244D02*
X74602523Y-89015244D01*
X74602523Y-88015244D01*
X74126333Y-88015244D01*
X73697761Y-89015244D02*
X73697761Y-88015244D01*
X73459666Y-88015244D01*
X73316809Y-88062864D01*
X73221571Y-88158102D01*
X73173952Y-88253340D01*
X73126333Y-88443816D01*
X73126333Y-88586673D01*
X73173952Y-88777149D01*
X73221571Y-88872387D01*
X73316809Y-88967625D01*
X73459666Y-89015244D01*
X73697761Y-89015244D01*
D11*
X74588238Y-90173816D02*
X74588238Y-89773816D01*
X74493000Y-89773816D01*
X74435857Y-89792864D01*
X74397761Y-89830959D01*
X74378714Y-89869054D01*
X74359666Y-89945244D01*
X74359666Y-90002387D01*
X74378714Y-90078578D01*
X74397761Y-90116673D01*
X74435857Y-90154768D01*
X74493000Y-90173816D01*
X74588238Y-90173816D01*
X74226333Y-89773816D02*
X73959666Y-89773816D01*
X74131095Y-90173816D01*
D10*
%TO.C,D14*%
X66892857Y-89363244D02*
X67369047Y-89363244D01*
X67369047Y-88363244D01*
X66559523Y-88839435D02*
X66226190Y-88839435D01*
X66083333Y-89363244D02*
X66559523Y-89363244D01*
X66559523Y-88363244D01*
X66083333Y-88363244D01*
X65654761Y-89363244D02*
X65654761Y-88363244D01*
X65416666Y-88363244D01*
X65273809Y-88410864D01*
X65178571Y-88506102D01*
X65130952Y-88601340D01*
X65083333Y-88791816D01*
X65083333Y-88934673D01*
X65130952Y-89125149D01*
X65178571Y-89220387D01*
X65273809Y-89315625D01*
X65416666Y-89363244D01*
X65654761Y-89363244D01*
D11*
X66735714Y-87661816D02*
X66735714Y-87261816D01*
X66640476Y-87261816D01*
X66583333Y-87280864D01*
X66545238Y-87318959D01*
X66526190Y-87357054D01*
X66507142Y-87433244D01*
X66507142Y-87490387D01*
X66526190Y-87566578D01*
X66545238Y-87604673D01*
X66583333Y-87642768D01*
X66640476Y-87661816D01*
X66735714Y-87661816D01*
X66126190Y-87661816D02*
X66354761Y-87661816D01*
X66240476Y-87661816D02*
X66240476Y-87261816D01*
X66278571Y-87318959D01*
X66316666Y-87357054D01*
X66354761Y-87376102D01*
X65783333Y-87395149D02*
X65783333Y-87661816D01*
X65878571Y-87242768D02*
X65973809Y-87528483D01*
X65726190Y-87528483D01*
D10*
%TO.C,D12*%
X66892857Y-84363244D02*
X67369047Y-84363244D01*
X67369047Y-83363244D01*
X66559523Y-83839435D02*
X66226190Y-83839435D01*
X66083333Y-84363244D02*
X66559523Y-84363244D01*
X66559523Y-83363244D01*
X66083333Y-83363244D01*
X65654761Y-84363244D02*
X65654761Y-83363244D01*
X65416666Y-83363244D01*
X65273809Y-83410864D01*
X65178571Y-83506102D01*
X65130952Y-83601340D01*
X65083333Y-83791816D01*
X65083333Y-83934673D01*
X65130952Y-84125149D01*
X65178571Y-84220387D01*
X65273809Y-84315625D01*
X65416666Y-84363244D01*
X65654761Y-84363244D01*
D11*
X66735714Y-82661816D02*
X66735714Y-82261816D01*
X66640476Y-82261816D01*
X66583333Y-82280864D01*
X66545238Y-82318959D01*
X66526190Y-82357054D01*
X66507142Y-82433244D01*
X66507142Y-82490387D01*
X66526190Y-82566578D01*
X66545238Y-82604673D01*
X66583333Y-82642768D01*
X66640476Y-82661816D01*
X66735714Y-82661816D01*
X66126190Y-82661816D02*
X66354761Y-82661816D01*
X66240476Y-82661816D02*
X66240476Y-82261816D01*
X66278571Y-82318959D01*
X66316666Y-82357054D01*
X66354761Y-82376102D01*
X65973809Y-82299911D02*
X65954761Y-82280864D01*
X65916666Y-82261816D01*
X65821428Y-82261816D01*
X65783333Y-82280864D01*
X65764285Y-82299911D01*
X65745238Y-82338006D01*
X65745238Y-82376102D01*
X65764285Y-82433244D01*
X65992857Y-82661816D01*
X65745238Y-82661816D01*
D10*
%TO.C,C10*%
X75271047Y-70887244D02*
X75842476Y-70887244D01*
X75556761Y-70887244D02*
X75556761Y-69887244D01*
X75651999Y-70030102D01*
X75747238Y-70125340D01*
X75842476Y-70172959D01*
X74651999Y-69887244D02*
X74556761Y-69887244D01*
X74461523Y-69934864D01*
X74413904Y-69982483D01*
X74366285Y-70077721D01*
X74318666Y-70268197D01*
X74318666Y-70506292D01*
X74366285Y-70696768D01*
X74413904Y-70792006D01*
X74461523Y-70839625D01*
X74556761Y-70887244D01*
X74651999Y-70887244D01*
X74747238Y-70839625D01*
X74794857Y-70792006D01*
X74842476Y-70696768D01*
X74890095Y-70506292D01*
X74890095Y-70268197D01*
X74842476Y-70077721D01*
X74794857Y-69982483D01*
X74747238Y-69934864D01*
X74651999Y-69887244D01*
X73699619Y-69887244D02*
X73604380Y-69887244D01*
X73509142Y-69934864D01*
X73461523Y-69982483D01*
X73413904Y-70077721D01*
X73366285Y-70268197D01*
X73366285Y-70506292D01*
X73413904Y-70696768D01*
X73461523Y-70792006D01*
X73509142Y-70839625D01*
X73604380Y-70887244D01*
X73699619Y-70887244D01*
X73794857Y-70839625D01*
X73842476Y-70792006D01*
X73890095Y-70696768D01*
X73937714Y-70506292D01*
X73937714Y-70268197D01*
X73890095Y-70077721D01*
X73842476Y-69982483D01*
X73794857Y-69934864D01*
X73699619Y-69887244D01*
X72937714Y-70220578D02*
X72937714Y-70887244D01*
X72937714Y-70315816D02*
X72890095Y-70268197D01*
X72794857Y-70220578D01*
X72651999Y-70220578D01*
X72556761Y-70268197D01*
X72509142Y-70363435D01*
X72509142Y-70887244D01*
D11*
X74409142Y-72007721D02*
X74428190Y-72026768D01*
X74485333Y-72045816D01*
X74523428Y-72045816D01*
X74580571Y-72026768D01*
X74618666Y-71988673D01*
X74637714Y-71950578D01*
X74656761Y-71874387D01*
X74656761Y-71817244D01*
X74637714Y-71741054D01*
X74618666Y-71702959D01*
X74580571Y-71664864D01*
X74523428Y-71645816D01*
X74485333Y-71645816D01*
X74428190Y-71664864D01*
X74409142Y-71683911D01*
X74028190Y-72045816D02*
X74256761Y-72045816D01*
X74142476Y-72045816D02*
X74142476Y-71645816D01*
X74180571Y-71702959D01*
X74218666Y-71741054D01*
X74256761Y-71760102D01*
X73780571Y-71645816D02*
X73742476Y-71645816D01*
X73704380Y-71664864D01*
X73685333Y-71683911D01*
X73666285Y-71722006D01*
X73647238Y-71798197D01*
X73647238Y-71893435D01*
X73666285Y-71969625D01*
X73685333Y-72007721D01*
X73704380Y-72026768D01*
X73742476Y-72045816D01*
X73780571Y-72045816D01*
X73818666Y-72026768D01*
X73837714Y-72007721D01*
X73856761Y-71969625D01*
X73875809Y-71893435D01*
X73875809Y-71798197D01*
X73856761Y-71722006D01*
X73837714Y-71683911D01*
X73818666Y-71664864D01*
X73780571Y-71645816D01*
D10*
%TO.C,C7*%
X75366285Y-67950483D02*
X75318666Y-67902864D01*
X75223428Y-67855244D01*
X74985333Y-67855244D01*
X74890095Y-67902864D01*
X74842476Y-67950483D01*
X74794857Y-68045721D01*
X74794857Y-68140959D01*
X74842476Y-68283816D01*
X75413904Y-68855244D01*
X74794857Y-68855244D01*
X74413904Y-67950483D02*
X74366285Y-67902864D01*
X74271047Y-67855244D01*
X74032952Y-67855244D01*
X73937714Y-67902864D01*
X73890095Y-67950483D01*
X73842476Y-68045721D01*
X73842476Y-68140959D01*
X73890095Y-68283816D01*
X74461523Y-68855244D01*
X73842476Y-68855244D01*
X72985333Y-68188578D02*
X72985333Y-68855244D01*
X73413904Y-68188578D02*
X73413904Y-68712387D01*
X73366285Y-68807625D01*
X73271047Y-68855244D01*
X73128190Y-68855244D01*
X73032952Y-68807625D01*
X72985333Y-68760006D01*
D11*
X74218666Y-69975721D02*
X74237714Y-69994768D01*
X74294857Y-70013816D01*
X74332952Y-70013816D01*
X74390095Y-69994768D01*
X74428190Y-69956673D01*
X74447238Y-69918578D01*
X74466285Y-69842387D01*
X74466285Y-69785244D01*
X74447238Y-69709054D01*
X74428190Y-69670959D01*
X74390095Y-69632864D01*
X74332952Y-69613816D01*
X74294857Y-69613816D01*
X74237714Y-69632864D01*
X74218666Y-69651911D01*
X74085333Y-69613816D02*
X73818666Y-69613816D01*
X73990095Y-70013816D01*
D10*
%TO.C,C9*%
X75525047Y-91461244D02*
X76096476Y-91461244D01*
X75810761Y-91461244D02*
X75810761Y-90461244D01*
X75905999Y-90604102D01*
X76001238Y-90699340D01*
X76096476Y-90746959D01*
X74905999Y-90461244D02*
X74810761Y-90461244D01*
X74715523Y-90508864D01*
X74667904Y-90556483D01*
X74620285Y-90651721D01*
X74572666Y-90842197D01*
X74572666Y-91080292D01*
X74620285Y-91270768D01*
X74667904Y-91366006D01*
X74715523Y-91413625D01*
X74810761Y-91461244D01*
X74905999Y-91461244D01*
X75001238Y-91413625D01*
X75048857Y-91366006D01*
X75096476Y-91270768D01*
X75144095Y-91080292D01*
X75144095Y-90842197D01*
X75096476Y-90651721D01*
X75048857Y-90556483D01*
X75001238Y-90508864D01*
X74905999Y-90461244D01*
X73953619Y-90461244D02*
X73858380Y-90461244D01*
X73763142Y-90508864D01*
X73715523Y-90556483D01*
X73667904Y-90651721D01*
X73620285Y-90842197D01*
X73620285Y-91080292D01*
X73667904Y-91270768D01*
X73715523Y-91366006D01*
X73763142Y-91413625D01*
X73858380Y-91461244D01*
X73953619Y-91461244D01*
X74048857Y-91413625D01*
X74096476Y-91366006D01*
X74144095Y-91270768D01*
X74191714Y-91080292D01*
X74191714Y-90842197D01*
X74144095Y-90651721D01*
X74096476Y-90556483D01*
X74048857Y-90508864D01*
X73953619Y-90461244D01*
X73191714Y-90794578D02*
X73191714Y-91461244D01*
X73191714Y-90889816D02*
X73144095Y-90842197D01*
X73048857Y-90794578D01*
X72905999Y-90794578D01*
X72810761Y-90842197D01*
X72763142Y-90937435D01*
X72763142Y-91461244D01*
D11*
X74472666Y-92581721D02*
X74491714Y-92600768D01*
X74548857Y-92619816D01*
X74586952Y-92619816D01*
X74644095Y-92600768D01*
X74682190Y-92562673D01*
X74701238Y-92524578D01*
X74720285Y-92448387D01*
X74720285Y-92391244D01*
X74701238Y-92315054D01*
X74682190Y-92276959D01*
X74644095Y-92238864D01*
X74586952Y-92219816D01*
X74548857Y-92219816D01*
X74491714Y-92238864D01*
X74472666Y-92257911D01*
X74282190Y-92619816D02*
X74206000Y-92619816D01*
X74167904Y-92600768D01*
X74148857Y-92581721D01*
X74110761Y-92524578D01*
X74091714Y-92448387D01*
X74091714Y-92296006D01*
X74110761Y-92257911D01*
X74129809Y-92238864D01*
X74167904Y-92219816D01*
X74244095Y-92219816D01*
X74282190Y-92238864D01*
X74301238Y-92257911D01*
X74320285Y-92296006D01*
X74320285Y-92391244D01*
X74301238Y-92429340D01*
X74282190Y-92448387D01*
X74244095Y-92467435D01*
X74167904Y-92467435D01*
X74129809Y-92448387D01*
X74110761Y-92429340D01*
X74091714Y-92391244D01*
D10*
%TO.C,U2*%
X73194761Y-71694197D02*
X73242380Y-71837054D01*
X73242380Y-72075149D01*
X73194761Y-72170387D01*
X73147142Y-72218006D01*
X73051904Y-72265625D01*
X72956666Y-72265625D01*
X72861428Y-72218006D01*
X72813809Y-72170387D01*
X72766190Y-72075149D01*
X72718571Y-71884673D01*
X72670952Y-71789435D01*
X72623333Y-71741816D01*
X72528095Y-71694197D01*
X72432857Y-71694197D01*
X72337619Y-71741816D01*
X72290000Y-71789435D01*
X72242380Y-71884673D01*
X72242380Y-72122768D01*
X72290000Y-72265625D01*
X73242380Y-73218006D02*
X73242380Y-72646578D01*
X73242380Y-72932292D02*
X72242380Y-72932292D01*
X72385238Y-72837054D01*
X72480476Y-72741816D01*
X72528095Y-72646578D01*
X72337619Y-73598959D02*
X72290000Y-73646578D01*
X72242380Y-73741816D01*
X72242380Y-73979911D01*
X72290000Y-74075149D01*
X72337619Y-74122768D01*
X72432857Y-74170387D01*
X72528095Y-74170387D01*
X72670952Y-74122768D01*
X73242380Y-73551340D01*
X73242380Y-74170387D01*
X72575714Y-75027530D02*
X73242380Y-75027530D01*
X72194761Y-74789435D02*
X72909047Y-74551340D01*
X72909047Y-75170387D01*
X72575714Y-75979911D02*
X73242380Y-75979911D01*
X72194761Y-75741816D02*
X72909047Y-75503721D01*
X72909047Y-76122768D01*
X72242380Y-76408483D02*
X72242380Y-77027530D01*
X72623333Y-76694197D01*
X72623333Y-76837054D01*
X72670952Y-76932292D01*
X72718571Y-76979911D01*
X72813809Y-77027530D01*
X73051904Y-77027530D01*
X73147142Y-76979911D01*
X73194761Y-76932292D01*
X73242380Y-76837054D01*
X73242380Y-76551340D01*
X73194761Y-76456102D01*
X73147142Y-76408483D01*
X66527380Y-83758959D02*
X67336904Y-83758959D01*
X67432142Y-83806578D01*
X67479761Y-83854197D01*
X67527380Y-83949435D01*
X67527380Y-84139911D01*
X67479761Y-84235149D01*
X67432142Y-84282768D01*
X67336904Y-84330387D01*
X66527380Y-84330387D01*
X66622619Y-84758959D02*
X66575000Y-84806578D01*
X66527380Y-84901816D01*
X66527380Y-85139911D01*
X66575000Y-85235149D01*
X66622619Y-85282768D01*
X66717857Y-85330387D01*
X66813095Y-85330387D01*
X66955952Y-85282768D01*
X67527380Y-84711340D01*
X67527380Y-85330387D01*
%TO.C,D13*%
X66892857Y-86863244D02*
X67369047Y-86863244D01*
X67369047Y-85863244D01*
X66559523Y-86339435D02*
X66226190Y-86339435D01*
X66083333Y-86863244D02*
X66559523Y-86863244D01*
X66559523Y-85863244D01*
X66083333Y-85863244D01*
X65654761Y-86863244D02*
X65654761Y-85863244D01*
X65416666Y-85863244D01*
X65273809Y-85910864D01*
X65178571Y-86006102D01*
X65130952Y-86101340D01*
X65083333Y-86291816D01*
X65083333Y-86434673D01*
X65130952Y-86625149D01*
X65178571Y-86720387D01*
X65273809Y-86815625D01*
X65416666Y-86863244D01*
X65654761Y-86863244D01*
D11*
X66735714Y-85161816D02*
X66735714Y-84761816D01*
X66640476Y-84761816D01*
X66583333Y-84780864D01*
X66545238Y-84818959D01*
X66526190Y-84857054D01*
X66507142Y-84933244D01*
X66507142Y-84990387D01*
X66526190Y-85066578D01*
X66545238Y-85104673D01*
X66583333Y-85142768D01*
X66640476Y-85161816D01*
X66735714Y-85161816D01*
X66126190Y-85161816D02*
X66354761Y-85161816D01*
X66240476Y-85161816D02*
X66240476Y-84761816D01*
X66278571Y-84818959D01*
X66316666Y-84857054D01*
X66354761Y-84876102D01*
X65992857Y-84761816D02*
X65745238Y-84761816D01*
X65878571Y-84914197D01*
X65821428Y-84914197D01*
X65783333Y-84933244D01*
X65764285Y-84952292D01*
X65745238Y-84990387D01*
X65745238Y-85085625D01*
X65764285Y-85123721D01*
X65783333Y-85142768D01*
X65821428Y-85161816D01*
X65935714Y-85161816D01*
X65973809Y-85142768D01*
X65992857Y-85123721D01*
D10*
%TO.C,J1*%
X67417142Y-92477530D02*
X67464761Y-92429911D01*
X67512380Y-92287054D01*
X67512380Y-92191816D01*
X67464761Y-92048959D01*
X67369523Y-91953721D01*
X67274285Y-91906102D01*
X67083809Y-91858483D01*
X66940952Y-91858483D01*
X66750476Y-91906102D01*
X66655238Y-91953721D01*
X66560000Y-92048959D01*
X66512380Y-92191816D01*
X66512380Y-92287054D01*
X66560000Y-92429911D01*
X66607619Y-92477530D01*
X67512380Y-93048959D02*
X67464761Y-92953721D01*
X67417142Y-92906102D01*
X67321904Y-92858483D01*
X67036190Y-92858483D01*
X66940952Y-92906102D01*
X66893333Y-92953721D01*
X66845714Y-93048959D01*
X66845714Y-93191816D01*
X66893333Y-93287054D01*
X66940952Y-93334673D01*
X67036190Y-93382292D01*
X67321904Y-93382292D01*
X67417142Y-93334673D01*
X67464761Y-93287054D01*
X67512380Y-93191816D01*
X67512380Y-93048959D01*
X66845714Y-93810864D02*
X67512380Y-93810864D01*
X66940952Y-93810864D02*
X66893333Y-93858483D01*
X66845714Y-93953721D01*
X66845714Y-94096578D01*
X66893333Y-94191816D01*
X66988571Y-94239435D01*
X67512380Y-94239435D01*
X66845714Y-94715625D02*
X67512380Y-94715625D01*
X66940952Y-94715625D02*
X66893333Y-94763244D01*
X66845714Y-94858483D01*
X66845714Y-95001340D01*
X66893333Y-95096578D01*
X66988571Y-95144197D01*
X67512380Y-95144197D01*
X67607619Y-95382292D02*
X67607619Y-96144197D01*
X66512380Y-96572768D02*
X66512380Y-96668006D01*
X66560000Y-96763244D01*
X66607619Y-96810864D01*
X66702857Y-96858483D01*
X66893333Y-96906102D01*
X67131428Y-96906102D01*
X67321904Y-96858483D01*
X67417142Y-96810864D01*
X67464761Y-96763244D01*
X67512380Y-96668006D01*
X67512380Y-96572768D01*
X67464761Y-96477530D01*
X67417142Y-96429911D01*
X67321904Y-96382292D01*
X67131428Y-96334673D01*
X66893333Y-96334673D01*
X66702857Y-96382292D01*
X66607619Y-96429911D01*
X66560000Y-96477530D01*
X66512380Y-96572768D01*
X67512380Y-97858483D02*
X67512380Y-97287054D01*
X67512380Y-97572768D02*
X66512380Y-97572768D01*
X66655238Y-97477530D01*
X66750476Y-97382292D01*
X66798095Y-97287054D01*
X67512380Y-98191816D02*
X66845714Y-98715625D01*
X66845714Y-98191816D02*
X67512380Y-98715625D01*
X66512380Y-99287054D02*
X66512380Y-99382292D01*
X66560000Y-99477530D01*
X66607619Y-99525149D01*
X66702857Y-99572768D01*
X66893333Y-99620387D01*
X67131428Y-99620387D01*
X67321904Y-99572768D01*
X67417142Y-99525149D01*
X67464761Y-99477530D01*
X67512380Y-99382292D01*
X67512380Y-99287054D01*
X67464761Y-99191816D01*
X67417142Y-99144197D01*
X67321904Y-99096578D01*
X67131428Y-99048959D01*
X66893333Y-99048959D01*
X66702857Y-99096578D01*
X66607619Y-99144197D01*
X66560000Y-99191816D01*
X66512380Y-99287054D01*
X66607619Y-100001340D02*
X66560000Y-100048959D01*
X66512380Y-100144197D01*
X66512380Y-100382292D01*
X66560000Y-100477530D01*
X66607619Y-100525149D01*
X66702857Y-100572768D01*
X66798095Y-100572768D01*
X66940952Y-100525149D01*
X67512380Y-99953721D01*
X67512380Y-100572768D01*
X67607619Y-100763244D02*
X67607619Y-101525149D01*
X67512380Y-101763244D02*
X66512380Y-101763244D01*
X67226666Y-102096578D01*
X66512380Y-102429911D01*
X67512380Y-102429911D01*
X67512380Y-103334673D02*
X66988571Y-103334673D01*
X66893333Y-103287054D01*
X66845714Y-103191816D01*
X66845714Y-103001340D01*
X66893333Y-102906102D01*
X67464761Y-103334673D02*
X67512380Y-103239435D01*
X67512380Y-103001340D01*
X67464761Y-102906102D01*
X67369523Y-102858483D01*
X67274285Y-102858483D01*
X67179047Y-102906102D01*
X67131428Y-103001340D01*
X67131428Y-103239435D01*
X67083809Y-103334673D01*
X67512380Y-103953721D02*
X67464761Y-103858483D01*
X67369523Y-103810864D01*
X66512380Y-103810864D01*
X67464761Y-104715625D02*
X67512380Y-104620387D01*
X67512380Y-104429911D01*
X67464761Y-104334673D01*
X67369523Y-104287054D01*
X66988571Y-104287054D01*
X66893333Y-104334673D01*
X66845714Y-104429911D01*
X66845714Y-104620387D01*
X66893333Y-104715625D01*
X66988571Y-104763244D01*
X67083809Y-104763244D01*
X67179047Y-104287054D01*
X70993333Y-97763244D02*
X70993333Y-98477530D01*
X71040952Y-98620387D01*
X71136190Y-98715625D01*
X71279047Y-98763244D01*
X71374285Y-98763244D01*
X69993333Y-98763244D02*
X70564761Y-98763244D01*
X70279047Y-98763244D02*
X70279047Y-97763244D01*
X70374285Y-97906102D01*
X70469523Y-98001340D01*
X70564761Y-98048959D01*
%TO.C,D9*%
X66892857Y-76875244D02*
X67369047Y-76875244D01*
X67369047Y-75875244D01*
X66559523Y-76351435D02*
X66226190Y-76351435D01*
X66083333Y-76875244D02*
X66559523Y-76875244D01*
X66559523Y-75875244D01*
X66083333Y-75875244D01*
X65654761Y-76875244D02*
X65654761Y-75875244D01*
X65416666Y-75875244D01*
X65273809Y-75922864D01*
X65178571Y-76018102D01*
X65130952Y-76113340D01*
X65083333Y-76303816D01*
X65083333Y-76446673D01*
X65130952Y-76637149D01*
X65178571Y-76732387D01*
X65273809Y-76827625D01*
X65416666Y-76875244D01*
X65654761Y-76875244D01*
D11*
X66545238Y-75173816D02*
X66545238Y-74773816D01*
X66450000Y-74773816D01*
X66392857Y-74792864D01*
X66354761Y-74830959D01*
X66335714Y-74869054D01*
X66316666Y-74945244D01*
X66316666Y-75002387D01*
X66335714Y-75078578D01*
X66354761Y-75116673D01*
X66392857Y-75154768D01*
X66450000Y-75173816D01*
X66545238Y-75173816D01*
X66126190Y-75173816D02*
X66050000Y-75173816D01*
X66011904Y-75154768D01*
X65992857Y-75135721D01*
X65954761Y-75078578D01*
X65935714Y-75002387D01*
X65935714Y-74850006D01*
X65954761Y-74811911D01*
X65973809Y-74792864D01*
X66011904Y-74773816D01*
X66088095Y-74773816D01*
X66126190Y-74792864D01*
X66145238Y-74811911D01*
X66164285Y-74850006D01*
X66164285Y-74945244D01*
X66145238Y-74983340D01*
X66126190Y-75002387D01*
X66088095Y-75021435D01*
X66011904Y-75021435D01*
X65973809Y-75002387D01*
X65954761Y-74983340D01*
X65935714Y-74945244D01*
D10*
%TO.C,D1*%
X74935857Y-74015244D02*
X75412047Y-74015244D01*
X75412047Y-73015244D01*
X74602523Y-73491435D02*
X74269190Y-73491435D01*
X74126333Y-74015244D02*
X74602523Y-74015244D01*
X74602523Y-73015244D01*
X74126333Y-73015244D01*
X73697761Y-74015244D02*
X73697761Y-73015244D01*
X73459666Y-73015244D01*
X73316809Y-73062864D01*
X73221571Y-73158102D01*
X73173952Y-73253340D01*
X73126333Y-73443816D01*
X73126333Y-73586673D01*
X73173952Y-73777149D01*
X73221571Y-73872387D01*
X73316809Y-73967625D01*
X73459666Y-74015244D01*
X73697761Y-74015244D01*
D11*
X74588238Y-75173816D02*
X74588238Y-74773816D01*
X74493000Y-74773816D01*
X74435857Y-74792864D01*
X74397761Y-74830959D01*
X74378714Y-74869054D01*
X74359666Y-74945244D01*
X74359666Y-75002387D01*
X74378714Y-75078578D01*
X74397761Y-75116673D01*
X74435857Y-75154768D01*
X74493000Y-75173816D01*
X74588238Y-75173816D01*
X73978714Y-75173816D02*
X74207285Y-75173816D01*
X74093000Y-75173816D02*
X74093000Y-74773816D01*
X74131095Y-74830959D01*
X74169190Y-74869054D01*
X74207285Y-74888102D01*
D10*
%TO.C,J2*%
X80107142Y-55147530D02*
X80154761Y-55099911D01*
X80202380Y-54957054D01*
X80202380Y-54861816D01*
X80154761Y-54718959D01*
X80059523Y-54623721D01*
X79964285Y-54576102D01*
X79773809Y-54528483D01*
X79630952Y-54528483D01*
X79440476Y-54576102D01*
X79345238Y-54623721D01*
X79250000Y-54718959D01*
X79202380Y-54861816D01*
X79202380Y-54957054D01*
X79250000Y-55099911D01*
X79297619Y-55147530D01*
X80202380Y-55718959D02*
X80154761Y-55623721D01*
X80107142Y-55576102D01*
X80011904Y-55528483D01*
X79726190Y-55528483D01*
X79630952Y-55576102D01*
X79583333Y-55623721D01*
X79535714Y-55718959D01*
X79535714Y-55861816D01*
X79583333Y-55957054D01*
X79630952Y-56004673D01*
X79726190Y-56052292D01*
X80011904Y-56052292D01*
X80107142Y-56004673D01*
X80154761Y-55957054D01*
X80202380Y-55861816D01*
X80202380Y-55718959D01*
X79535714Y-56480864D02*
X80202380Y-56480864D01*
X79630952Y-56480864D02*
X79583333Y-56528483D01*
X79535714Y-56623721D01*
X79535714Y-56766578D01*
X79583333Y-56861816D01*
X79678571Y-56909435D01*
X80202380Y-56909435D01*
X79535714Y-57385625D02*
X80202380Y-57385625D01*
X79630952Y-57385625D02*
X79583333Y-57433244D01*
X79535714Y-57528483D01*
X79535714Y-57671340D01*
X79583333Y-57766578D01*
X79678571Y-57814197D01*
X80202380Y-57814197D01*
X80297619Y-58052292D02*
X80297619Y-58814197D01*
X79202380Y-59242768D02*
X79202380Y-59338006D01*
X79250000Y-59433244D01*
X79297619Y-59480864D01*
X79392857Y-59528483D01*
X79583333Y-59576102D01*
X79821428Y-59576102D01*
X80011904Y-59528483D01*
X80107142Y-59480864D01*
X80154761Y-59433244D01*
X80202380Y-59338006D01*
X80202380Y-59242768D01*
X80154761Y-59147530D01*
X80107142Y-59099911D01*
X80011904Y-59052292D01*
X79821428Y-59004673D01*
X79583333Y-59004673D01*
X79392857Y-59052292D01*
X79297619Y-59099911D01*
X79250000Y-59147530D01*
X79202380Y-59242768D01*
X80202380Y-60528483D02*
X80202380Y-59957054D01*
X80202380Y-60242768D02*
X79202380Y-60242768D01*
X79345238Y-60147530D01*
X79440476Y-60052292D01*
X79488095Y-59957054D01*
X80202380Y-60861816D02*
X79535714Y-61385625D01*
X79535714Y-60861816D02*
X80202380Y-61385625D01*
X79202380Y-61957054D02*
X79202380Y-62052292D01*
X79250000Y-62147530D01*
X79297619Y-62195149D01*
X79392857Y-62242768D01*
X79583333Y-62290387D01*
X79821428Y-62290387D01*
X80011904Y-62242768D01*
X80107142Y-62195149D01*
X80154761Y-62147530D01*
X80202380Y-62052292D01*
X80202380Y-61957054D01*
X80154761Y-61861816D01*
X80107142Y-61814197D01*
X80011904Y-61766578D01*
X79821428Y-61718959D01*
X79583333Y-61718959D01*
X79392857Y-61766578D01*
X79297619Y-61814197D01*
X79250000Y-61861816D01*
X79202380Y-61957054D01*
X79297619Y-62671340D02*
X79250000Y-62718959D01*
X79202380Y-62814197D01*
X79202380Y-63052292D01*
X79250000Y-63147530D01*
X79297619Y-63195149D01*
X79392857Y-63242768D01*
X79488095Y-63242768D01*
X79630952Y-63195149D01*
X80202380Y-62623721D01*
X80202380Y-63242768D01*
X80297619Y-63433244D02*
X80297619Y-64195149D01*
X80202380Y-64433244D02*
X79202380Y-64433244D01*
X79916666Y-64766578D01*
X79202380Y-65099911D01*
X80202380Y-65099911D01*
X80202380Y-66004673D02*
X79678571Y-66004673D01*
X79583333Y-65957054D01*
X79535714Y-65861816D01*
X79535714Y-65671340D01*
X79583333Y-65576102D01*
X80154761Y-66004673D02*
X80202380Y-65909435D01*
X80202380Y-65671340D01*
X80154761Y-65576102D01*
X80059523Y-65528483D01*
X79964285Y-65528483D01*
X79869047Y-65576102D01*
X79821428Y-65671340D01*
X79821428Y-65909435D01*
X79773809Y-66004673D01*
X80202380Y-66623721D02*
X80154761Y-66528483D01*
X80059523Y-66480864D01*
X79202380Y-66480864D01*
X80154761Y-67385625D02*
X80202380Y-67290387D01*
X80202380Y-67099911D01*
X80154761Y-67004673D01*
X80059523Y-66957054D01*
X79678571Y-66957054D01*
X79583333Y-67004673D01*
X79535714Y-67099911D01*
X79535714Y-67290387D01*
X79583333Y-67385625D01*
X79678571Y-67433244D01*
X79773809Y-67433244D01*
X79869047Y-66957054D01*
X70988333Y-61933244D02*
X70988333Y-62647530D01*
X71035952Y-62790387D01*
X71131190Y-62885625D01*
X71274047Y-62933244D01*
X71369285Y-62933244D01*
X70559761Y-62028483D02*
X70512142Y-61980864D01*
X70416904Y-61933244D01*
X70178809Y-61933244D01*
X70083571Y-61980864D01*
X70035952Y-62028483D01*
X69988333Y-62123721D01*
X69988333Y-62218959D01*
X70035952Y-62361816D01*
X70607380Y-62933244D01*
X69988333Y-62933244D01*
%TO.C,D3*%
X74935857Y-79015244D02*
X75412047Y-79015244D01*
X75412047Y-78015244D01*
X74602523Y-78491435D02*
X74269190Y-78491435D01*
X74126333Y-79015244D02*
X74602523Y-79015244D01*
X74602523Y-78015244D01*
X74126333Y-78015244D01*
X73697761Y-79015244D02*
X73697761Y-78015244D01*
X73459666Y-78015244D01*
X73316809Y-78062864D01*
X73221571Y-78158102D01*
X73173952Y-78253340D01*
X73126333Y-78443816D01*
X73126333Y-78586673D01*
X73173952Y-78777149D01*
X73221571Y-78872387D01*
X73316809Y-78967625D01*
X73459666Y-79015244D01*
X73697761Y-79015244D01*
D11*
X74588238Y-80173816D02*
X74588238Y-79773816D01*
X74493000Y-79773816D01*
X74435857Y-79792864D01*
X74397761Y-79830959D01*
X74378714Y-79869054D01*
X74359666Y-79945244D01*
X74359666Y-80002387D01*
X74378714Y-80078578D01*
X74397761Y-80116673D01*
X74435857Y-80154768D01*
X74493000Y-80173816D01*
X74588238Y-80173816D01*
X74226333Y-79773816D02*
X73978714Y-79773816D01*
X74112047Y-79926197D01*
X74054904Y-79926197D01*
X74016809Y-79945244D01*
X73997761Y-79964292D01*
X73978714Y-80002387D01*
X73978714Y-80097625D01*
X73997761Y-80135721D01*
X74016809Y-80154768D01*
X74054904Y-80173816D01*
X74169190Y-80173816D01*
X74207285Y-80154768D01*
X74226333Y-80135721D01*
D10*
%TO.C,D10*%
X66892857Y-79363244D02*
X67369047Y-79363244D01*
X67369047Y-78363244D01*
X66559523Y-78839435D02*
X66226190Y-78839435D01*
X66083333Y-79363244D02*
X66559523Y-79363244D01*
X66559523Y-78363244D01*
X66083333Y-78363244D01*
X65654761Y-79363244D02*
X65654761Y-78363244D01*
X65416666Y-78363244D01*
X65273809Y-78410864D01*
X65178571Y-78506102D01*
X65130952Y-78601340D01*
X65083333Y-78791816D01*
X65083333Y-78934673D01*
X65130952Y-79125149D01*
X65178571Y-79220387D01*
X65273809Y-79315625D01*
X65416666Y-79363244D01*
X65654761Y-79363244D01*
D11*
X66735714Y-77661816D02*
X66735714Y-77261816D01*
X66640476Y-77261816D01*
X66583333Y-77280864D01*
X66545238Y-77318959D01*
X66526190Y-77357054D01*
X66507142Y-77433244D01*
X66507142Y-77490387D01*
X66526190Y-77566578D01*
X66545238Y-77604673D01*
X66583333Y-77642768D01*
X66640476Y-77661816D01*
X66735714Y-77661816D01*
X66126190Y-77661816D02*
X66354761Y-77661816D01*
X66240476Y-77661816D02*
X66240476Y-77261816D01*
X66278571Y-77318959D01*
X66316666Y-77357054D01*
X66354761Y-77376102D01*
X65878571Y-77261816D02*
X65840476Y-77261816D01*
X65802380Y-77280864D01*
X65783333Y-77299911D01*
X65764285Y-77338006D01*
X65745238Y-77414197D01*
X65745238Y-77509435D01*
X65764285Y-77585625D01*
X65783333Y-77623721D01*
X65802380Y-77642768D01*
X65840476Y-77661816D01*
X65878571Y-77661816D01*
X65916666Y-77642768D01*
X65935714Y-77623721D01*
X65954761Y-77585625D01*
X65973809Y-77509435D01*
X65973809Y-77414197D01*
X65954761Y-77338006D01*
X65935714Y-77299911D01*
X65916666Y-77280864D01*
X65878571Y-77261816D01*
D10*
%TO.C,D5*%
X74935857Y-84015244D02*
X75412047Y-84015244D01*
X75412047Y-83015244D01*
X74602523Y-83491435D02*
X74269190Y-83491435D01*
X74126333Y-84015244D02*
X74602523Y-84015244D01*
X74602523Y-83015244D01*
X74126333Y-83015244D01*
X73697761Y-84015244D02*
X73697761Y-83015244D01*
X73459666Y-83015244D01*
X73316809Y-83062864D01*
X73221571Y-83158102D01*
X73173952Y-83253340D01*
X73126333Y-83443816D01*
X73126333Y-83586673D01*
X73173952Y-83777149D01*
X73221571Y-83872387D01*
X73316809Y-83967625D01*
X73459666Y-84015244D01*
X73697761Y-84015244D01*
D11*
X74588238Y-85173816D02*
X74588238Y-84773816D01*
X74493000Y-84773816D01*
X74435857Y-84792864D01*
X74397761Y-84830959D01*
X74378714Y-84869054D01*
X74359666Y-84945244D01*
X74359666Y-85002387D01*
X74378714Y-85078578D01*
X74397761Y-85116673D01*
X74435857Y-85154768D01*
X74493000Y-85173816D01*
X74588238Y-85173816D01*
X73997761Y-84773816D02*
X74188238Y-84773816D01*
X74207285Y-84964292D01*
X74188238Y-84945244D01*
X74150142Y-84926197D01*
X74054904Y-84926197D01*
X74016809Y-84945244D01*
X73997761Y-84964292D01*
X73978714Y-85002387D01*
X73978714Y-85097625D01*
X73997761Y-85135721D01*
X74016809Y-85154768D01*
X74054904Y-85173816D01*
X74150142Y-85173816D01*
X74188238Y-85154768D01*
X74207285Y-85135721D01*
D12*
%TO.C,D2*%
X73493000Y-77592864D02*
X73493000Y-77092864D01*
X73793000Y-77892864D02*
X73493000Y-77592864D01*
X75093000Y-77892864D02*
X73793000Y-77892864D01*
X73493000Y-77092864D02*
X75093000Y-77092864D01*
X75093000Y-77092864D02*
X75093000Y-77892864D01*
%TO.C,FID4*%
X65750000Y-67980864D02*
G75*
G03*
X65750000Y-67980864I-1000000J0D01*
G01*
%TO.C,D4*%
X73493000Y-82092864D02*
X75093000Y-82092864D01*
X75093000Y-82092864D02*
X75093000Y-82892864D01*
X73493000Y-82592864D02*
X73493000Y-82092864D01*
X73793000Y-82892864D02*
X73493000Y-82592864D01*
X75093000Y-82892864D02*
X73793000Y-82892864D01*
%TO.C,D15*%
X67050000Y-90380864D02*
X65450000Y-90380864D01*
X67050000Y-89880864D02*
X67050000Y-90380864D01*
X65450000Y-89580864D02*
X66750000Y-89580864D01*
X65450000Y-90380864D02*
X65450000Y-89580864D01*
X66750000Y-89580864D02*
X67050000Y-89880864D01*
%TO.C,J4*%
X68115000Y-65210864D02*
X68115000Y-67750864D01*
X68115000Y-67750864D02*
X72560000Y-67750864D01*
X73195000Y-67115864D02*
X73195000Y-65210864D01*
X72560000Y-67750864D02*
X73195000Y-67115864D01*
X73195000Y-65210864D02*
X68115000Y-65210864D01*
%TO.C,C6*%
X75206000Y-94870864D02*
X75206000Y-94070864D01*
X73606000Y-94870864D02*
X75206000Y-94870864D01*
X73606000Y-94070864D02*
X73606000Y-94870864D01*
X75206000Y-94070864D02*
X73606000Y-94070864D01*
%TO.C,J3*%
X68120000Y-101040864D02*
X68120000Y-103580864D01*
X73200000Y-102945864D02*
X73200000Y-101040864D01*
X72565000Y-103580864D02*
X73200000Y-102945864D01*
X73200000Y-101040864D02*
X68120000Y-101040864D01*
X68120000Y-103580864D02*
X72565000Y-103580864D01*
%TO.C,D6*%
X75093000Y-87892864D02*
X73793000Y-87892864D01*
X73493000Y-87092864D02*
X75093000Y-87092864D01*
X73493000Y-87592864D02*
X73493000Y-87092864D01*
X75093000Y-87092864D02*
X75093000Y-87892864D01*
X73793000Y-87892864D02*
X73493000Y-87592864D01*
%TO.C,C8*%
X67900000Y-70930864D02*
X67100000Y-70930864D01*
X67100000Y-72530864D02*
X67900000Y-72530864D01*
X67100000Y-70930864D02*
X67100000Y-72530864D01*
X67900000Y-72530864D02*
X67900000Y-70930864D01*
%TO.C,FID3*%
X84820000Y-97790000D02*
G75*
G03*
X84820000Y-97790000I-1000000J0D01*
G01*
%TO.C,D11*%
X67050000Y-80380864D02*
X65450000Y-80380864D01*
X65450000Y-79580864D02*
X66750000Y-79580864D01*
X67050000Y-79880864D02*
X67050000Y-80380864D01*
X65450000Y-80380864D02*
X65450000Y-79580864D01*
X66750000Y-79580864D02*
X67050000Y-79880864D01*
%TO.C,D7*%
X73793000Y-90392864D02*
X73493000Y-90092864D01*
X73493000Y-90092864D02*
X73493000Y-89592864D01*
X75093000Y-89592864D02*
X75093000Y-90392864D01*
X73493000Y-89592864D02*
X75093000Y-89592864D01*
X75093000Y-90392864D02*
X73793000Y-90392864D01*
%TO.C,D14*%
X67050000Y-87380864D02*
X67050000Y-87880864D01*
X67050000Y-87880864D02*
X65450000Y-87880864D01*
X65450000Y-87880864D02*
X65450000Y-87080864D01*
X66750000Y-87080864D02*
X67050000Y-87380864D01*
X65450000Y-87080864D02*
X66750000Y-87080864D01*
%TO.C,D12*%
X65450000Y-82080864D02*
X66750000Y-82080864D01*
X65450000Y-82880864D02*
X65450000Y-82080864D01*
X67050000Y-82880864D02*
X65450000Y-82880864D01*
X66750000Y-82080864D02*
X67050000Y-82380864D01*
X67050000Y-82380864D02*
X67050000Y-82880864D01*
%TO.C,C10*%
X74952000Y-71464864D02*
X73352000Y-71464864D01*
X74952000Y-72264864D02*
X74952000Y-71464864D01*
X73352000Y-71464864D02*
X73352000Y-72264864D01*
X73352000Y-72264864D02*
X74952000Y-72264864D01*
%TO.C,C7*%
X73352000Y-69432864D02*
X73352000Y-70232864D01*
X74952000Y-70232864D02*
X74952000Y-69432864D01*
X73352000Y-70232864D02*
X74952000Y-70232864D01*
X74952000Y-69432864D02*
X73352000Y-69432864D01*
%TO.C,C9*%
X73606000Y-92838864D02*
X75206000Y-92838864D01*
X75206000Y-92038864D02*
X73606000Y-92038864D01*
X73606000Y-92038864D02*
X73606000Y-92838864D01*
X75206000Y-92838864D02*
X75206000Y-92038864D01*
%TO.C,D13*%
X65450000Y-84580864D02*
X66750000Y-84580864D01*
X66750000Y-84580864D02*
X67050000Y-84880864D01*
X67050000Y-84880864D02*
X67050000Y-85380864D01*
X65450000Y-85380864D02*
X65450000Y-84580864D01*
X67050000Y-85380864D02*
X65450000Y-85380864D01*
%TO.C,J1*%
X68120000Y-99580864D02*
X72565000Y-99580864D01*
X68120000Y-97040864D02*
X68120000Y-99580864D01*
X72565000Y-99580864D02*
X73200000Y-98945864D01*
X73200000Y-98945864D02*
X73200000Y-97040864D01*
X73200000Y-97040864D02*
X68120000Y-97040864D01*
%TO.C,D9*%
X66750000Y-74592864D02*
X67050000Y-74892864D01*
X65450000Y-75392864D02*
X65450000Y-74592864D01*
X67050000Y-75392864D02*
X65450000Y-75392864D01*
X65450000Y-74592864D02*
X66750000Y-74592864D01*
X67050000Y-74892864D02*
X67050000Y-75392864D01*
%TO.C,D1*%
X73793000Y-75392864D02*
X73493000Y-75092864D01*
X75093000Y-74592864D02*
X75093000Y-75392864D01*
X75093000Y-75392864D02*
X73793000Y-75392864D01*
X73493000Y-74592864D02*
X75093000Y-74592864D01*
X73493000Y-75092864D02*
X73493000Y-74592864D01*
%TO.C,J2*%
X72560000Y-63750864D02*
X73195000Y-63115864D01*
X73195000Y-63115864D02*
X73195000Y-61210864D01*
X68115000Y-63750864D02*
X72560000Y-63750864D01*
X68115000Y-61210864D02*
X68115000Y-63750864D01*
X73195000Y-61210864D02*
X68115000Y-61210864D01*
%TO.C,D3*%
X73493000Y-80092864D02*
X73493000Y-79592864D01*
X73493000Y-79592864D02*
X75093000Y-79592864D01*
X73793000Y-80392864D02*
X73493000Y-80092864D01*
X75093000Y-80392864D02*
X73793000Y-80392864D01*
X75093000Y-79592864D02*
X75093000Y-80392864D01*
%TO.C,D10*%
X65450000Y-77080864D02*
X66750000Y-77080864D01*
X67050000Y-77380864D02*
X67050000Y-77880864D01*
X66750000Y-77080864D02*
X67050000Y-77380864D01*
X65450000Y-77880864D02*
X65450000Y-77080864D01*
X67050000Y-77880864D02*
X65450000Y-77880864D01*
%TO.C,D5*%
X73793000Y-85392864D02*
X73493000Y-85092864D01*
X75093000Y-84592864D02*
X75093000Y-85392864D01*
X73493000Y-85092864D02*
X73493000Y-84592864D01*
X73493000Y-84592864D02*
X75093000Y-84592864D01*
X75093000Y-85392864D02*
X73793000Y-85392864D01*
%TD*%
M02*
