%TF.GenerationSoftware,KiCad,Pcbnew,(6.0.10)*%
%TF.CreationDate,2023-03-05T19:00:04+01:00*%
%TF.ProjectId,HighPrecPosSens,48696768-5072-4656-9350-6f7353656e73,1*%
%TF.SameCoordinates,Original*%
%TF.FileFunction,Legend,Top*%
%TF.FilePolarity,Positive*%
%FSLAX46Y46*%
G04 Gerber Fmt 4.6, Leading zero omitted, Abs format (unit mm)*
G04 Created by KiCad (PCBNEW (6.0.10)) date 2023-03-05 19:00:04*
%MOMM*%
%LPD*%
G01*
G04 APERTURE LIST*
%ADD10C,0.150000*%
%ADD11C,0.200000*%
%ADD12C,0.250000*%
%ADD13C,0.120000*%
G04 APERTURE END LIST*
D10*
X103727714Y-108215180D02*
X104061047Y-109215180D01*
X104394380Y-108215180D01*
X105108666Y-109167561D02*
X105013428Y-109215180D01*
X104822952Y-109215180D01*
X104727714Y-109167561D01*
X104680095Y-109072323D01*
X104680095Y-108691371D01*
X104727714Y-108596133D01*
X104822952Y-108548514D01*
X105013428Y-108548514D01*
X105108666Y-108596133D01*
X105156285Y-108691371D01*
X105156285Y-108786609D01*
X104680095Y-108881847D01*
X105584857Y-109215180D02*
X105584857Y-108548514D01*
X105584857Y-108738990D02*
X105632476Y-108643752D01*
X105680095Y-108596133D01*
X105775333Y-108548514D01*
X105870571Y-108548514D01*
X106156285Y-109167561D02*
X106251523Y-109215180D01*
X106442000Y-109215180D01*
X106537238Y-109167561D01*
X106584857Y-109072323D01*
X106584857Y-109024704D01*
X106537238Y-108929466D01*
X106442000Y-108881847D01*
X106299142Y-108881847D01*
X106203904Y-108834228D01*
X106156285Y-108738990D01*
X106156285Y-108691371D01*
X106203904Y-108596133D01*
X106299142Y-108548514D01*
X106442000Y-108548514D01*
X106537238Y-108596133D01*
X107013428Y-109215180D02*
X107013428Y-108548514D01*
X107013428Y-108215180D02*
X106965809Y-108262800D01*
X107013428Y-108310419D01*
X107061047Y-108262800D01*
X107013428Y-108215180D01*
X107013428Y-108310419D01*
X107632476Y-109215180D02*
X107537238Y-109167561D01*
X107489619Y-109119942D01*
X107442000Y-109024704D01*
X107442000Y-108738990D01*
X107489619Y-108643752D01*
X107537238Y-108596133D01*
X107632476Y-108548514D01*
X107775333Y-108548514D01*
X107870571Y-108596133D01*
X107918190Y-108643752D01*
X107965809Y-108738990D01*
X107965809Y-109024704D01*
X107918190Y-109119942D01*
X107870571Y-109167561D01*
X107775333Y-109215180D01*
X107632476Y-109215180D01*
X108394380Y-108548514D02*
X108394380Y-109215180D01*
X108394380Y-108643752D02*
X108442000Y-108596133D01*
X108537238Y-108548514D01*
X108680095Y-108548514D01*
X108775333Y-108596133D01*
X108822952Y-108691371D01*
X108822952Y-109215180D01*
X110584857Y-109215180D02*
X110013428Y-109215180D01*
X110299142Y-109215180D02*
X110299142Y-108215180D01*
X110203904Y-108358038D01*
X110108666Y-108453276D01*
X110013428Y-108500895D01*
X111013428Y-109119942D02*
X111061047Y-109167561D01*
X111013428Y-109215180D01*
X110965809Y-109167561D01*
X111013428Y-109119942D01*
X111013428Y-109215180D01*
D11*
X103643180Y-98345047D02*
X104357466Y-98345047D01*
X104500323Y-98392666D01*
X104595561Y-98487904D01*
X104643180Y-98630761D01*
X104643180Y-98726000D01*
X104643180Y-97392666D02*
X104643180Y-97868857D01*
X103643180Y-97868857D01*
X104547942Y-96487904D02*
X104595561Y-96535523D01*
X104643180Y-96678380D01*
X104643180Y-96773619D01*
X104595561Y-96916476D01*
X104500323Y-97011714D01*
X104405085Y-97059333D01*
X104214609Y-97106952D01*
X104071752Y-97106952D01*
X103881276Y-97059333D01*
X103786038Y-97011714D01*
X103690800Y-96916476D01*
X103643180Y-96773619D01*
X103643180Y-96678380D01*
X103690800Y-96535523D01*
X103738419Y-96487904D01*
X103643180Y-95773619D02*
X104357466Y-95773619D01*
X104500323Y-95821238D01*
X104595561Y-95916476D01*
X104643180Y-96059333D01*
X104643180Y-96154571D01*
X104643180Y-94821238D02*
X104643180Y-95297428D01*
X103643180Y-95297428D01*
X104547942Y-93916476D02*
X104595561Y-93964095D01*
X104643180Y-94106952D01*
X104643180Y-94202190D01*
X104595561Y-94345047D01*
X104500323Y-94440285D01*
X104405085Y-94487904D01*
X104214609Y-94535523D01*
X104071752Y-94535523D01*
X103881276Y-94487904D01*
X103786038Y-94440285D01*
X103690800Y-94345047D01*
X103643180Y-94202190D01*
X103643180Y-94106952D01*
X103690800Y-93964095D01*
X103738419Y-93916476D01*
X103643180Y-93202190D02*
X104357466Y-93202190D01*
X104500323Y-93249809D01*
X104595561Y-93345047D01*
X104643180Y-93487904D01*
X104643180Y-93583142D01*
X104643180Y-92249809D02*
X104643180Y-92726000D01*
X103643180Y-92726000D01*
X104547942Y-91345047D02*
X104595561Y-91392666D01*
X104643180Y-91535523D01*
X104643180Y-91630761D01*
X104595561Y-91773619D01*
X104500323Y-91868857D01*
X104405085Y-91916476D01*
X104214609Y-91964095D01*
X104071752Y-91964095D01*
X103881276Y-91916476D01*
X103786038Y-91868857D01*
X103690800Y-91773619D01*
X103643180Y-91630761D01*
X103643180Y-91535523D01*
X103690800Y-91392666D01*
X103738419Y-91345047D01*
X103643180Y-90630761D02*
X104357466Y-90630761D01*
X104500323Y-90678380D01*
X104595561Y-90773619D01*
X104643180Y-90916476D01*
X104643180Y-91011714D01*
X104643180Y-89678380D02*
X104643180Y-90154571D01*
X103643180Y-90154571D01*
X104547942Y-88773619D02*
X104595561Y-88821238D01*
X104643180Y-88964095D01*
X104643180Y-89059333D01*
X104595561Y-89202190D01*
X104500323Y-89297428D01*
X104405085Y-89345047D01*
X104214609Y-89392666D01*
X104071752Y-89392666D01*
X103881276Y-89345047D01*
X103786038Y-89297428D01*
X103690800Y-89202190D01*
X103643180Y-89059333D01*
X103643180Y-88964095D01*
X103690800Y-88821238D01*
X103738419Y-88773619D01*
D12*
X74494095Y-55949380D02*
X74494095Y-54949380D01*
X74494095Y-55425571D02*
X75065523Y-55425571D01*
X75065523Y-55949380D02*
X75065523Y-54949380D01*
X75541714Y-55949380D02*
X75541714Y-55282714D01*
X75541714Y-54949380D02*
X75494095Y-54997000D01*
X75541714Y-55044619D01*
X75589333Y-54997000D01*
X75541714Y-54949380D01*
X75541714Y-55044619D01*
X76446476Y-55282714D02*
X76446476Y-56092238D01*
X76398857Y-56187476D01*
X76351238Y-56235095D01*
X76256000Y-56282714D01*
X76113142Y-56282714D01*
X76017904Y-56235095D01*
X76446476Y-55901761D02*
X76351238Y-55949380D01*
X76160761Y-55949380D01*
X76065523Y-55901761D01*
X76017904Y-55854142D01*
X75970285Y-55758904D01*
X75970285Y-55473190D01*
X76017904Y-55377952D01*
X76065523Y-55330333D01*
X76160761Y-55282714D01*
X76351238Y-55282714D01*
X76446476Y-55330333D01*
X76922666Y-55949380D02*
X76922666Y-54949380D01*
X77351238Y-55949380D02*
X77351238Y-55425571D01*
X77303619Y-55330333D01*
X77208380Y-55282714D01*
X77065523Y-55282714D01*
X76970285Y-55330333D01*
X76922666Y-55377952D01*
X78589333Y-55949380D02*
X78589333Y-54949380D01*
X78970285Y-54949380D01*
X79065523Y-54997000D01*
X79113142Y-55044619D01*
X79160761Y-55139857D01*
X79160761Y-55282714D01*
X79113142Y-55377952D01*
X79065523Y-55425571D01*
X78970285Y-55473190D01*
X78589333Y-55473190D01*
X79589333Y-55949380D02*
X79589333Y-55282714D01*
X79589333Y-55473190D02*
X79636952Y-55377952D01*
X79684571Y-55330333D01*
X79779809Y-55282714D01*
X79875047Y-55282714D01*
X80589333Y-55901761D02*
X80494095Y-55949380D01*
X80303619Y-55949380D01*
X80208380Y-55901761D01*
X80160761Y-55806523D01*
X80160761Y-55425571D01*
X80208380Y-55330333D01*
X80303619Y-55282714D01*
X80494095Y-55282714D01*
X80589333Y-55330333D01*
X80636952Y-55425571D01*
X80636952Y-55520809D01*
X80160761Y-55616047D01*
X81494095Y-55901761D02*
X81398857Y-55949380D01*
X81208380Y-55949380D01*
X81113142Y-55901761D01*
X81065523Y-55854142D01*
X81017904Y-55758904D01*
X81017904Y-55473190D01*
X81065523Y-55377952D01*
X81113142Y-55330333D01*
X81208380Y-55282714D01*
X81398857Y-55282714D01*
X81494095Y-55330333D01*
X81922666Y-55949380D02*
X81922666Y-55282714D01*
X81922666Y-54949380D02*
X81875047Y-54997000D01*
X81922666Y-55044619D01*
X81970285Y-54997000D01*
X81922666Y-54949380D01*
X81922666Y-55044619D01*
X82351238Y-55901761D02*
X82446476Y-55949380D01*
X82636952Y-55949380D01*
X82732190Y-55901761D01*
X82779809Y-55806523D01*
X82779809Y-55758904D01*
X82732190Y-55663666D01*
X82636952Y-55616047D01*
X82494095Y-55616047D01*
X82398857Y-55568428D01*
X82351238Y-55473190D01*
X82351238Y-55425571D01*
X82398857Y-55330333D01*
X82494095Y-55282714D01*
X82636952Y-55282714D01*
X82732190Y-55330333D01*
X83208380Y-55949380D02*
X83208380Y-55282714D01*
X83208380Y-54949380D02*
X83160761Y-54997000D01*
X83208380Y-55044619D01*
X83256000Y-54997000D01*
X83208380Y-54949380D01*
X83208380Y-55044619D01*
X83827428Y-55949380D02*
X83732190Y-55901761D01*
X83684571Y-55854142D01*
X83636952Y-55758904D01*
X83636952Y-55473190D01*
X83684571Y-55377952D01*
X83732190Y-55330333D01*
X83827428Y-55282714D01*
X83970285Y-55282714D01*
X84065523Y-55330333D01*
X84113142Y-55377952D01*
X84160761Y-55473190D01*
X84160761Y-55758904D01*
X84113142Y-55854142D01*
X84065523Y-55901761D01*
X83970285Y-55949380D01*
X83827428Y-55949380D01*
X84589333Y-55282714D02*
X84589333Y-55949380D01*
X84589333Y-55377952D02*
X84636952Y-55330333D01*
X84732190Y-55282714D01*
X84875047Y-55282714D01*
X84970285Y-55330333D01*
X85017904Y-55425571D01*
X85017904Y-55949380D01*
X74065523Y-57559380D02*
X74065523Y-56559380D01*
X74446476Y-56559380D01*
X74541714Y-56607000D01*
X74589333Y-56654619D01*
X74636952Y-56749857D01*
X74636952Y-56892714D01*
X74589333Y-56987952D01*
X74541714Y-57035571D01*
X74446476Y-57083190D01*
X74065523Y-57083190D01*
X75208380Y-57559380D02*
X75113142Y-57511761D01*
X75065523Y-57464142D01*
X75017904Y-57368904D01*
X75017904Y-57083190D01*
X75065523Y-56987952D01*
X75113142Y-56940333D01*
X75208380Y-56892714D01*
X75351238Y-56892714D01*
X75446476Y-56940333D01*
X75494095Y-56987952D01*
X75541714Y-57083190D01*
X75541714Y-57368904D01*
X75494095Y-57464142D01*
X75446476Y-57511761D01*
X75351238Y-57559380D01*
X75208380Y-57559380D01*
X75922666Y-57511761D02*
X76017904Y-57559380D01*
X76208380Y-57559380D01*
X76303619Y-57511761D01*
X76351238Y-57416523D01*
X76351238Y-57368904D01*
X76303619Y-57273666D01*
X76208380Y-57226047D01*
X76065523Y-57226047D01*
X75970285Y-57178428D01*
X75922666Y-57083190D01*
X75922666Y-57035571D01*
X75970285Y-56940333D01*
X76065523Y-56892714D01*
X76208380Y-56892714D01*
X76303619Y-56940333D01*
X76779809Y-57559380D02*
X76779809Y-56892714D01*
X76779809Y-56559380D02*
X76732190Y-56607000D01*
X76779809Y-56654619D01*
X76827428Y-56607000D01*
X76779809Y-56559380D01*
X76779809Y-56654619D01*
X77113142Y-56892714D02*
X77494095Y-56892714D01*
X77256000Y-56559380D02*
X77256000Y-57416523D01*
X77303619Y-57511761D01*
X77398857Y-57559380D01*
X77494095Y-57559380D01*
X77827428Y-57559380D02*
X77827428Y-56892714D01*
X77827428Y-56559380D02*
X77779809Y-56607000D01*
X77827428Y-56654619D01*
X77875047Y-56607000D01*
X77827428Y-56559380D01*
X77827428Y-56654619D01*
X78446476Y-57559380D02*
X78351238Y-57511761D01*
X78303619Y-57464142D01*
X78256000Y-57368904D01*
X78256000Y-57083190D01*
X78303619Y-56987952D01*
X78351238Y-56940333D01*
X78446476Y-56892714D01*
X78589333Y-56892714D01*
X78684571Y-56940333D01*
X78732190Y-56987952D01*
X78779809Y-57083190D01*
X78779809Y-57368904D01*
X78732190Y-57464142D01*
X78684571Y-57511761D01*
X78589333Y-57559380D01*
X78446476Y-57559380D01*
X79208380Y-56892714D02*
X79208380Y-57559380D01*
X79208380Y-56987952D02*
X79256000Y-56940333D01*
X79351238Y-56892714D01*
X79494095Y-56892714D01*
X79589333Y-56940333D01*
X79636952Y-57035571D01*
X79636952Y-57559380D01*
X80827428Y-57511761D02*
X80970285Y-57559380D01*
X81208380Y-57559380D01*
X81303619Y-57511761D01*
X81351238Y-57464142D01*
X81398857Y-57368904D01*
X81398857Y-57273666D01*
X81351238Y-57178428D01*
X81303619Y-57130809D01*
X81208380Y-57083190D01*
X81017904Y-57035571D01*
X80922666Y-56987952D01*
X80875047Y-56940333D01*
X80827428Y-56845095D01*
X80827428Y-56749857D01*
X80875047Y-56654619D01*
X80922666Y-56607000D01*
X81017904Y-56559380D01*
X81256000Y-56559380D01*
X81398857Y-56607000D01*
X82208380Y-57511761D02*
X82113142Y-57559380D01*
X81922666Y-57559380D01*
X81827428Y-57511761D01*
X81779809Y-57416523D01*
X81779809Y-57035571D01*
X81827428Y-56940333D01*
X81922666Y-56892714D01*
X82113142Y-56892714D01*
X82208380Y-56940333D01*
X82256000Y-57035571D01*
X82256000Y-57130809D01*
X81779809Y-57226047D01*
X82684571Y-56892714D02*
X82684571Y-57559380D01*
X82684571Y-56987952D02*
X82732190Y-56940333D01*
X82827428Y-56892714D01*
X82970285Y-56892714D01*
X83065523Y-56940333D01*
X83113142Y-57035571D01*
X83113142Y-57559380D01*
X83541714Y-57511761D02*
X83636952Y-57559380D01*
X83827428Y-57559380D01*
X83922666Y-57511761D01*
X83970285Y-57416523D01*
X83970285Y-57368904D01*
X83922666Y-57273666D01*
X83827428Y-57226047D01*
X83684571Y-57226047D01*
X83589333Y-57178428D01*
X83541714Y-57083190D01*
X83541714Y-57035571D01*
X83589333Y-56940333D01*
X83684571Y-56892714D01*
X83827428Y-56892714D01*
X83922666Y-56940333D01*
X84541714Y-57559380D02*
X84446476Y-57511761D01*
X84398857Y-57464142D01*
X84351238Y-57368904D01*
X84351238Y-57083190D01*
X84398857Y-56987952D01*
X84446476Y-56940333D01*
X84541714Y-56892714D01*
X84684571Y-56892714D01*
X84779809Y-56940333D01*
X84827428Y-56987952D01*
X84875047Y-57083190D01*
X84875047Y-57368904D01*
X84827428Y-57464142D01*
X84779809Y-57511761D01*
X84684571Y-57559380D01*
X84541714Y-57559380D01*
X85303619Y-57559380D02*
X85303619Y-56892714D01*
X85303619Y-57083190D02*
X85351238Y-56987952D01*
X85398857Y-56940333D01*
X85494095Y-56892714D01*
X85589333Y-56892714D01*
X73136952Y-59550333D02*
X73089333Y-59502714D01*
X72994095Y-59359857D01*
X72946476Y-59264619D01*
X72898857Y-59121761D01*
X72851238Y-58883666D01*
X72851238Y-58693190D01*
X72898857Y-58455095D01*
X72946476Y-58312238D01*
X72994095Y-58217000D01*
X73089333Y-58074142D01*
X73136952Y-58026523D01*
X73946476Y-59121761D02*
X73851238Y-59169380D01*
X73660761Y-59169380D01*
X73565523Y-59121761D01*
X73517904Y-59074142D01*
X73470285Y-58978904D01*
X73470285Y-58693190D01*
X73517904Y-58597952D01*
X73565523Y-58550333D01*
X73660761Y-58502714D01*
X73851238Y-58502714D01*
X73946476Y-58550333D01*
X74279809Y-59550333D02*
X74327428Y-59502714D01*
X74422666Y-59359857D01*
X74470285Y-59264619D01*
X74517904Y-59121761D01*
X74565523Y-58883666D01*
X74565523Y-58693190D01*
X74517904Y-58455095D01*
X74470285Y-58312238D01*
X74422666Y-58217000D01*
X74327428Y-58074142D01*
X74279809Y-58026523D01*
X75756000Y-58264619D02*
X75803619Y-58217000D01*
X75898857Y-58169380D01*
X76136952Y-58169380D01*
X76232190Y-58217000D01*
X76279809Y-58264619D01*
X76327428Y-58359857D01*
X76327428Y-58455095D01*
X76279809Y-58597952D01*
X75708380Y-59169380D01*
X76327428Y-59169380D01*
X76946476Y-58169380D02*
X77041714Y-58169380D01*
X77136952Y-58217000D01*
X77184571Y-58264619D01*
X77232190Y-58359857D01*
X77279809Y-58550333D01*
X77279809Y-58788428D01*
X77232190Y-58978904D01*
X77184571Y-59074142D01*
X77136952Y-59121761D01*
X77041714Y-59169380D01*
X76946476Y-59169380D01*
X76851238Y-59121761D01*
X76803619Y-59074142D01*
X76756000Y-58978904D01*
X76708380Y-58788428D01*
X76708380Y-58550333D01*
X76756000Y-58359857D01*
X76803619Y-58264619D01*
X76851238Y-58217000D01*
X76946476Y-58169380D01*
X77660761Y-58264619D02*
X77708380Y-58217000D01*
X77803619Y-58169380D01*
X78041714Y-58169380D01*
X78136952Y-58217000D01*
X78184571Y-58264619D01*
X78232190Y-58359857D01*
X78232190Y-58455095D01*
X78184571Y-58597952D01*
X77613142Y-59169380D01*
X78232190Y-59169380D01*
X78565523Y-58169380D02*
X79184571Y-58169380D01*
X78851238Y-58550333D01*
X78994095Y-58550333D01*
X79089333Y-58597952D01*
X79136952Y-58645571D01*
X79184571Y-58740809D01*
X79184571Y-58978904D01*
X79136952Y-59074142D01*
X79089333Y-59121761D01*
X78994095Y-59169380D01*
X78708380Y-59169380D01*
X78613142Y-59121761D01*
X78565523Y-59074142D01*
X80756000Y-59121761D02*
X80660761Y-59169380D01*
X80470285Y-59169380D01*
X80375047Y-59121761D01*
X80327428Y-59026523D01*
X80327428Y-58645571D01*
X80375047Y-58550333D01*
X80470285Y-58502714D01*
X80660761Y-58502714D01*
X80756000Y-58550333D01*
X80803619Y-58645571D01*
X80803619Y-58740809D01*
X80327428Y-58836047D01*
X81232190Y-58502714D02*
X81232190Y-59169380D01*
X81232190Y-58597952D02*
X81279809Y-58550333D01*
X81375047Y-58502714D01*
X81517904Y-58502714D01*
X81613142Y-58550333D01*
X81660761Y-58645571D01*
X81660761Y-59169380D01*
X82660761Y-58217000D02*
X82565523Y-58169380D01*
X82422666Y-58169380D01*
X82279809Y-58217000D01*
X82184571Y-58312238D01*
X82136952Y-58407476D01*
X82089333Y-58597952D01*
X82089333Y-58740809D01*
X82136952Y-58931285D01*
X82184571Y-59026523D01*
X82279809Y-59121761D01*
X82422666Y-59169380D01*
X82517904Y-59169380D01*
X82660761Y-59121761D01*
X82708380Y-59074142D01*
X82708380Y-58740809D01*
X82517904Y-58740809D01*
X83041714Y-58502714D02*
X83279809Y-59169380D01*
X83517904Y-58502714D02*
X83279809Y-59169380D01*
X83184571Y-59407476D01*
X83136952Y-59455095D01*
X83041714Y-59502714D01*
X83898857Y-58502714D02*
X83898857Y-59169380D01*
X83898857Y-58597952D02*
X83946476Y-58550333D01*
X84041714Y-58502714D01*
X84184571Y-58502714D01*
X84279809Y-58550333D01*
X84327428Y-58645571D01*
X84327428Y-59169380D01*
X85184571Y-59121761D02*
X85089333Y-59169380D01*
X84898857Y-59169380D01*
X84803619Y-59121761D01*
X84756000Y-59026523D01*
X84756000Y-58645571D01*
X84803619Y-58550333D01*
X84898857Y-58502714D01*
X85089333Y-58502714D01*
X85184571Y-58550333D01*
X85232190Y-58645571D01*
X85232190Y-58740809D01*
X84756000Y-58836047D01*
X86041714Y-59121761D02*
X85946476Y-59169380D01*
X85756000Y-59169380D01*
X85660761Y-59121761D01*
X85613142Y-59026523D01*
X85613142Y-58645571D01*
X85660761Y-58550333D01*
X85756000Y-58502714D01*
X85946476Y-58502714D01*
X86041714Y-58550333D01*
X86089333Y-58645571D01*
X86089333Y-58740809D01*
X85613142Y-58836047D01*
X86517904Y-59169380D02*
X86517904Y-58502714D01*
X86517904Y-58693190D02*
X86565523Y-58597952D01*
X86613142Y-58550333D01*
X86708380Y-58502714D01*
X86803619Y-58502714D01*
X73589333Y-60779380D02*
X73589333Y-59779380D01*
X73589333Y-60160333D02*
X73684571Y-60112714D01*
X73875047Y-60112714D01*
X73970285Y-60160333D01*
X74017904Y-60207952D01*
X74065523Y-60303190D01*
X74065523Y-60588904D01*
X74017904Y-60684142D01*
X73970285Y-60731761D01*
X73875047Y-60779380D01*
X73684571Y-60779380D01*
X73589333Y-60731761D01*
X74398857Y-60112714D02*
X74636952Y-60779380D01*
X74875047Y-60112714D02*
X74636952Y-60779380D01*
X74541714Y-61017476D01*
X74494095Y-61065095D01*
X74398857Y-61112714D01*
X76017904Y-60779380D02*
X76017904Y-59779380D01*
X76351238Y-60493666D01*
X76684571Y-59779380D01*
X76684571Y-60779380D01*
X77589333Y-60779380D02*
X77589333Y-60255571D01*
X77541714Y-60160333D01*
X77446476Y-60112714D01*
X77256000Y-60112714D01*
X77160761Y-60160333D01*
X77589333Y-60731761D02*
X77494095Y-60779380D01*
X77256000Y-60779380D01*
X77160761Y-60731761D01*
X77113142Y-60636523D01*
X77113142Y-60541285D01*
X77160761Y-60446047D01*
X77256000Y-60398428D01*
X77494095Y-60398428D01*
X77589333Y-60350809D01*
X78065523Y-60779380D02*
X78065523Y-60112714D01*
X78065523Y-60303190D02*
X78113142Y-60207952D01*
X78160761Y-60160333D01*
X78256000Y-60112714D01*
X78351238Y-60112714D01*
X78541714Y-60112714D02*
X78922666Y-60112714D01*
X78684571Y-59779380D02*
X78684571Y-60636523D01*
X78732190Y-60731761D01*
X78827428Y-60779380D01*
X78922666Y-60779380D01*
X79256000Y-60779380D02*
X79256000Y-60112714D01*
X79256000Y-59779380D02*
X79208380Y-59827000D01*
X79256000Y-59874619D01*
X79303619Y-59827000D01*
X79256000Y-59779380D01*
X79256000Y-59874619D01*
X79732190Y-60112714D02*
X79732190Y-60779380D01*
X79732190Y-60207952D02*
X79779809Y-60160333D01*
X79875047Y-60112714D01*
X80017904Y-60112714D01*
X80113142Y-60160333D01*
X80160761Y-60255571D01*
X80160761Y-60779380D01*
X81922666Y-59827000D02*
X81827428Y-59779380D01*
X81684571Y-59779380D01*
X81541714Y-59827000D01*
X81446476Y-59922238D01*
X81398857Y-60017476D01*
X81351238Y-60207952D01*
X81351238Y-60350809D01*
X81398857Y-60541285D01*
X81446476Y-60636523D01*
X81541714Y-60731761D01*
X81684571Y-60779380D01*
X81779809Y-60779380D01*
X81922666Y-60731761D01*
X81970285Y-60684142D01*
X81970285Y-60350809D01*
X81779809Y-60350809D01*
X82303619Y-60112714D02*
X82541714Y-60779380D01*
X82779809Y-60112714D02*
X82541714Y-60779380D01*
X82446476Y-61017476D01*
X82398857Y-61065095D01*
X82303619Y-61112714D01*
X83589333Y-60112714D02*
X83589333Y-60779380D01*
X83160761Y-60112714D02*
X83160761Y-60636523D01*
X83208380Y-60731761D01*
X83303619Y-60779380D01*
X83446476Y-60779380D01*
X83541714Y-60731761D01*
X83589333Y-60684142D01*
X84065523Y-60779380D02*
X84065523Y-60112714D01*
X84065523Y-60303190D02*
X84113142Y-60207952D01*
X84160761Y-60160333D01*
X84256000Y-60112714D01*
X84351238Y-60112714D01*
X84684571Y-60779380D02*
X84684571Y-59779380D01*
X84779809Y-60398428D02*
X85065523Y-60779380D01*
X85065523Y-60112714D02*
X84684571Y-60493666D01*
X85636952Y-60779380D02*
X85541714Y-60731761D01*
X85494095Y-60684142D01*
X85446476Y-60588904D01*
X85446476Y-60303190D01*
X85494095Y-60207952D01*
X85541714Y-60160333D01*
X85636952Y-60112714D01*
X85779809Y-60112714D01*
X85875047Y-60160333D01*
X85922666Y-60207952D01*
X85970285Y-60303190D01*
X85970285Y-60588904D01*
X85922666Y-60684142D01*
X85875047Y-60731761D01*
X85779809Y-60779380D01*
X85636952Y-60779380D01*
D10*
%TO.C,H2*%
X119988095Y-62933244D02*
X119988095Y-61933244D01*
X119988095Y-62409435D02*
X120559523Y-62409435D01*
X120559523Y-62933244D02*
X120559523Y-61933244D01*
X120988095Y-62028483D02*
X121035714Y-61980864D01*
X121130952Y-61933244D01*
X121369047Y-61933244D01*
X121464285Y-61980864D01*
X121511904Y-62028483D01*
X121559523Y-62123721D01*
X121559523Y-62218959D01*
X121511904Y-62361816D01*
X120940476Y-62933244D01*
X121559523Y-62933244D01*
%TO.C,R19*%
X85447142Y-71503244D02*
X85113809Y-71027054D01*
X84875714Y-71503244D02*
X84875714Y-70503244D01*
X85256666Y-70503244D01*
X85351904Y-70550864D01*
X85399523Y-70598483D01*
X85447142Y-70693721D01*
X85447142Y-70836578D01*
X85399523Y-70931816D01*
X85351904Y-70979435D01*
X85256666Y-71027054D01*
X84875714Y-71027054D01*
X86399523Y-71503244D02*
X85828095Y-71503244D01*
X86113809Y-71503244D02*
X86113809Y-70503244D01*
X86018571Y-70646102D01*
X85923333Y-70741340D01*
X85828095Y-70788959D01*
X86875714Y-71503244D02*
X87066190Y-71503244D01*
X87161428Y-71455625D01*
X87209047Y-71408006D01*
X87304285Y-71265149D01*
X87351904Y-71074673D01*
X87351904Y-70693721D01*
X87304285Y-70598483D01*
X87256666Y-70550864D01*
X87161428Y-70503244D01*
X86970952Y-70503244D01*
X86875714Y-70550864D01*
X86828095Y-70598483D01*
X86780476Y-70693721D01*
X86780476Y-70931816D01*
X86828095Y-71027054D01*
X86875714Y-71074673D01*
X86970952Y-71122292D01*
X87161428Y-71122292D01*
X87256666Y-71074673D01*
X87304285Y-71027054D01*
X87351904Y-70931816D01*
%TO.C,R27*%
X86607142Y-109933244D02*
X86273809Y-109457054D01*
X86035714Y-109933244D02*
X86035714Y-108933244D01*
X86416666Y-108933244D01*
X86511904Y-108980864D01*
X86559523Y-109028483D01*
X86607142Y-109123721D01*
X86607142Y-109266578D01*
X86559523Y-109361816D01*
X86511904Y-109409435D01*
X86416666Y-109457054D01*
X86035714Y-109457054D01*
X86988095Y-109028483D02*
X87035714Y-108980864D01*
X87130952Y-108933244D01*
X87369047Y-108933244D01*
X87464285Y-108980864D01*
X87511904Y-109028483D01*
X87559523Y-109123721D01*
X87559523Y-109218959D01*
X87511904Y-109361816D01*
X86940476Y-109933244D01*
X87559523Y-109933244D01*
X87892857Y-108933244D02*
X88559523Y-108933244D01*
X88130952Y-109933244D01*
%TO.C,C20*%
X64607142Y-120838006D02*
X64559523Y-120885625D01*
X64416666Y-120933244D01*
X64321428Y-120933244D01*
X64178571Y-120885625D01*
X64083333Y-120790387D01*
X64035714Y-120695149D01*
X63988095Y-120504673D01*
X63988095Y-120361816D01*
X64035714Y-120171340D01*
X64083333Y-120076102D01*
X64178571Y-119980864D01*
X64321428Y-119933244D01*
X64416666Y-119933244D01*
X64559523Y-119980864D01*
X64607142Y-120028483D01*
X64988095Y-120028483D02*
X65035714Y-119980864D01*
X65130952Y-119933244D01*
X65369047Y-119933244D01*
X65464285Y-119980864D01*
X65511904Y-120028483D01*
X65559523Y-120123721D01*
X65559523Y-120218959D01*
X65511904Y-120361816D01*
X64940476Y-120933244D01*
X65559523Y-120933244D01*
X66178571Y-119933244D02*
X66273809Y-119933244D01*
X66369047Y-119980864D01*
X66416666Y-120028483D01*
X66464285Y-120123721D01*
X66511904Y-120314197D01*
X66511904Y-120552292D01*
X66464285Y-120742768D01*
X66416666Y-120838006D01*
X66369047Y-120885625D01*
X66273809Y-120933244D01*
X66178571Y-120933244D01*
X66083333Y-120885625D01*
X66035714Y-120838006D01*
X65988095Y-120742768D01*
X65940476Y-120552292D01*
X65940476Y-120314197D01*
X65988095Y-120123721D01*
X66035714Y-120028483D01*
X66083333Y-119980864D01*
X66178571Y-119933244D01*
%TO.C,R2*%
X86083333Y-123933244D02*
X85750000Y-123457054D01*
X85511904Y-123933244D02*
X85511904Y-122933244D01*
X85892857Y-122933244D01*
X85988095Y-122980864D01*
X86035714Y-123028483D01*
X86083333Y-123123721D01*
X86083333Y-123266578D01*
X86035714Y-123361816D01*
X85988095Y-123409435D01*
X85892857Y-123457054D01*
X85511904Y-123457054D01*
X86464285Y-123028483D02*
X86511904Y-122980864D01*
X86607142Y-122933244D01*
X86845238Y-122933244D01*
X86940476Y-122980864D01*
X86988095Y-123028483D01*
X87035714Y-123123721D01*
X87035714Y-123218959D01*
X86988095Y-123361816D01*
X86416666Y-123933244D01*
X87035714Y-123933244D01*
%TO.C,R3*%
X112583333Y-120433244D02*
X112250000Y-119957054D01*
X112011904Y-120433244D02*
X112011904Y-119433244D01*
X112392857Y-119433244D01*
X112488095Y-119480864D01*
X112535714Y-119528483D01*
X112583333Y-119623721D01*
X112583333Y-119766578D01*
X112535714Y-119861816D01*
X112488095Y-119909435D01*
X112392857Y-119957054D01*
X112011904Y-119957054D01*
X112916666Y-119433244D02*
X113535714Y-119433244D01*
X113202380Y-119814197D01*
X113345238Y-119814197D01*
X113440476Y-119861816D01*
X113488095Y-119909435D01*
X113535714Y-120004673D01*
X113535714Y-120242768D01*
X113488095Y-120338006D01*
X113440476Y-120385625D01*
X113345238Y-120433244D01*
X113059523Y-120433244D01*
X112964285Y-120385625D01*
X112916666Y-120338006D01*
%TO.C,R22*%
X88702380Y-114123721D02*
X88226190Y-114457054D01*
X88702380Y-114695149D02*
X87702380Y-114695149D01*
X87702380Y-114314197D01*
X87750000Y-114218959D01*
X87797619Y-114171340D01*
X87892857Y-114123721D01*
X88035714Y-114123721D01*
X88130952Y-114171340D01*
X88178571Y-114218959D01*
X88226190Y-114314197D01*
X88226190Y-114695149D01*
X87797619Y-113742768D02*
X87750000Y-113695149D01*
X87702380Y-113599911D01*
X87702380Y-113361816D01*
X87750000Y-113266578D01*
X87797619Y-113218959D01*
X87892857Y-113171340D01*
X87988095Y-113171340D01*
X88130952Y-113218959D01*
X88702380Y-113790387D01*
X88702380Y-113171340D01*
X87797619Y-112790387D02*
X87750000Y-112742768D01*
X87702380Y-112647530D01*
X87702380Y-112409435D01*
X87750000Y-112314197D01*
X87797619Y-112266578D01*
X87892857Y-112218959D01*
X87988095Y-112218959D01*
X88130952Y-112266578D01*
X88702380Y-112838006D01*
X88702380Y-112218959D01*
%TO.C,J5*%
X115427380Y-110814197D02*
X116141666Y-110814197D01*
X116284523Y-110861816D01*
X116379761Y-110957054D01*
X116427380Y-111099911D01*
X116427380Y-111195149D01*
X115427380Y-109861816D02*
X115427380Y-110338006D01*
X115903571Y-110385625D01*
X115855952Y-110338006D01*
X115808333Y-110242768D01*
X115808333Y-110004673D01*
X115855952Y-109909435D01*
X115903571Y-109861816D01*
X115998809Y-109814197D01*
X116236904Y-109814197D01*
X116332142Y-109861816D01*
X116379761Y-109909435D01*
X116427380Y-110004673D01*
X116427380Y-110242768D01*
X116379761Y-110338006D01*
X116332142Y-110385625D01*
%TO.C,TP1*%
X77478095Y-126960380D02*
X78049523Y-126960380D01*
X77763809Y-127960380D02*
X77763809Y-126960380D01*
X78382857Y-127960380D02*
X78382857Y-126960380D01*
X78763809Y-126960380D01*
X78859047Y-127008000D01*
X78906666Y-127055619D01*
X78954285Y-127150857D01*
X78954285Y-127293714D01*
X78906666Y-127388952D01*
X78859047Y-127436571D01*
X78763809Y-127484190D01*
X78382857Y-127484190D01*
X79906666Y-127960380D02*
X79335238Y-127960380D01*
X79620952Y-127960380D02*
X79620952Y-126960380D01*
X79525714Y-127103238D01*
X79430476Y-127198476D01*
X79335238Y-127246095D01*
%TO.C,H4*%
X117988095Y-121233244D02*
X117988095Y-120233244D01*
X117988095Y-120709435D02*
X118559523Y-120709435D01*
X118559523Y-121233244D02*
X118559523Y-120233244D01*
X119464285Y-120566578D02*
X119464285Y-121233244D01*
X119226190Y-120185625D02*
X118988095Y-120899911D01*
X119607142Y-120899911D01*
%TO.C,R4*%
X88202380Y-126647530D02*
X87726190Y-126980864D01*
X88202380Y-127218959D02*
X87202380Y-127218959D01*
X87202380Y-126838006D01*
X87250000Y-126742768D01*
X87297619Y-126695149D01*
X87392857Y-126647530D01*
X87535714Y-126647530D01*
X87630952Y-126695149D01*
X87678571Y-126742768D01*
X87726190Y-126838006D01*
X87726190Y-127218959D01*
X87535714Y-125790387D02*
X88202380Y-125790387D01*
X87154761Y-126028483D02*
X87869047Y-126266578D01*
X87869047Y-125647530D01*
%TO.C,J8*%
X80438666Y-95972380D02*
X80438666Y-96686666D01*
X80391047Y-96829523D01*
X80295809Y-96924761D01*
X80152952Y-96972380D01*
X80057714Y-96972380D01*
X81057714Y-96400952D02*
X80962476Y-96353333D01*
X80914857Y-96305714D01*
X80867238Y-96210476D01*
X80867238Y-96162857D01*
X80914857Y-96067619D01*
X80962476Y-96020000D01*
X81057714Y-95972380D01*
X81248190Y-95972380D01*
X81343428Y-96020000D01*
X81391047Y-96067619D01*
X81438666Y-96162857D01*
X81438666Y-96210476D01*
X81391047Y-96305714D01*
X81343428Y-96353333D01*
X81248190Y-96400952D01*
X81057714Y-96400952D01*
X80962476Y-96448571D01*
X80914857Y-96496190D01*
X80867238Y-96591428D01*
X80867238Y-96781904D01*
X80914857Y-96877142D01*
X80962476Y-96924761D01*
X81057714Y-96972380D01*
X81248190Y-96972380D01*
X81343428Y-96924761D01*
X81391047Y-96877142D01*
X81438666Y-96781904D01*
X81438666Y-96591428D01*
X81391047Y-96496190D01*
X81343428Y-96448571D01*
X81248190Y-96400952D01*
%TO.C,R26*%
X75107142Y-108363244D02*
X74773809Y-107887054D01*
X74535714Y-108363244D02*
X74535714Y-107363244D01*
X74916666Y-107363244D01*
X75011904Y-107410864D01*
X75059523Y-107458483D01*
X75107142Y-107553721D01*
X75107142Y-107696578D01*
X75059523Y-107791816D01*
X75011904Y-107839435D01*
X74916666Y-107887054D01*
X74535714Y-107887054D01*
X75488095Y-107458483D02*
X75535714Y-107410864D01*
X75630952Y-107363244D01*
X75869047Y-107363244D01*
X75964285Y-107410864D01*
X76011904Y-107458483D01*
X76059523Y-107553721D01*
X76059523Y-107648959D01*
X76011904Y-107791816D01*
X75440476Y-108363244D01*
X76059523Y-108363244D01*
X76916666Y-107363244D02*
X76726190Y-107363244D01*
X76630952Y-107410864D01*
X76583333Y-107458483D01*
X76488095Y-107601340D01*
X76440476Y-107791816D01*
X76440476Y-108172768D01*
X76488095Y-108268006D01*
X76535714Y-108315625D01*
X76630952Y-108363244D01*
X76821428Y-108363244D01*
X76916666Y-108315625D01*
X76964285Y-108268006D01*
X77011904Y-108172768D01*
X77011904Y-107934673D01*
X76964285Y-107839435D01*
X76916666Y-107791816D01*
X76821428Y-107744197D01*
X76630952Y-107744197D01*
X76535714Y-107791816D01*
X76488095Y-107839435D01*
X76440476Y-107934673D01*
%TO.C,R25*%
X86537142Y-119933244D02*
X86203809Y-119457054D01*
X85965714Y-119933244D02*
X85965714Y-118933244D01*
X86346666Y-118933244D01*
X86441904Y-118980864D01*
X86489523Y-119028483D01*
X86537142Y-119123721D01*
X86537142Y-119266578D01*
X86489523Y-119361816D01*
X86441904Y-119409435D01*
X86346666Y-119457054D01*
X85965714Y-119457054D01*
X86918095Y-119028483D02*
X86965714Y-118980864D01*
X87060952Y-118933244D01*
X87299047Y-118933244D01*
X87394285Y-118980864D01*
X87441904Y-119028483D01*
X87489523Y-119123721D01*
X87489523Y-119218959D01*
X87441904Y-119361816D01*
X86870476Y-119933244D01*
X87489523Y-119933244D01*
X88394285Y-118933244D02*
X87918095Y-118933244D01*
X87870476Y-119409435D01*
X87918095Y-119361816D01*
X88013333Y-119314197D01*
X88251428Y-119314197D01*
X88346666Y-119361816D01*
X88394285Y-119409435D01*
X88441904Y-119504673D01*
X88441904Y-119742768D01*
X88394285Y-119838006D01*
X88346666Y-119885625D01*
X88251428Y-119933244D01*
X88013333Y-119933244D01*
X87918095Y-119885625D01*
X87870476Y-119838006D01*
%TO.C,R24*%
X75607142Y-114933244D02*
X75273809Y-114457054D01*
X75035714Y-114933244D02*
X75035714Y-113933244D01*
X75416666Y-113933244D01*
X75511904Y-113980864D01*
X75559523Y-114028483D01*
X75607142Y-114123721D01*
X75607142Y-114266578D01*
X75559523Y-114361816D01*
X75511904Y-114409435D01*
X75416666Y-114457054D01*
X75035714Y-114457054D01*
X75988095Y-114028483D02*
X76035714Y-113980864D01*
X76130952Y-113933244D01*
X76369047Y-113933244D01*
X76464285Y-113980864D01*
X76511904Y-114028483D01*
X76559523Y-114123721D01*
X76559523Y-114218959D01*
X76511904Y-114361816D01*
X75940476Y-114933244D01*
X76559523Y-114933244D01*
X77416666Y-114266578D02*
X77416666Y-114933244D01*
X77178571Y-113885625D02*
X76940476Y-114599911D01*
X77559523Y-114599911D01*
%TO.C,R10*%
X70962380Y-107123721D02*
X70486190Y-107457054D01*
X70962380Y-107695149D02*
X69962380Y-107695149D01*
X69962380Y-107314197D01*
X70010000Y-107218959D01*
X70057619Y-107171340D01*
X70152857Y-107123721D01*
X70295714Y-107123721D01*
X70390952Y-107171340D01*
X70438571Y-107218959D01*
X70486190Y-107314197D01*
X70486190Y-107695149D01*
X70962380Y-106171340D02*
X70962380Y-106742768D01*
X70962380Y-106457054D02*
X69962380Y-106457054D01*
X70105238Y-106552292D01*
X70200476Y-106647530D01*
X70248095Y-106742768D01*
X69962380Y-105552292D02*
X69962380Y-105457054D01*
X70010000Y-105361816D01*
X70057619Y-105314197D01*
X70152857Y-105266578D01*
X70343333Y-105218959D01*
X70581428Y-105218959D01*
X70771904Y-105266578D01*
X70867142Y-105314197D01*
X70914761Y-105361816D01*
X70962380Y-105457054D01*
X70962380Y-105552292D01*
X70914761Y-105647530D01*
X70867142Y-105695149D01*
X70771904Y-105742768D01*
X70581428Y-105790387D01*
X70343333Y-105790387D01*
X70152857Y-105742768D01*
X70057619Y-105695149D01*
X70010000Y-105647530D01*
X69962380Y-105552292D01*
%TO.C,R9*%
X80605333Y-94686380D02*
X80272000Y-94210190D01*
X80033904Y-94686380D02*
X80033904Y-93686380D01*
X80414857Y-93686380D01*
X80510095Y-93734000D01*
X80557714Y-93781619D01*
X80605333Y-93876857D01*
X80605333Y-94019714D01*
X80557714Y-94114952D01*
X80510095Y-94162571D01*
X80414857Y-94210190D01*
X80033904Y-94210190D01*
X81081523Y-94686380D02*
X81272000Y-94686380D01*
X81367238Y-94638761D01*
X81414857Y-94591142D01*
X81510095Y-94448285D01*
X81557714Y-94257809D01*
X81557714Y-93876857D01*
X81510095Y-93781619D01*
X81462476Y-93734000D01*
X81367238Y-93686380D01*
X81176761Y-93686380D01*
X81081523Y-93734000D01*
X81033904Y-93781619D01*
X80986285Y-93876857D01*
X80986285Y-94114952D01*
X81033904Y-94210190D01*
X81081523Y-94257809D01*
X81176761Y-94305428D01*
X81367238Y-94305428D01*
X81462476Y-94257809D01*
X81510095Y-94210190D01*
X81557714Y-94114952D01*
%TO.C,TP4*%
X74938095Y-122804380D02*
X75509523Y-122804380D01*
X75223809Y-123804380D02*
X75223809Y-122804380D01*
X75842857Y-123804380D02*
X75842857Y-122804380D01*
X76223809Y-122804380D01*
X76319047Y-122852000D01*
X76366666Y-122899619D01*
X76414285Y-122994857D01*
X76414285Y-123137714D01*
X76366666Y-123232952D01*
X76319047Y-123280571D01*
X76223809Y-123328190D01*
X75842857Y-123328190D01*
X77271428Y-123137714D02*
X77271428Y-123804380D01*
X77033333Y-122756761D02*
X76795238Y-123471047D01*
X77414285Y-123471047D01*
%TO.C,C21*%
X118728742Y-69578457D02*
X118776361Y-69626076D01*
X118823980Y-69768933D01*
X118823980Y-69864171D01*
X118776361Y-70007028D01*
X118681123Y-70102266D01*
X118585885Y-70149885D01*
X118395409Y-70197504D01*
X118252552Y-70197504D01*
X118062076Y-70149885D01*
X117966838Y-70102266D01*
X117871600Y-70007028D01*
X117823980Y-69864171D01*
X117823980Y-69768933D01*
X117871600Y-69626076D01*
X117919219Y-69578457D01*
X117919219Y-69197504D02*
X117871600Y-69149885D01*
X117823980Y-69054647D01*
X117823980Y-68816552D01*
X117871600Y-68721314D01*
X117919219Y-68673695D01*
X118014457Y-68626076D01*
X118109695Y-68626076D01*
X118252552Y-68673695D01*
X118823980Y-69245123D01*
X118823980Y-68626076D01*
X118823980Y-67673695D02*
X118823980Y-68245123D01*
X118823980Y-67959409D02*
X117823980Y-67959409D01*
X117966838Y-68054647D01*
X118062076Y-68149885D01*
X118109695Y-68245123D01*
%TO.C,C17*%
X64607142Y-109338006D02*
X64559523Y-109385625D01*
X64416666Y-109433244D01*
X64321428Y-109433244D01*
X64178571Y-109385625D01*
X64083333Y-109290387D01*
X64035714Y-109195149D01*
X63988095Y-109004673D01*
X63988095Y-108861816D01*
X64035714Y-108671340D01*
X64083333Y-108576102D01*
X64178571Y-108480864D01*
X64321428Y-108433244D01*
X64416666Y-108433244D01*
X64559523Y-108480864D01*
X64607142Y-108528483D01*
X65559523Y-109433244D02*
X64988095Y-109433244D01*
X65273809Y-109433244D02*
X65273809Y-108433244D01*
X65178571Y-108576102D01*
X65083333Y-108671340D01*
X64988095Y-108718959D01*
X65892857Y-108433244D02*
X66559523Y-108433244D01*
X66130952Y-109433244D01*
%TO.C,C12*%
X82607142Y-101123721D02*
X82654761Y-101171340D01*
X82702380Y-101314197D01*
X82702380Y-101409435D01*
X82654761Y-101552292D01*
X82559523Y-101647530D01*
X82464285Y-101695149D01*
X82273809Y-101742768D01*
X82130952Y-101742768D01*
X81940476Y-101695149D01*
X81845238Y-101647530D01*
X81750000Y-101552292D01*
X81702380Y-101409435D01*
X81702380Y-101314197D01*
X81750000Y-101171340D01*
X81797619Y-101123721D01*
X82702380Y-100171340D02*
X82702380Y-100742768D01*
X82702380Y-100457054D02*
X81702380Y-100457054D01*
X81845238Y-100552292D01*
X81940476Y-100647530D01*
X81988095Y-100742768D01*
X81797619Y-99790387D02*
X81750000Y-99742768D01*
X81702380Y-99647530D01*
X81702380Y-99409435D01*
X81750000Y-99314197D01*
X81797619Y-99266578D01*
X81892857Y-99218959D01*
X81988095Y-99218959D01*
X82130952Y-99266578D01*
X82702380Y-99838006D01*
X82702380Y-99218959D01*
%TO.C,C2*%
X102107142Y-127147530D02*
X102154761Y-127195149D01*
X102202380Y-127338006D01*
X102202380Y-127433244D01*
X102154761Y-127576102D01*
X102059523Y-127671340D01*
X101964285Y-127718959D01*
X101773809Y-127766578D01*
X101630952Y-127766578D01*
X101440476Y-127718959D01*
X101345238Y-127671340D01*
X101250000Y-127576102D01*
X101202380Y-127433244D01*
X101202380Y-127338006D01*
X101250000Y-127195149D01*
X101297619Y-127147530D01*
X101297619Y-126766578D02*
X101250000Y-126718959D01*
X101202380Y-126623721D01*
X101202380Y-126385625D01*
X101250000Y-126290387D01*
X101297619Y-126242768D01*
X101392857Y-126195149D01*
X101488095Y-126195149D01*
X101630952Y-126242768D01*
X102202380Y-126814197D01*
X102202380Y-126195149D01*
%TO.C,FID2*%
X119678571Y-112909435D02*
X119345238Y-112909435D01*
X119345238Y-113433244D02*
X119345238Y-112433244D01*
X119821428Y-112433244D01*
X120202380Y-113433244D02*
X120202380Y-112433244D01*
X120678571Y-113433244D02*
X120678571Y-112433244D01*
X120916666Y-112433244D01*
X121059523Y-112480864D01*
X121154761Y-112576102D01*
X121202380Y-112671340D01*
X121250000Y-112861816D01*
X121250000Y-113004673D01*
X121202380Y-113195149D01*
X121154761Y-113290387D01*
X121059523Y-113385625D01*
X120916666Y-113433244D01*
X120678571Y-113433244D01*
X121630952Y-112528483D02*
X121678571Y-112480864D01*
X121773809Y-112433244D01*
X122011904Y-112433244D01*
X122107142Y-112480864D01*
X122154761Y-112528483D01*
X122202380Y-112623721D01*
X122202380Y-112718959D01*
X122154761Y-112861816D01*
X121583333Y-113433244D01*
X122202380Y-113433244D01*
%TO.C,R18*%
X85447142Y-64003244D02*
X85113809Y-63527054D01*
X84875714Y-64003244D02*
X84875714Y-63003244D01*
X85256666Y-63003244D01*
X85351904Y-63050864D01*
X85399523Y-63098483D01*
X85447142Y-63193721D01*
X85447142Y-63336578D01*
X85399523Y-63431816D01*
X85351904Y-63479435D01*
X85256666Y-63527054D01*
X84875714Y-63527054D01*
X86399523Y-64003244D02*
X85828095Y-64003244D01*
X86113809Y-64003244D02*
X86113809Y-63003244D01*
X86018571Y-63146102D01*
X85923333Y-63241340D01*
X85828095Y-63288959D01*
X86970952Y-63431816D02*
X86875714Y-63384197D01*
X86828095Y-63336578D01*
X86780476Y-63241340D01*
X86780476Y-63193721D01*
X86828095Y-63098483D01*
X86875714Y-63050864D01*
X86970952Y-63003244D01*
X87161428Y-63003244D01*
X87256666Y-63050864D01*
X87304285Y-63098483D01*
X87351904Y-63193721D01*
X87351904Y-63241340D01*
X87304285Y-63336578D01*
X87256666Y-63384197D01*
X87161428Y-63431816D01*
X86970952Y-63431816D01*
X86875714Y-63479435D01*
X86828095Y-63527054D01*
X86780476Y-63622292D01*
X86780476Y-63812768D01*
X86828095Y-63908006D01*
X86875714Y-63955625D01*
X86970952Y-64003244D01*
X87161428Y-64003244D01*
X87256666Y-63955625D01*
X87304285Y-63908006D01*
X87351904Y-63812768D01*
X87351904Y-63622292D01*
X87304285Y-63527054D01*
X87256666Y-63479435D01*
X87161428Y-63431816D01*
%TO.C,U4*%
X81280095Y-121626380D02*
X81280095Y-122435904D01*
X81327714Y-122531142D01*
X81375333Y-122578761D01*
X81470571Y-122626380D01*
X81661047Y-122626380D01*
X81756285Y-122578761D01*
X81803904Y-122531142D01*
X81851523Y-122435904D01*
X81851523Y-121626380D01*
X82756285Y-121959714D02*
X82756285Y-122626380D01*
X82518190Y-121578761D02*
X82280095Y-122293047D01*
X82899142Y-122293047D01*
%TO.C,R6*%
X75128333Y-73863244D02*
X74795000Y-73387054D01*
X74556904Y-73863244D02*
X74556904Y-72863244D01*
X74937857Y-72863244D01*
X75033095Y-72910864D01*
X75080714Y-72958483D01*
X75128333Y-73053721D01*
X75128333Y-73196578D01*
X75080714Y-73291816D01*
X75033095Y-73339435D01*
X74937857Y-73387054D01*
X74556904Y-73387054D01*
X75985476Y-72863244D02*
X75795000Y-72863244D01*
X75699761Y-72910864D01*
X75652142Y-72958483D01*
X75556904Y-73101340D01*
X75509285Y-73291816D01*
X75509285Y-73672768D01*
X75556904Y-73768006D01*
X75604523Y-73815625D01*
X75699761Y-73863244D01*
X75890238Y-73863244D01*
X75985476Y-73815625D01*
X76033095Y-73768006D01*
X76080714Y-73672768D01*
X76080714Y-73434673D01*
X76033095Y-73339435D01*
X75985476Y-73291816D01*
X75890238Y-73244197D01*
X75699761Y-73244197D01*
X75604523Y-73291816D01*
X75556904Y-73339435D01*
X75509285Y-73434673D01*
%TO.C,C16*%
X77107142Y-76538006D02*
X77059523Y-76585625D01*
X76916666Y-76633244D01*
X76821428Y-76633244D01*
X76678571Y-76585625D01*
X76583333Y-76490387D01*
X76535714Y-76395149D01*
X76488095Y-76204673D01*
X76488095Y-76061816D01*
X76535714Y-75871340D01*
X76583333Y-75776102D01*
X76678571Y-75680864D01*
X76821428Y-75633244D01*
X76916666Y-75633244D01*
X77059523Y-75680864D01*
X77107142Y-75728483D01*
X78059523Y-76633244D02*
X77488095Y-76633244D01*
X77773809Y-76633244D02*
X77773809Y-75633244D01*
X77678571Y-75776102D01*
X77583333Y-75871340D01*
X77488095Y-75918959D01*
X78916666Y-75633244D02*
X78726190Y-75633244D01*
X78630952Y-75680864D01*
X78583333Y-75728483D01*
X78488095Y-75871340D01*
X78440476Y-76061816D01*
X78440476Y-76442768D01*
X78488095Y-76538006D01*
X78535714Y-76585625D01*
X78630952Y-76633244D01*
X78821428Y-76633244D01*
X78916666Y-76585625D01*
X78964285Y-76538006D01*
X79011904Y-76442768D01*
X79011904Y-76204673D01*
X78964285Y-76109435D01*
X78916666Y-76061816D01*
X78821428Y-76014197D01*
X78630952Y-76014197D01*
X78535714Y-76061816D01*
X78488095Y-76109435D01*
X78440476Y-76204673D01*
%TO.C,R20*%
X85447142Y-80503244D02*
X85113809Y-80027054D01*
X84875714Y-80503244D02*
X84875714Y-79503244D01*
X85256666Y-79503244D01*
X85351904Y-79550864D01*
X85399523Y-79598483D01*
X85447142Y-79693721D01*
X85447142Y-79836578D01*
X85399523Y-79931816D01*
X85351904Y-79979435D01*
X85256666Y-80027054D01*
X84875714Y-80027054D01*
X85828095Y-79598483D02*
X85875714Y-79550864D01*
X85970952Y-79503244D01*
X86209047Y-79503244D01*
X86304285Y-79550864D01*
X86351904Y-79598483D01*
X86399523Y-79693721D01*
X86399523Y-79788959D01*
X86351904Y-79931816D01*
X85780476Y-80503244D01*
X86399523Y-80503244D01*
X87018571Y-79503244D02*
X87113809Y-79503244D01*
X87209047Y-79550864D01*
X87256666Y-79598483D01*
X87304285Y-79693721D01*
X87351904Y-79884197D01*
X87351904Y-80122292D01*
X87304285Y-80312768D01*
X87256666Y-80408006D01*
X87209047Y-80455625D01*
X87113809Y-80503244D01*
X87018571Y-80503244D01*
X86923333Y-80455625D01*
X86875714Y-80408006D01*
X86828095Y-80312768D01*
X86780476Y-80122292D01*
X86780476Y-79884197D01*
X86828095Y-79693721D01*
X86875714Y-79598483D01*
X86923333Y-79550864D01*
X87018571Y-79503244D01*
%TO.C,TP3*%
X80018095Y-122804380D02*
X80589523Y-122804380D01*
X80303809Y-123804380D02*
X80303809Y-122804380D01*
X80922857Y-123804380D02*
X80922857Y-122804380D01*
X81303809Y-122804380D01*
X81399047Y-122852000D01*
X81446666Y-122899619D01*
X81494285Y-122994857D01*
X81494285Y-123137714D01*
X81446666Y-123232952D01*
X81399047Y-123280571D01*
X81303809Y-123328190D01*
X80922857Y-123328190D01*
X81827619Y-122804380D02*
X82446666Y-122804380D01*
X82113333Y-123185333D01*
X82256190Y-123185333D01*
X82351428Y-123232952D01*
X82399047Y-123280571D01*
X82446666Y-123375809D01*
X82446666Y-123613904D01*
X82399047Y-123709142D01*
X82351428Y-123756761D01*
X82256190Y-123804380D01*
X81970476Y-123804380D01*
X81875238Y-123756761D01*
X81827619Y-123709142D01*
%TO.C,R15*%
X85607142Y-68503244D02*
X85273809Y-68027054D01*
X85035714Y-68503244D02*
X85035714Y-67503244D01*
X85416666Y-67503244D01*
X85511904Y-67550864D01*
X85559523Y-67598483D01*
X85607142Y-67693721D01*
X85607142Y-67836578D01*
X85559523Y-67931816D01*
X85511904Y-67979435D01*
X85416666Y-68027054D01*
X85035714Y-68027054D01*
X86559523Y-68503244D02*
X85988095Y-68503244D01*
X86273809Y-68503244D02*
X86273809Y-67503244D01*
X86178571Y-67646102D01*
X86083333Y-67741340D01*
X85988095Y-67788959D01*
X87464285Y-67503244D02*
X86988095Y-67503244D01*
X86940476Y-67979435D01*
X86988095Y-67931816D01*
X87083333Y-67884197D01*
X87321428Y-67884197D01*
X87416666Y-67931816D01*
X87464285Y-67979435D01*
X87511904Y-68074673D01*
X87511904Y-68312768D01*
X87464285Y-68408006D01*
X87416666Y-68455625D01*
X87321428Y-68503244D01*
X87083333Y-68503244D01*
X86988095Y-68455625D01*
X86940476Y-68408006D01*
%TO.C,H1*%
X69988095Y-56433244D02*
X69988095Y-55433244D01*
X69988095Y-55909435D02*
X70559523Y-55909435D01*
X70559523Y-56433244D02*
X70559523Y-55433244D01*
X71559523Y-56433244D02*
X70988095Y-56433244D01*
X71273809Y-56433244D02*
X71273809Y-55433244D01*
X71178571Y-55576102D01*
X71083333Y-55671340D01*
X70988095Y-55718959D01*
%TO.C,C19*%
X64607142Y-113338006D02*
X64559523Y-113385625D01*
X64416666Y-113433244D01*
X64321428Y-113433244D01*
X64178571Y-113385625D01*
X64083333Y-113290387D01*
X64035714Y-113195149D01*
X63988095Y-113004673D01*
X63988095Y-112861816D01*
X64035714Y-112671340D01*
X64083333Y-112576102D01*
X64178571Y-112480864D01*
X64321428Y-112433244D01*
X64416666Y-112433244D01*
X64559523Y-112480864D01*
X64607142Y-112528483D01*
X65559523Y-113433244D02*
X64988095Y-113433244D01*
X65273809Y-113433244D02*
X65273809Y-112433244D01*
X65178571Y-112576102D01*
X65083333Y-112671340D01*
X64988095Y-112718959D01*
X66035714Y-113433244D02*
X66226190Y-113433244D01*
X66321428Y-113385625D01*
X66369047Y-113338006D01*
X66464285Y-113195149D01*
X66511904Y-113004673D01*
X66511904Y-112623721D01*
X66464285Y-112528483D01*
X66416666Y-112480864D01*
X66321428Y-112433244D01*
X66130952Y-112433244D01*
X66035714Y-112480864D01*
X65988095Y-112528483D01*
X65940476Y-112623721D01*
X65940476Y-112861816D01*
X65988095Y-112957054D01*
X66035714Y-113004673D01*
X66130952Y-113052292D01*
X66321428Y-113052292D01*
X66416666Y-113004673D01*
X66464285Y-112957054D01*
X66511904Y-112861816D01*
%TO.C,R8*%
X86083333Y-87433244D02*
X85750000Y-86957054D01*
X85511904Y-87433244D02*
X85511904Y-86433244D01*
X85892857Y-86433244D01*
X85988095Y-86480864D01*
X86035714Y-86528483D01*
X86083333Y-86623721D01*
X86083333Y-86766578D01*
X86035714Y-86861816D01*
X85988095Y-86909435D01*
X85892857Y-86957054D01*
X85511904Y-86957054D01*
X86654761Y-86861816D02*
X86559523Y-86814197D01*
X86511904Y-86766578D01*
X86464285Y-86671340D01*
X86464285Y-86623721D01*
X86511904Y-86528483D01*
X86559523Y-86480864D01*
X86654761Y-86433244D01*
X86845238Y-86433244D01*
X86940476Y-86480864D01*
X86988095Y-86528483D01*
X87035714Y-86623721D01*
X87035714Y-86671340D01*
X86988095Y-86766578D01*
X86940476Y-86814197D01*
X86845238Y-86861816D01*
X86654761Y-86861816D01*
X86559523Y-86909435D01*
X86511904Y-86957054D01*
X86464285Y-87052292D01*
X86464285Y-87242768D01*
X86511904Y-87338006D01*
X86559523Y-87385625D01*
X86654761Y-87433244D01*
X86845238Y-87433244D01*
X86940476Y-87385625D01*
X86988095Y-87338006D01*
X87035714Y-87242768D01*
X87035714Y-87052292D01*
X86988095Y-86957054D01*
X86940476Y-86909435D01*
X86845238Y-86861816D01*
%TO.C,TP2*%
X82812095Y-126706380D02*
X83383523Y-126706380D01*
X83097809Y-127706380D02*
X83097809Y-126706380D01*
X83716857Y-127706380D02*
X83716857Y-126706380D01*
X84097809Y-126706380D01*
X84193047Y-126754000D01*
X84240666Y-126801619D01*
X84288285Y-126896857D01*
X84288285Y-127039714D01*
X84240666Y-127134952D01*
X84193047Y-127182571D01*
X84097809Y-127230190D01*
X83716857Y-127230190D01*
X84669238Y-126801619D02*
X84716857Y-126754000D01*
X84812095Y-126706380D01*
X85050190Y-126706380D01*
X85145428Y-126754000D01*
X85193047Y-126801619D01*
X85240666Y-126896857D01*
X85240666Y-126992095D01*
X85193047Y-127134952D01*
X84621619Y-127706380D01*
X85240666Y-127706380D01*
%TO.C,R5*%
X75128333Y-69363244D02*
X74795000Y-68887054D01*
X74556904Y-69363244D02*
X74556904Y-68363244D01*
X74937857Y-68363244D01*
X75033095Y-68410864D01*
X75080714Y-68458483D01*
X75128333Y-68553721D01*
X75128333Y-68696578D01*
X75080714Y-68791816D01*
X75033095Y-68839435D01*
X74937857Y-68887054D01*
X74556904Y-68887054D01*
X76033095Y-68363244D02*
X75556904Y-68363244D01*
X75509285Y-68839435D01*
X75556904Y-68791816D01*
X75652142Y-68744197D01*
X75890238Y-68744197D01*
X75985476Y-68791816D01*
X76033095Y-68839435D01*
X76080714Y-68934673D01*
X76080714Y-69172768D01*
X76033095Y-69268006D01*
X75985476Y-69315625D01*
X75890238Y-69363244D01*
X75652142Y-69363244D01*
X75556904Y-69315625D01*
X75509285Y-69268006D01*
%TO.C,H3*%
X70488095Y-128433244D02*
X70488095Y-127433244D01*
X70488095Y-127909435D02*
X71059523Y-127909435D01*
X71059523Y-128433244D02*
X71059523Y-127433244D01*
X71440476Y-127433244D02*
X72059523Y-127433244D01*
X71726190Y-127814197D01*
X71869047Y-127814197D01*
X71964285Y-127861816D01*
X72011904Y-127909435D01*
X72059523Y-128004673D01*
X72059523Y-128242768D01*
X72011904Y-128338006D01*
X71964285Y-128385625D01*
X71869047Y-128433244D01*
X71583333Y-128433244D01*
X71488095Y-128385625D01*
X71440476Y-128338006D01*
%TO.C,U6*%
X100888095Y-79433244D02*
X100888095Y-80242768D01*
X100935714Y-80338006D01*
X100983333Y-80385625D01*
X101078571Y-80433244D01*
X101269047Y-80433244D01*
X101364285Y-80385625D01*
X101411904Y-80338006D01*
X101459523Y-80242768D01*
X101459523Y-79433244D01*
X102364285Y-79433244D02*
X102173809Y-79433244D01*
X102078571Y-79480864D01*
X102030952Y-79528483D01*
X101935714Y-79671340D01*
X101888095Y-79861816D01*
X101888095Y-80242768D01*
X101935714Y-80338006D01*
X101983333Y-80385625D01*
X102078571Y-80433244D01*
X102269047Y-80433244D01*
X102364285Y-80385625D01*
X102411904Y-80338006D01*
X102459523Y-80242768D01*
X102459523Y-80004673D01*
X102411904Y-79909435D01*
X102364285Y-79861816D01*
X102269047Y-79814197D01*
X102078571Y-79814197D01*
X101983333Y-79861816D01*
X101935714Y-79909435D01*
X101888095Y-80004673D01*
X87639722Y-89261456D02*
X87558910Y-89288393D01*
X87478097Y-89369205D01*
X87424223Y-89476955D01*
X87424223Y-89584705D01*
X87451160Y-89665517D01*
X87531972Y-89800204D01*
X87612784Y-89881016D01*
X87747471Y-89961828D01*
X87828284Y-89988766D01*
X87936033Y-89988766D01*
X88043783Y-89934891D01*
X88097658Y-89881016D01*
X88151532Y-89773266D01*
X88151532Y-89719392D01*
X87962971Y-89530830D01*
X87855221Y-89638579D01*
X88447844Y-89530830D02*
X87882158Y-88965144D01*
X88097658Y-88749645D01*
X88178470Y-88722708D01*
X88232345Y-88722708D01*
X88313157Y-88749645D01*
X88393969Y-88830457D01*
X88420906Y-88911270D01*
X88420906Y-88965144D01*
X88393969Y-89045957D01*
X88178470Y-89261456D01*
X89309841Y-88668833D02*
X88986592Y-88992082D01*
X89148216Y-88830457D02*
X88582531Y-88264772D01*
X88609468Y-88399459D01*
X88609468Y-88507209D01*
X88582531Y-88588021D01*
X89094341Y-87752961D02*
X89148216Y-87699087D01*
X89229028Y-87672149D01*
X89282903Y-87672149D01*
X89363715Y-87699087D01*
X89498402Y-87779899D01*
X89633089Y-87914586D01*
X89713902Y-88049273D01*
X89740839Y-88130085D01*
X89740839Y-88183960D01*
X89713902Y-88264772D01*
X89660027Y-88318647D01*
X89579215Y-88345584D01*
X89525340Y-88345584D01*
X89444528Y-88318647D01*
X89309841Y-88237835D01*
X89175154Y-88103148D01*
X89094341Y-87968461D01*
X89067404Y-87887648D01*
X89067404Y-87833774D01*
X89094341Y-87752961D01*
X113403129Y-56808173D02*
X114157377Y-57185297D01*
X113780253Y-56431050D01*
X114426751Y-56323300D02*
X114534500Y-56269425D01*
X114588375Y-56269425D01*
X114669187Y-56296363D01*
X114749999Y-56377175D01*
X114776937Y-56457987D01*
X114776937Y-56511862D01*
X114750000Y-56592674D01*
X114534500Y-56808173D01*
X113968815Y-56242488D01*
X114157377Y-56053926D01*
X114238189Y-56026989D01*
X114292064Y-56026989D01*
X114372876Y-56053926D01*
X114426751Y-56107801D01*
X114453688Y-56188613D01*
X114453688Y-56242488D01*
X114426751Y-56323300D01*
X114238189Y-56511862D01*
X114534500Y-55676802D02*
X114992436Y-56134738D01*
X115073248Y-56161676D01*
X115127123Y-56161676D01*
X115207935Y-56134738D01*
X115315685Y-56026989D01*
X115342622Y-55946176D01*
X115342622Y-55892302D01*
X115315685Y-55811489D01*
X114857749Y-55353554D01*
X115638934Y-55649865D02*
X115746683Y-55595990D01*
X115881370Y-55461303D01*
X115908308Y-55380491D01*
X115908308Y-55326616D01*
X115881370Y-55245804D01*
X115827496Y-55191929D01*
X115746683Y-55164992D01*
X115692809Y-55164992D01*
X115611996Y-55191929D01*
X115477309Y-55272741D01*
X115396497Y-55299679D01*
X115342622Y-55299679D01*
X115261810Y-55272741D01*
X115207935Y-55218867D01*
X115180998Y-55138054D01*
X115180998Y-55084180D01*
X115207935Y-55003367D01*
X115342622Y-54868680D01*
X115450372Y-54814806D01*
X113736158Y-86479019D02*
X113655346Y-86505957D01*
X113574534Y-86586769D01*
X113520659Y-86694518D01*
X113520659Y-86802268D01*
X113547597Y-86883080D01*
X113628409Y-87017767D01*
X113709221Y-87098579D01*
X113843908Y-87179392D01*
X113924720Y-87206329D01*
X114032470Y-87206329D01*
X114140219Y-87152454D01*
X114194094Y-87098579D01*
X114247969Y-86990830D01*
X114247969Y-86936955D01*
X114059407Y-86748393D01*
X113951658Y-86856143D01*
X114544280Y-86748393D02*
X113978595Y-86182708D01*
X114867529Y-86425144D01*
X114301844Y-85859459D01*
X115136903Y-86155770D02*
X114571218Y-85590085D01*
X114705905Y-85455398D01*
X114813654Y-85401523D01*
X114921404Y-85401523D01*
X115002216Y-85428461D01*
X115136903Y-85509273D01*
X115217715Y-85590085D01*
X115298528Y-85724772D01*
X115325465Y-85805584D01*
X115325465Y-85913334D01*
X115271590Y-86021083D01*
X115136903Y-86155770D01*
X88163096Y-71212082D02*
X88082284Y-71239019D01*
X88001471Y-71319831D01*
X87947597Y-71427581D01*
X87947597Y-71535331D01*
X87974534Y-71616143D01*
X88055346Y-71750830D01*
X88136158Y-71831642D01*
X88270845Y-71912454D01*
X88351658Y-71939392D01*
X88459407Y-71939392D01*
X88567157Y-71885517D01*
X88621032Y-71831642D01*
X88674906Y-71723892D01*
X88674906Y-71670018D01*
X88486345Y-71481456D01*
X88378595Y-71589205D01*
X88971218Y-71481456D02*
X88405532Y-70915770D01*
X88621032Y-70700271D01*
X88701844Y-70673334D01*
X88755719Y-70673334D01*
X88836531Y-70700271D01*
X88917343Y-70781083D01*
X88944280Y-70861896D01*
X88944280Y-70915770D01*
X88917343Y-70996583D01*
X88701844Y-71212082D01*
X89240592Y-70080711D02*
X88971218Y-70350085D01*
X89213654Y-70646396D01*
X89213654Y-70592522D01*
X89240592Y-70511709D01*
X89375279Y-70377022D01*
X89456091Y-70350085D01*
X89509966Y-70350085D01*
X89590778Y-70377022D01*
X89725465Y-70511709D01*
X89752402Y-70592522D01*
X89752402Y-70646396D01*
X89725465Y-70727209D01*
X89590778Y-70861896D01*
X89509966Y-70888833D01*
X89456091Y-70888833D01*
X113747722Y-84181456D02*
X113666910Y-84208393D01*
X113586097Y-84289205D01*
X113532223Y-84396955D01*
X113532223Y-84504705D01*
X113559160Y-84585517D01*
X113639972Y-84720204D01*
X113720784Y-84801016D01*
X113855471Y-84881828D01*
X113936284Y-84908766D01*
X114044033Y-84908766D01*
X114151783Y-84854891D01*
X114205658Y-84801016D01*
X114259532Y-84693266D01*
X114259532Y-84639392D01*
X114070971Y-84450830D01*
X113963221Y-84558579D01*
X114555844Y-84450830D02*
X113990158Y-83885144D01*
X114205658Y-83669645D01*
X114286470Y-83642708D01*
X114340345Y-83642708D01*
X114421157Y-83669645D01*
X114501969Y-83750457D01*
X114528906Y-83831270D01*
X114528906Y-83885144D01*
X114501969Y-83965957D01*
X114286470Y-84181456D01*
X114582781Y-83400271D02*
X114582781Y-83346396D01*
X114609719Y-83265584D01*
X114744406Y-83130897D01*
X114825218Y-83103960D01*
X114879093Y-83103960D01*
X114959905Y-83130897D01*
X115013780Y-83184772D01*
X115067654Y-83292522D01*
X115067654Y-83939019D01*
X115417841Y-83588833D01*
X115121529Y-82861523D02*
X115121529Y-82807648D01*
X115148467Y-82726836D01*
X115283154Y-82592149D01*
X115363966Y-82565212D01*
X115417841Y-82565212D01*
X115498653Y-82592149D01*
X115552528Y-82646024D01*
X115606402Y-82753774D01*
X115606402Y-83400271D01*
X115956589Y-83050085D01*
X113804788Y-69514637D02*
X114074162Y-69245263D01*
X113912537Y-69730136D02*
X113535414Y-68975889D01*
X114289661Y-69353013D01*
X114478223Y-69164451D02*
X113912537Y-68598766D01*
X114047224Y-68464079D01*
X114154974Y-68410204D01*
X114262723Y-68410204D01*
X114343536Y-68437141D01*
X114478223Y-68517953D01*
X114559035Y-68598766D01*
X114639847Y-68733453D01*
X114666784Y-68814265D01*
X114666784Y-68922014D01*
X114612910Y-69029764D01*
X114478223Y-69164451D01*
X115313282Y-68221642D02*
X115313282Y-68275517D01*
X115259407Y-68383266D01*
X115205532Y-68437141D01*
X115097783Y-68491016D01*
X114990033Y-68491016D01*
X114909221Y-68464079D01*
X114774534Y-68383266D01*
X114693722Y-68302454D01*
X114612910Y-68167767D01*
X114585972Y-68086955D01*
X114585972Y-67979205D01*
X114639847Y-67871456D01*
X114693722Y-67817581D01*
X114801471Y-67763706D01*
X114855346Y-67763706D01*
X115528781Y-68221642D02*
X115959780Y-67790644D01*
X115394094Y-67117209D02*
X116148341Y-67494332D01*
X115771218Y-66740085D01*
X116848714Y-66793960D02*
X116390778Y-66713148D01*
X116525465Y-67117209D02*
X115959780Y-66551523D01*
X116175279Y-66336024D01*
X116256091Y-66309087D01*
X116309966Y-66309087D01*
X116390778Y-66336024D01*
X116471590Y-66416836D01*
X116498528Y-66497648D01*
X116498528Y-66551523D01*
X116471590Y-66632335D01*
X116256091Y-66847835D01*
X116794839Y-66255212D02*
X116983401Y-66066650D01*
X117360524Y-66282149D02*
X117091150Y-66551523D01*
X116525465Y-65985838D01*
X116794839Y-65716464D01*
X117495211Y-65554839D02*
X117306650Y-65743401D01*
X117602961Y-66039713D02*
X117037276Y-65474027D01*
X117306650Y-65204653D01*
X88063096Y-63592082D02*
X87982284Y-63619019D01*
X87901471Y-63699831D01*
X87847597Y-63807581D01*
X87847597Y-63915331D01*
X87874534Y-63996143D01*
X87955346Y-64130830D01*
X88036158Y-64211642D01*
X88170845Y-64292454D01*
X88251658Y-64319392D01*
X88359407Y-64319392D01*
X88467157Y-64265517D01*
X88521032Y-64211642D01*
X88574906Y-64103892D01*
X88574906Y-64050018D01*
X88386345Y-63861456D01*
X88278595Y-63969205D01*
X88871218Y-63861456D02*
X88305532Y-63295770D01*
X88521032Y-63080271D01*
X88601844Y-63053334D01*
X88655719Y-63053334D01*
X88736531Y-63080271D01*
X88817343Y-63161083D01*
X88844280Y-63241896D01*
X88844280Y-63295770D01*
X88817343Y-63376583D01*
X88601844Y-63592082D01*
X88898155Y-62810897D02*
X88898155Y-62757022D01*
X88925093Y-62676210D01*
X89059780Y-62541523D01*
X89140592Y-62514586D01*
X89194467Y-62514586D01*
X89275279Y-62541523D01*
X89329154Y-62595398D01*
X89383028Y-62703148D01*
X89383028Y-63349645D01*
X89733215Y-62999459D01*
X88163096Y-68672082D02*
X88082284Y-68699019D01*
X88001471Y-68779831D01*
X87947597Y-68887581D01*
X87947597Y-68995331D01*
X87974534Y-69076143D01*
X88055346Y-69210830D01*
X88136158Y-69291642D01*
X88270845Y-69372454D01*
X88351658Y-69399392D01*
X88459407Y-69399392D01*
X88567157Y-69345517D01*
X88621032Y-69291642D01*
X88674906Y-69183892D01*
X88674906Y-69130018D01*
X88486345Y-68941456D01*
X88378595Y-69049205D01*
X88971218Y-68941456D02*
X88405532Y-68375770D01*
X88621032Y-68160271D01*
X88701844Y-68133334D01*
X88755719Y-68133334D01*
X88836531Y-68160271D01*
X88917343Y-68241083D01*
X88944280Y-68321896D01*
X88944280Y-68375770D01*
X88917343Y-68456583D01*
X88701844Y-68672082D01*
X89402216Y-67756210D02*
X89779340Y-68133334D01*
X89052030Y-67675398D02*
X89321404Y-68214146D01*
X89671590Y-67863960D01*
X88163096Y-83912082D02*
X88082284Y-83939019D01*
X88001471Y-84019831D01*
X87947597Y-84127581D01*
X87947597Y-84235331D01*
X87974534Y-84316143D01*
X88055346Y-84450830D01*
X88136158Y-84531642D01*
X88270845Y-84612454D01*
X88351658Y-84639392D01*
X88459407Y-84639392D01*
X88567157Y-84585517D01*
X88621032Y-84531642D01*
X88674906Y-84423892D01*
X88674906Y-84370018D01*
X88486345Y-84181456D01*
X88378595Y-84289205D01*
X88971218Y-84181456D02*
X88405532Y-83615770D01*
X88621032Y-83400271D01*
X88701844Y-83373334D01*
X88755719Y-83373334D01*
X88836531Y-83400271D01*
X88917343Y-83481083D01*
X88944280Y-83561896D01*
X88944280Y-83615770D01*
X88917343Y-83696583D01*
X88701844Y-83912082D01*
X89563841Y-83588833D02*
X89671590Y-83481083D01*
X89698528Y-83400271D01*
X89698528Y-83346396D01*
X89671590Y-83211709D01*
X89590778Y-83077022D01*
X89375279Y-82861523D01*
X89294467Y-82834586D01*
X89240592Y-82834586D01*
X89159780Y-82861523D01*
X89052030Y-82969273D01*
X89025093Y-83050085D01*
X89025093Y-83103960D01*
X89052030Y-83184772D01*
X89186717Y-83319459D01*
X89267529Y-83346396D01*
X89321404Y-83346396D01*
X89402216Y-83319459D01*
X89509966Y-83211709D01*
X89536903Y-83130897D01*
X89536903Y-83077022D01*
X89509966Y-82996210D01*
X113747722Y-91801456D02*
X113666910Y-91828393D01*
X113586097Y-91909205D01*
X113532223Y-92016955D01*
X113532223Y-92124705D01*
X113559160Y-92205517D01*
X113639972Y-92340204D01*
X113720784Y-92421016D01*
X113855471Y-92501828D01*
X113936284Y-92528766D01*
X114044033Y-92528766D01*
X114151783Y-92474891D01*
X114205658Y-92421016D01*
X114259532Y-92313266D01*
X114259532Y-92259392D01*
X114070971Y-92070830D01*
X113963221Y-92178579D01*
X114555844Y-92070830D02*
X113990158Y-91505144D01*
X114205658Y-91289645D01*
X114286470Y-91262708D01*
X114340345Y-91262708D01*
X114421157Y-91289645D01*
X114501969Y-91370457D01*
X114528906Y-91451270D01*
X114528906Y-91505144D01*
X114501969Y-91585957D01*
X114286470Y-91801456D01*
X114582781Y-91020271D02*
X114582781Y-90966396D01*
X114609719Y-90885584D01*
X114744406Y-90750897D01*
X114825218Y-90723960D01*
X114879093Y-90723960D01*
X114959905Y-90750897D01*
X115013780Y-90804772D01*
X115067654Y-90912522D01*
X115067654Y-91559019D01*
X115417841Y-91208833D01*
X115202341Y-90292961D02*
X115256216Y-90239087D01*
X115337028Y-90212149D01*
X115390903Y-90212149D01*
X115471715Y-90239087D01*
X115606402Y-90319899D01*
X115741089Y-90454586D01*
X115821902Y-90589273D01*
X115848839Y-90670085D01*
X115848839Y-90723960D01*
X115821902Y-90804772D01*
X115768027Y-90858647D01*
X115687215Y-90885584D01*
X115633340Y-90885584D01*
X115552528Y-90858647D01*
X115417841Y-90777835D01*
X115283154Y-90643148D01*
X115202341Y-90508461D01*
X115175404Y-90427648D01*
X115175404Y-90373774D01*
X115202341Y-90292961D01*
X113572131Y-63939172D02*
X113922317Y-63588986D01*
X113949255Y-63993047D01*
X114030067Y-63912234D01*
X114110879Y-63885297D01*
X114164754Y-63885297D01*
X114245566Y-63912234D01*
X114380253Y-64046921D01*
X114407190Y-64127734D01*
X114407190Y-64181608D01*
X114380253Y-64262421D01*
X114218629Y-64424045D01*
X114137816Y-64450982D01*
X114083942Y-64450982D01*
X114083942Y-63427361D02*
X114838189Y-63804485D01*
X114461065Y-63050238D01*
X114595752Y-62915551D02*
X114945938Y-62565364D01*
X114972876Y-62969425D01*
X115053688Y-62888613D01*
X115134500Y-62861676D01*
X115188375Y-62861676D01*
X115269187Y-62888613D01*
X115403874Y-63023300D01*
X115430812Y-63104112D01*
X115430812Y-63157987D01*
X115403874Y-63238799D01*
X115242250Y-63400424D01*
X115161438Y-63427361D01*
X115107563Y-63427361D01*
X115673248Y-63077175D02*
X116104247Y-62646176D01*
X115888748Y-62161303D02*
X116077309Y-61972741D01*
X116454433Y-62188241D02*
X116185059Y-62457615D01*
X115619374Y-61891929D01*
X115888748Y-61622555D01*
X116696870Y-61945804D02*
X116131184Y-61380119D01*
X117020118Y-61622555D01*
X116454433Y-61056870D01*
X87639722Y-104501456D02*
X87558910Y-104528393D01*
X87478097Y-104609205D01*
X87424223Y-104716955D01*
X87424223Y-104824705D01*
X87451160Y-104905517D01*
X87531972Y-105040204D01*
X87612784Y-105121016D01*
X87747471Y-105201828D01*
X87828284Y-105228766D01*
X87936033Y-105228766D01*
X88043783Y-105174891D01*
X88097658Y-105121016D01*
X88151532Y-105013266D01*
X88151532Y-104959392D01*
X87962971Y-104770830D01*
X87855221Y-104878579D01*
X88447844Y-104770830D02*
X87882158Y-104205144D01*
X88097658Y-103989645D01*
X88178470Y-103962708D01*
X88232345Y-103962708D01*
X88313157Y-103989645D01*
X88393969Y-104070457D01*
X88420906Y-104151270D01*
X88420906Y-104205144D01*
X88393969Y-104285957D01*
X88178470Y-104501456D01*
X89309841Y-103908833D02*
X88986592Y-104232082D01*
X89148216Y-104070457D02*
X88582531Y-103504772D01*
X88609468Y-103639459D01*
X88609468Y-103747209D01*
X88582531Y-103828021D01*
X89255966Y-102831337D02*
X88986592Y-103100711D01*
X89229028Y-103397022D01*
X89229028Y-103343148D01*
X89255966Y-103262335D01*
X89390653Y-103127648D01*
X89471465Y-103100711D01*
X89525340Y-103100711D01*
X89606152Y-103127648D01*
X89740839Y-103262335D01*
X89767776Y-103343148D01*
X89767776Y-103397022D01*
X89740839Y-103477835D01*
X89606152Y-103612522D01*
X89525340Y-103639459D01*
X89471465Y-103639459D01*
X113747722Y-71227456D02*
X113666910Y-71254393D01*
X113586097Y-71335205D01*
X113532223Y-71442955D01*
X113532223Y-71550705D01*
X113559160Y-71631517D01*
X113639972Y-71766204D01*
X113720784Y-71847016D01*
X113855471Y-71927828D01*
X113936284Y-71954766D01*
X114044033Y-71954766D01*
X114151783Y-71900891D01*
X114205658Y-71847016D01*
X114259532Y-71739266D01*
X114259532Y-71685392D01*
X114070971Y-71496830D01*
X113963221Y-71604579D01*
X114555844Y-71496830D02*
X113990158Y-70931144D01*
X114205658Y-70715645D01*
X114286470Y-70688708D01*
X114340345Y-70688708D01*
X114421157Y-70715645D01*
X114501969Y-70796457D01*
X114528906Y-70877270D01*
X114528906Y-70931144D01*
X114501969Y-71011957D01*
X114286470Y-71227456D01*
X114582781Y-70446271D02*
X114582781Y-70392396D01*
X114609719Y-70311584D01*
X114744406Y-70176897D01*
X114825218Y-70149960D01*
X114879093Y-70149960D01*
X114959905Y-70176897D01*
X115013780Y-70230772D01*
X115067654Y-70338522D01*
X115067654Y-70985019D01*
X115417841Y-70634833D01*
X115417841Y-69988335D02*
X115337028Y-70015273D01*
X115283154Y-70015273D01*
X115202341Y-69988335D01*
X115175404Y-69961398D01*
X115148467Y-69880586D01*
X115148467Y-69826711D01*
X115175404Y-69745899D01*
X115283154Y-69638149D01*
X115363966Y-69611212D01*
X115417841Y-69611212D01*
X115498653Y-69638149D01*
X115525590Y-69665087D01*
X115552528Y-69745899D01*
X115552528Y-69799774D01*
X115525590Y-69880586D01*
X115417841Y-69988335D01*
X115390903Y-70069148D01*
X115390903Y-70123022D01*
X115417841Y-70203835D01*
X115525590Y-70311584D01*
X115606402Y-70338522D01*
X115660277Y-70338522D01*
X115741089Y-70311584D01*
X115848839Y-70203835D01*
X115875776Y-70123022D01*
X115875776Y-70069148D01*
X115848839Y-69988335D01*
X115741089Y-69880586D01*
X115660277Y-69853648D01*
X115606402Y-69853648D01*
X115525590Y-69880586D01*
X87493722Y-94341456D02*
X87412910Y-94368393D01*
X87332097Y-94449205D01*
X87278223Y-94556955D01*
X87278223Y-94664705D01*
X87305160Y-94745517D01*
X87385972Y-94880204D01*
X87466784Y-94961016D01*
X87601471Y-95041828D01*
X87682284Y-95068766D01*
X87790033Y-95068766D01*
X87897783Y-95014891D01*
X87951658Y-94961016D01*
X88005532Y-94853266D01*
X88005532Y-94799392D01*
X87816971Y-94610830D01*
X87709221Y-94718579D01*
X88301844Y-94610830D02*
X87736158Y-94045144D01*
X87951658Y-93829645D01*
X88032470Y-93802708D01*
X88086345Y-93802708D01*
X88167157Y-93829645D01*
X88247969Y-93910457D01*
X88274906Y-93991270D01*
X88274906Y-94045144D01*
X88247969Y-94125957D01*
X88032470Y-94341456D01*
X89163841Y-93748833D02*
X88840592Y-94072082D01*
X89002216Y-93910457D02*
X88436531Y-93344772D01*
X88463468Y-93479459D01*
X88463468Y-93587209D01*
X88436531Y-93668021D01*
X88867529Y-93021523D02*
X88867529Y-92967648D01*
X88894467Y-92886836D01*
X89029154Y-92752149D01*
X89109966Y-92725212D01*
X89163841Y-92725212D01*
X89244653Y-92752149D01*
X89298528Y-92806024D01*
X89352402Y-92913774D01*
X89352402Y-93560271D01*
X89702589Y-93210085D01*
X105554761Y-106504673D02*
X105669047Y-106542768D01*
X105859523Y-106542768D01*
X105935714Y-106504673D01*
X105973809Y-106466578D01*
X106011904Y-106390387D01*
X106011904Y-106314197D01*
X105973809Y-106238006D01*
X105935714Y-106199911D01*
X105859523Y-106161816D01*
X105707142Y-106123721D01*
X105630952Y-106085625D01*
X105592857Y-106047530D01*
X105554761Y-105971340D01*
X105554761Y-105895149D01*
X105592857Y-105818959D01*
X105630952Y-105780864D01*
X105707142Y-105742768D01*
X105897619Y-105742768D01*
X106011904Y-105780864D01*
X106278571Y-105742768D02*
X106469047Y-106542768D01*
X106621428Y-105971340D01*
X106773809Y-106542768D01*
X106964285Y-105742768D01*
X107269047Y-106542768D02*
X107269047Y-105742768D01*
X107459523Y-105742768D01*
X107573809Y-105780864D01*
X107650000Y-105857054D01*
X107688095Y-105933244D01*
X107726190Y-106085625D01*
X107726190Y-106199911D01*
X107688095Y-106352292D01*
X107650000Y-106428483D01*
X107573809Y-106504673D01*
X107459523Y-106542768D01*
X107269047Y-106542768D01*
X108069047Y-106542768D02*
X108069047Y-105742768D01*
X108602380Y-105742768D02*
X108754761Y-105742768D01*
X108830952Y-105780864D01*
X108907142Y-105857054D01*
X108945238Y-106009435D01*
X108945238Y-106276102D01*
X108907142Y-106428483D01*
X108830952Y-106504673D01*
X108754761Y-106542768D01*
X108602380Y-106542768D01*
X108526190Y-106504673D01*
X108450000Y-106428483D01*
X108411904Y-106276102D01*
X108411904Y-106009435D01*
X108450000Y-105857054D01*
X108526190Y-105780864D01*
X108602380Y-105742768D01*
X113801597Y-74721828D02*
X114070971Y-74452454D01*
X113909346Y-74937327D02*
X113532223Y-74183080D01*
X114286470Y-74560204D01*
X114232595Y-73536583D02*
X114151783Y-73563520D01*
X114070971Y-73644332D01*
X114017096Y-73752082D01*
X114017096Y-73859831D01*
X114044033Y-73940644D01*
X114124845Y-74075331D01*
X114205658Y-74156143D01*
X114340345Y-74236955D01*
X114421157Y-74263892D01*
X114528906Y-74263892D01*
X114636656Y-74210018D01*
X114690531Y-74156143D01*
X114744406Y-74048393D01*
X114744406Y-73994518D01*
X114555844Y-73805957D01*
X114448094Y-73913706D01*
X115040717Y-73805957D02*
X114475032Y-73240271D01*
X115363966Y-73482708D01*
X114798280Y-72917022D01*
X115633340Y-73213334D02*
X115067654Y-72647648D01*
X115202341Y-72512961D01*
X115310091Y-72459087D01*
X115417841Y-72459087D01*
X115498653Y-72486024D01*
X115633340Y-72566836D01*
X115714152Y-72647648D01*
X115794964Y-72782335D01*
X115821902Y-72863148D01*
X115821902Y-72970897D01*
X115768027Y-73078647D01*
X115633340Y-73213334D01*
X113736158Y-61079019D02*
X113655346Y-61105957D01*
X113574534Y-61186769D01*
X113520659Y-61294518D01*
X113520659Y-61402268D01*
X113547597Y-61483080D01*
X113628409Y-61617767D01*
X113709221Y-61698579D01*
X113843908Y-61779392D01*
X113924720Y-61806329D01*
X114032470Y-61806329D01*
X114140219Y-61752454D01*
X114194094Y-61698579D01*
X114247969Y-61590830D01*
X114247969Y-61536955D01*
X114059407Y-61348393D01*
X113951658Y-61456143D01*
X114544280Y-61348393D02*
X113978595Y-60782708D01*
X114867529Y-61025144D01*
X114301844Y-60459459D01*
X115136903Y-60755770D02*
X114571218Y-60190085D01*
X114705905Y-60055398D01*
X114813654Y-60001523D01*
X114921404Y-60001523D01*
X115002216Y-60028461D01*
X115136903Y-60109273D01*
X115217715Y-60190085D01*
X115298528Y-60324772D01*
X115325465Y-60405584D01*
X115325465Y-60513334D01*
X115271590Y-60621083D01*
X115136903Y-60755770D01*
X87639722Y-96881456D02*
X87558910Y-96908393D01*
X87478097Y-96989205D01*
X87424223Y-97096955D01*
X87424223Y-97204705D01*
X87451160Y-97285517D01*
X87531972Y-97420204D01*
X87612784Y-97501016D01*
X87747471Y-97581828D01*
X87828284Y-97608766D01*
X87936033Y-97608766D01*
X88043783Y-97554891D01*
X88097658Y-97501016D01*
X88151532Y-97393266D01*
X88151532Y-97339392D01*
X87962971Y-97150830D01*
X87855221Y-97258579D01*
X88447844Y-97150830D02*
X87882158Y-96585144D01*
X88097658Y-96369645D01*
X88178470Y-96342708D01*
X88232345Y-96342708D01*
X88313157Y-96369645D01*
X88393969Y-96450457D01*
X88420906Y-96531270D01*
X88420906Y-96585144D01*
X88393969Y-96665957D01*
X88178470Y-96881456D01*
X89309841Y-96288833D02*
X88986592Y-96612082D01*
X89148216Y-96450457D02*
X88582531Y-95884772D01*
X88609468Y-96019459D01*
X88609468Y-96127209D01*
X88582531Y-96208021D01*
X88932717Y-95534586D02*
X89282903Y-95184400D01*
X89309841Y-95588461D01*
X89390653Y-95507648D01*
X89471465Y-95480711D01*
X89525340Y-95480711D01*
X89606152Y-95507648D01*
X89740839Y-95642335D01*
X89767776Y-95723148D01*
X89767776Y-95777022D01*
X89740839Y-95857835D01*
X89579215Y-96019459D01*
X89498402Y-96046396D01*
X89444528Y-96046396D01*
X113539847Y-66471456D02*
X113890033Y-66121270D01*
X113916971Y-66525331D01*
X113997783Y-66444518D01*
X114078595Y-66417581D01*
X114132470Y-66417581D01*
X114213282Y-66444518D01*
X114347969Y-66579205D01*
X114374906Y-66660018D01*
X114374906Y-66713892D01*
X114347969Y-66794705D01*
X114186345Y-66956329D01*
X114105532Y-66983266D01*
X114051658Y-66983266D01*
X114051658Y-65959645D02*
X114805905Y-66336769D01*
X114428781Y-65582522D01*
X114563468Y-65447835D02*
X114913654Y-65097648D01*
X114940592Y-65501709D01*
X115021404Y-65420897D01*
X115102216Y-65393960D01*
X115156091Y-65393960D01*
X115236903Y-65420897D01*
X115371590Y-65555584D01*
X115398528Y-65636396D01*
X115398528Y-65690271D01*
X115371590Y-65771083D01*
X115209966Y-65932708D01*
X115129154Y-65959645D01*
X115075279Y-65959645D01*
X88136158Y-73779019D02*
X88055346Y-73805957D01*
X87974534Y-73886769D01*
X87920659Y-73994518D01*
X87920659Y-74102268D01*
X87947597Y-74183080D01*
X88028409Y-74317767D01*
X88109221Y-74398579D01*
X88243908Y-74479392D01*
X88324720Y-74506329D01*
X88432470Y-74506329D01*
X88540219Y-74452454D01*
X88594094Y-74398579D01*
X88647969Y-74290830D01*
X88647969Y-74236955D01*
X88459407Y-74048393D01*
X88351658Y-74156143D01*
X88944280Y-74048393D02*
X88378595Y-73482708D01*
X89267529Y-73725144D01*
X88701844Y-73159459D01*
X89536903Y-73455770D02*
X88971218Y-72890085D01*
X89105905Y-72755398D01*
X89213654Y-72701523D01*
X89321404Y-72701523D01*
X89402216Y-72728461D01*
X89536903Y-72809273D01*
X89617715Y-72890085D01*
X89698528Y-73024772D01*
X89725465Y-73105584D01*
X89725465Y-73213334D01*
X89671590Y-73321083D01*
X89536903Y-73455770D01*
X88163096Y-76292082D02*
X88082284Y-76319019D01*
X88001471Y-76399831D01*
X87947597Y-76507581D01*
X87947597Y-76615331D01*
X87974534Y-76696143D01*
X88055346Y-76830830D01*
X88136158Y-76911642D01*
X88270845Y-76992454D01*
X88351658Y-77019392D01*
X88459407Y-77019392D01*
X88567157Y-76965517D01*
X88621032Y-76911642D01*
X88674906Y-76803892D01*
X88674906Y-76750018D01*
X88486345Y-76561456D01*
X88378595Y-76669205D01*
X88971218Y-76561456D02*
X88405532Y-75995770D01*
X88621032Y-75780271D01*
X88701844Y-75753334D01*
X88755719Y-75753334D01*
X88836531Y-75780271D01*
X88917343Y-75861083D01*
X88944280Y-75941896D01*
X88944280Y-75995770D01*
X88917343Y-76076583D01*
X88701844Y-76292082D01*
X89213654Y-75187648D02*
X89105905Y-75295398D01*
X89078967Y-75376210D01*
X89078967Y-75430085D01*
X89105905Y-75564772D01*
X89186717Y-75699459D01*
X89402216Y-75914958D01*
X89483028Y-75941896D01*
X89536903Y-75941896D01*
X89617715Y-75914958D01*
X89725465Y-75807209D01*
X89752402Y-75726396D01*
X89752402Y-75672522D01*
X89725465Y-75591709D01*
X89590778Y-75457022D01*
X89509966Y-75430085D01*
X89456091Y-75430085D01*
X89375279Y-75457022D01*
X89267529Y-75564772D01*
X89240592Y-75645584D01*
X89240592Y-75699459D01*
X89267529Y-75780271D01*
X88136158Y-86479019D02*
X88055346Y-86505957D01*
X87974534Y-86586769D01*
X87920659Y-86694518D01*
X87920659Y-86802268D01*
X87947597Y-86883080D01*
X88028409Y-87017767D01*
X88109221Y-87098579D01*
X88243908Y-87179392D01*
X88324720Y-87206329D01*
X88432470Y-87206329D01*
X88540219Y-87152454D01*
X88594094Y-87098579D01*
X88647969Y-86990830D01*
X88647969Y-86936955D01*
X88459407Y-86748393D01*
X88351658Y-86856143D01*
X88944280Y-86748393D02*
X88378595Y-86182708D01*
X89267529Y-86425144D01*
X88701844Y-85859459D01*
X89536903Y-86155770D02*
X88971218Y-85590085D01*
X89105905Y-85455398D01*
X89213654Y-85401523D01*
X89321404Y-85401523D01*
X89402216Y-85428461D01*
X89536903Y-85509273D01*
X89617715Y-85590085D01*
X89698528Y-85724772D01*
X89725465Y-85805584D01*
X89725465Y-85913334D01*
X89671590Y-86021083D01*
X89536903Y-86155770D01*
X88136158Y-61079019D02*
X88055346Y-61105957D01*
X87974534Y-61186769D01*
X87920659Y-61294518D01*
X87920659Y-61402268D01*
X87947597Y-61483080D01*
X88028409Y-61617767D01*
X88109221Y-61698579D01*
X88243908Y-61779392D01*
X88324720Y-61806329D01*
X88432470Y-61806329D01*
X88540219Y-61752454D01*
X88594094Y-61698579D01*
X88647969Y-61590830D01*
X88647969Y-61536955D01*
X88459407Y-61348393D01*
X88351658Y-61456143D01*
X88944280Y-61348393D02*
X88378595Y-60782708D01*
X89267529Y-61025144D01*
X88701844Y-60459459D01*
X89536903Y-60755770D02*
X88971218Y-60190085D01*
X89105905Y-60055398D01*
X89213654Y-60001523D01*
X89321404Y-60001523D01*
X89402216Y-60028461D01*
X89536903Y-60109273D01*
X89617715Y-60190085D01*
X89698528Y-60324772D01*
X89725465Y-60405584D01*
X89725465Y-60513334D01*
X89671590Y-60621083D01*
X89536903Y-60755770D01*
X113747722Y-94341456D02*
X113666910Y-94368393D01*
X113586097Y-94449205D01*
X113532223Y-94556955D01*
X113532223Y-94664705D01*
X113559160Y-94745517D01*
X113639972Y-94880204D01*
X113720784Y-94961016D01*
X113855471Y-95041828D01*
X113936284Y-95068766D01*
X114044033Y-95068766D01*
X114151783Y-95014891D01*
X114205658Y-94961016D01*
X114259532Y-94853266D01*
X114259532Y-94799392D01*
X114070971Y-94610830D01*
X113963221Y-94718579D01*
X114555844Y-94610830D02*
X113990158Y-94045144D01*
X114205658Y-93829645D01*
X114286470Y-93802708D01*
X114340345Y-93802708D01*
X114421157Y-93829645D01*
X114501969Y-93910457D01*
X114528906Y-93991270D01*
X114528906Y-94045144D01*
X114501969Y-94125957D01*
X114286470Y-94341456D01*
X115417841Y-93748833D02*
X115094592Y-94072082D01*
X115256216Y-93910457D02*
X114690531Y-93344772D01*
X114717468Y-93479459D01*
X114717468Y-93587209D01*
X114690531Y-93668021D01*
X115687215Y-93479459D02*
X115794964Y-93371709D01*
X115821902Y-93290897D01*
X115821902Y-93237022D01*
X115794964Y-93102335D01*
X115714152Y-92967648D01*
X115498653Y-92752149D01*
X115417841Y-92725212D01*
X115363966Y-92725212D01*
X115283154Y-92752149D01*
X115175404Y-92859899D01*
X115148467Y-92940711D01*
X115148467Y-92994586D01*
X115175404Y-93075398D01*
X115310091Y-93210085D01*
X115390903Y-93237022D01*
X115444778Y-93237022D01*
X115525590Y-93210085D01*
X115633340Y-93102335D01*
X115660277Y-93021523D01*
X115660277Y-92967648D01*
X115633340Y-92886836D01*
X113747722Y-96881456D02*
X113666910Y-96908393D01*
X113586097Y-96989205D01*
X113532223Y-97096955D01*
X113532223Y-97204705D01*
X113559160Y-97285517D01*
X113639972Y-97420204D01*
X113720784Y-97501016D01*
X113855471Y-97581828D01*
X113936284Y-97608766D01*
X114044033Y-97608766D01*
X114151783Y-97554891D01*
X114205658Y-97501016D01*
X114259532Y-97393266D01*
X114259532Y-97339392D01*
X114070971Y-97150830D01*
X113963221Y-97258579D01*
X114555844Y-97150830D02*
X113990158Y-96585144D01*
X114205658Y-96369645D01*
X114286470Y-96342708D01*
X114340345Y-96342708D01*
X114421157Y-96369645D01*
X114501969Y-96450457D01*
X114528906Y-96531270D01*
X114528906Y-96585144D01*
X114501969Y-96665957D01*
X114286470Y-96881456D01*
X115417841Y-96288833D02*
X115094592Y-96612082D01*
X115256216Y-96450457D02*
X114690531Y-95884772D01*
X114717468Y-96019459D01*
X114717468Y-96127209D01*
X114690531Y-96208021D01*
X115417841Y-95642335D02*
X115337028Y-95669273D01*
X115283154Y-95669273D01*
X115202341Y-95642335D01*
X115175404Y-95615398D01*
X115148467Y-95534586D01*
X115148467Y-95480711D01*
X115175404Y-95399899D01*
X115283154Y-95292149D01*
X115363966Y-95265212D01*
X115417841Y-95265212D01*
X115498653Y-95292149D01*
X115525590Y-95319087D01*
X115552528Y-95399899D01*
X115552528Y-95453774D01*
X115525590Y-95534586D01*
X115417841Y-95642335D01*
X115390903Y-95723148D01*
X115390903Y-95777022D01*
X115417841Y-95857835D01*
X115525590Y-95965584D01*
X115606402Y-95992522D01*
X115660277Y-95992522D01*
X115741089Y-95965584D01*
X115848839Y-95857835D01*
X115875776Y-95777022D01*
X115875776Y-95723148D01*
X115848839Y-95642335D01*
X115741089Y-95534586D01*
X115660277Y-95507648D01*
X115606402Y-95507648D01*
X115525590Y-95534586D01*
X87493722Y-91801456D02*
X87412910Y-91828393D01*
X87332097Y-91909205D01*
X87278223Y-92016955D01*
X87278223Y-92124705D01*
X87305160Y-92205517D01*
X87385972Y-92340204D01*
X87466784Y-92421016D01*
X87601471Y-92501828D01*
X87682284Y-92528766D01*
X87790033Y-92528766D01*
X87897783Y-92474891D01*
X87951658Y-92421016D01*
X88005532Y-92313266D01*
X88005532Y-92259392D01*
X87816971Y-92070830D01*
X87709221Y-92178579D01*
X88301844Y-92070830D02*
X87736158Y-91505144D01*
X87951658Y-91289645D01*
X88032470Y-91262708D01*
X88086345Y-91262708D01*
X88167157Y-91289645D01*
X88247969Y-91370457D01*
X88274906Y-91451270D01*
X88274906Y-91505144D01*
X88247969Y-91585957D01*
X88032470Y-91801456D01*
X89163841Y-91208833D02*
X88840592Y-91532082D01*
X89002216Y-91370457D02*
X88436531Y-90804772D01*
X88463468Y-90939459D01*
X88463468Y-91047209D01*
X88436531Y-91128021D01*
X89702589Y-90670085D02*
X89379340Y-90993334D01*
X89540964Y-90831709D02*
X88975279Y-90266024D01*
X89002216Y-90400711D01*
X89002216Y-90508461D01*
X88975279Y-90589273D01*
X113747722Y-89271456D02*
X113666910Y-89298393D01*
X113586097Y-89379205D01*
X113532223Y-89486955D01*
X113532223Y-89594705D01*
X113559160Y-89675517D01*
X113639972Y-89810204D01*
X113720784Y-89891016D01*
X113855471Y-89971828D01*
X113936284Y-89998766D01*
X114044033Y-89998766D01*
X114151783Y-89944891D01*
X114205658Y-89891016D01*
X114259532Y-89783266D01*
X114259532Y-89729392D01*
X114070971Y-89540830D01*
X113963221Y-89648579D01*
X114555844Y-89540830D02*
X113990158Y-88975144D01*
X114205658Y-88759645D01*
X114286470Y-88732708D01*
X114340345Y-88732708D01*
X114421157Y-88759645D01*
X114501969Y-88840457D01*
X114528906Y-88921270D01*
X114528906Y-88975144D01*
X114501969Y-89055957D01*
X114286470Y-89271456D01*
X114582781Y-88490271D02*
X114582781Y-88436396D01*
X114609719Y-88355584D01*
X114744406Y-88220897D01*
X114825218Y-88193960D01*
X114879093Y-88193960D01*
X114959905Y-88220897D01*
X115013780Y-88274772D01*
X115067654Y-88382522D01*
X115067654Y-89029019D01*
X115417841Y-88678833D01*
X115956589Y-88140085D02*
X115633340Y-88463334D01*
X115794964Y-88301709D02*
X115229279Y-87736024D01*
X115256216Y-87870711D01*
X115256216Y-87978461D01*
X115229279Y-88059273D01*
X113747722Y-104501456D02*
X113666910Y-104528393D01*
X113586097Y-104609205D01*
X113532223Y-104716955D01*
X113532223Y-104824705D01*
X113559160Y-104905517D01*
X113639972Y-105040204D01*
X113720784Y-105121016D01*
X113855471Y-105201828D01*
X113936284Y-105228766D01*
X114044033Y-105228766D01*
X114151783Y-105174891D01*
X114205658Y-105121016D01*
X114259532Y-105013266D01*
X114259532Y-104959392D01*
X114070971Y-104770830D01*
X113963221Y-104878579D01*
X114555844Y-104770830D02*
X113990158Y-104205144D01*
X114205658Y-103989645D01*
X114286470Y-103962708D01*
X114340345Y-103962708D01*
X114421157Y-103989645D01*
X114501969Y-104070457D01*
X114528906Y-104151270D01*
X114528906Y-104205144D01*
X114501969Y-104285957D01*
X114286470Y-104501456D01*
X115417841Y-103908833D02*
X115094592Y-104232082D01*
X115256216Y-104070457D02*
X114690531Y-103504772D01*
X114717468Y-103639459D01*
X114717468Y-103747209D01*
X114690531Y-103828021D01*
X115337028Y-102858274D02*
X115229279Y-102966024D01*
X115202341Y-103046836D01*
X115202341Y-103100711D01*
X115229279Y-103235398D01*
X115310091Y-103370085D01*
X115525590Y-103585584D01*
X115606402Y-103612522D01*
X115660277Y-103612522D01*
X115741089Y-103585584D01*
X115848839Y-103477835D01*
X115875776Y-103397022D01*
X115875776Y-103343148D01*
X115848839Y-103262335D01*
X115714152Y-103127648D01*
X115633340Y-103100711D01*
X115579465Y-103100711D01*
X115498653Y-103127648D01*
X115390903Y-103235398D01*
X115363966Y-103316210D01*
X115363966Y-103370085D01*
X115390903Y-103450897D01*
X88063096Y-58502082D02*
X87982284Y-58529019D01*
X87901471Y-58609831D01*
X87847597Y-58717581D01*
X87847597Y-58825331D01*
X87874534Y-58906143D01*
X87955346Y-59040830D01*
X88036158Y-59121642D01*
X88170845Y-59202454D01*
X88251658Y-59229392D01*
X88359407Y-59229392D01*
X88467157Y-59175517D01*
X88521032Y-59121642D01*
X88574906Y-59013892D01*
X88574906Y-58960018D01*
X88386345Y-58771456D01*
X88278595Y-58879205D01*
X88871218Y-58771456D02*
X88305532Y-58205770D01*
X88521032Y-57990271D01*
X88601844Y-57963334D01*
X88655719Y-57963334D01*
X88736531Y-57990271D01*
X88817343Y-58071083D01*
X88844280Y-58151896D01*
X88844280Y-58205770D01*
X88817343Y-58286583D01*
X88601844Y-58502082D01*
X89733215Y-57909459D02*
X89409966Y-58232708D01*
X89571590Y-58071083D02*
X89005905Y-57505398D01*
X89032842Y-57640085D01*
X89032842Y-57747835D01*
X89005905Y-57828647D01*
X88163096Y-55972082D02*
X88082284Y-55999019D01*
X88001471Y-56079831D01*
X87947597Y-56187581D01*
X87947597Y-56295331D01*
X87974534Y-56376143D01*
X88055346Y-56510830D01*
X88136158Y-56591642D01*
X88270845Y-56672454D01*
X88351658Y-56699392D01*
X88459407Y-56699392D01*
X88567157Y-56645517D01*
X88621032Y-56591642D01*
X88674906Y-56483892D01*
X88674906Y-56430018D01*
X88486345Y-56241456D01*
X88378595Y-56349205D01*
X88971218Y-56241456D02*
X88405532Y-55675770D01*
X88621032Y-55460271D01*
X88701844Y-55433334D01*
X88755719Y-55433334D01*
X88836531Y-55460271D01*
X88917343Y-55541083D01*
X88944280Y-55621896D01*
X88944280Y-55675770D01*
X88917343Y-55756583D01*
X88701844Y-55972082D01*
X89078967Y-55002335D02*
X89132842Y-54948461D01*
X89213654Y-54921523D01*
X89267529Y-54921523D01*
X89348341Y-54948461D01*
X89483028Y-55029273D01*
X89617715Y-55163960D01*
X89698528Y-55298647D01*
X89725465Y-55379459D01*
X89725465Y-55433334D01*
X89698528Y-55514146D01*
X89644653Y-55568021D01*
X89563841Y-55594958D01*
X89509966Y-55594958D01*
X89429154Y-55568021D01*
X89294467Y-55487209D01*
X89159780Y-55352522D01*
X89078967Y-55217835D01*
X89052030Y-55137022D01*
X89052030Y-55083148D01*
X89078967Y-55002335D01*
X113543722Y-78890592D02*
X113462910Y-78917529D01*
X113382097Y-78998341D01*
X113328223Y-79106091D01*
X113328223Y-79213841D01*
X113355160Y-79294653D01*
X113435972Y-79429340D01*
X113516784Y-79510152D01*
X113651471Y-79590964D01*
X113732284Y-79617902D01*
X113840033Y-79617902D01*
X113947783Y-79564027D01*
X114001658Y-79510152D01*
X114055532Y-79402402D01*
X114055532Y-79348528D01*
X113866971Y-79159966D01*
X113759221Y-79267715D01*
X114351844Y-79159966D02*
X113786158Y-78594280D01*
X114001658Y-78378781D01*
X114082470Y-78351844D01*
X114136345Y-78351844D01*
X114217157Y-78378781D01*
X114297969Y-78459593D01*
X114324906Y-78540406D01*
X114324906Y-78594280D01*
X114297969Y-78675093D01*
X114082470Y-78890592D01*
X114378781Y-78109407D02*
X114378781Y-78055532D01*
X114405719Y-77974720D01*
X114540406Y-77840033D01*
X114621218Y-77813096D01*
X114675093Y-77813096D01*
X114755905Y-77840033D01*
X114809780Y-77893908D01*
X114863654Y-78001658D01*
X114863654Y-78648155D01*
X115213841Y-78297969D01*
X115133028Y-77247410D02*
X115025279Y-77355160D01*
X114998341Y-77435972D01*
X114998341Y-77489847D01*
X115025279Y-77624534D01*
X115106091Y-77759221D01*
X115321590Y-77974720D01*
X115402402Y-78001658D01*
X115456277Y-78001658D01*
X115537089Y-77974720D01*
X115644839Y-77866971D01*
X115671776Y-77786158D01*
X115671776Y-77732284D01*
X115644839Y-77651471D01*
X115510152Y-77516784D01*
X115429340Y-77489847D01*
X115375465Y-77489847D01*
X115294653Y-77516784D01*
X115186903Y-77624534D01*
X115159966Y-77705346D01*
X115159966Y-77759221D01*
X115186903Y-77840033D01*
X88263096Y-78802082D02*
X88182284Y-78829019D01*
X88101471Y-78909831D01*
X88047597Y-79017581D01*
X88047597Y-79125331D01*
X88074534Y-79206143D01*
X88155346Y-79340830D01*
X88236158Y-79421642D01*
X88370845Y-79502454D01*
X88451658Y-79529392D01*
X88559407Y-79529392D01*
X88667157Y-79475517D01*
X88721032Y-79421642D01*
X88774906Y-79313892D01*
X88774906Y-79260018D01*
X88586345Y-79071456D01*
X88478595Y-79179205D01*
X89071218Y-79071456D02*
X88505532Y-78505770D01*
X88721032Y-78290271D01*
X88801844Y-78263334D01*
X88855719Y-78263334D01*
X88936531Y-78290271D01*
X89017343Y-78371083D01*
X89044280Y-78451896D01*
X89044280Y-78505770D01*
X89017343Y-78586583D01*
X88801844Y-78802082D01*
X89017343Y-77993960D02*
X89394467Y-77616836D01*
X89717715Y-78424958D01*
X113747722Y-76571456D02*
X113666910Y-76598393D01*
X113586097Y-76679205D01*
X113532223Y-76786955D01*
X113532223Y-76894705D01*
X113559160Y-76975517D01*
X113639972Y-77110204D01*
X113720784Y-77191016D01*
X113855471Y-77271828D01*
X113936284Y-77298766D01*
X114044033Y-77298766D01*
X114151783Y-77244891D01*
X114205658Y-77191016D01*
X114259532Y-77083266D01*
X114259532Y-77029392D01*
X114070971Y-76840830D01*
X113963221Y-76948579D01*
X114555844Y-76840830D02*
X113990158Y-76275144D01*
X114205658Y-76059645D01*
X114286470Y-76032708D01*
X114340345Y-76032708D01*
X114421157Y-76059645D01*
X114501969Y-76140457D01*
X114528906Y-76221270D01*
X114528906Y-76275144D01*
X114501969Y-76355957D01*
X114286470Y-76571456D01*
X114582781Y-75790271D02*
X114582781Y-75736396D01*
X114609719Y-75655584D01*
X114744406Y-75520897D01*
X114825218Y-75493960D01*
X114879093Y-75493960D01*
X114959905Y-75520897D01*
X115013780Y-75574772D01*
X115067654Y-75682522D01*
X115067654Y-76329019D01*
X115417841Y-75978833D01*
X115040717Y-75224586D02*
X115417841Y-74847462D01*
X115741089Y-75655584D01*
X113032862Y-59749837D02*
X113817107Y-60059788D01*
X113375682Y-59341280D01*
X114106258Y-59655927D02*
X114208902Y-59592866D01*
X114331337Y-59446953D01*
X114351129Y-59364100D01*
X114346434Y-59310430D01*
X114312555Y-59232273D01*
X114254190Y-59183299D01*
X114171338Y-59163507D01*
X114117668Y-59168203D01*
X114039511Y-59202081D01*
X113912380Y-59294325D01*
X113834223Y-59328203D01*
X113780553Y-59332898D01*
X113697701Y-59313107D01*
X113639335Y-59264132D01*
X113605457Y-59185975D01*
X113600762Y-59132305D01*
X113620553Y-59049453D01*
X113742989Y-58903540D01*
X113845633Y-58840479D01*
X114455793Y-58705976D02*
X114747619Y-58950848D01*
X113963373Y-58640896D02*
X114455793Y-58705976D01*
X114306193Y-58232339D01*
X115036769Y-58546986D02*
X115139413Y-58483925D01*
X115261849Y-58338012D01*
X115281641Y-58255160D01*
X115276945Y-58201490D01*
X115243067Y-58123333D01*
X115184702Y-58074359D01*
X115101849Y-58054567D01*
X115048180Y-58059262D01*
X114970023Y-58093141D01*
X114842891Y-58185384D01*
X114764734Y-58219262D01*
X114711065Y-58223958D01*
X114628212Y-58204166D01*
X114569847Y-58155192D01*
X114535969Y-58077035D01*
X114531273Y-58023365D01*
X114551065Y-57940513D01*
X114673501Y-57794599D01*
X114776145Y-57731539D01*
X87593722Y-101961456D02*
X87512910Y-101988393D01*
X87432097Y-102069205D01*
X87378223Y-102176955D01*
X87378223Y-102284705D01*
X87405160Y-102365517D01*
X87485972Y-102500204D01*
X87566784Y-102581016D01*
X87701471Y-102661828D01*
X87782284Y-102688766D01*
X87890033Y-102688766D01*
X87997783Y-102634891D01*
X88051658Y-102581016D01*
X88105532Y-102473266D01*
X88105532Y-102419392D01*
X87916971Y-102230830D01*
X87809221Y-102338579D01*
X88401844Y-102230830D02*
X87836158Y-101665144D01*
X88051658Y-101449645D01*
X88132470Y-101422708D01*
X88186345Y-101422708D01*
X88267157Y-101449645D01*
X88347969Y-101530457D01*
X88374906Y-101611270D01*
X88374906Y-101665144D01*
X88347969Y-101745957D01*
X88132470Y-101961456D01*
X89263841Y-101368833D02*
X88940592Y-101692082D01*
X89102216Y-101530457D02*
X88536531Y-100964772D01*
X88563468Y-101099459D01*
X88563468Y-101207209D01*
X88536531Y-101288021D01*
X89371590Y-100506836D02*
X89748714Y-100883960D01*
X89021404Y-100426024D02*
X89290778Y-100964772D01*
X89640964Y-100614586D01*
X88163096Y-66132082D02*
X88082284Y-66159019D01*
X88001471Y-66239831D01*
X87947597Y-66347581D01*
X87947597Y-66455331D01*
X87974534Y-66536143D01*
X88055346Y-66670830D01*
X88136158Y-66751642D01*
X88270845Y-66832454D01*
X88351658Y-66859392D01*
X88459407Y-66859392D01*
X88567157Y-66805517D01*
X88621032Y-66751642D01*
X88674906Y-66643892D01*
X88674906Y-66590018D01*
X88486345Y-66401456D01*
X88378595Y-66509205D01*
X88971218Y-66401456D02*
X88405532Y-65835770D01*
X88621032Y-65620271D01*
X88701844Y-65593334D01*
X88755719Y-65593334D01*
X88836531Y-65620271D01*
X88917343Y-65701083D01*
X88944280Y-65781896D01*
X88944280Y-65835770D01*
X88917343Y-65916583D01*
X88701844Y-66132082D01*
X88917343Y-65323960D02*
X89267529Y-64973774D01*
X89294467Y-65377835D01*
X89375279Y-65297022D01*
X89456091Y-65270085D01*
X89509966Y-65270085D01*
X89590778Y-65297022D01*
X89725465Y-65431709D01*
X89752402Y-65512522D01*
X89752402Y-65566396D01*
X89725465Y-65647209D01*
X89563841Y-65808833D01*
X89483028Y-65835770D01*
X89429154Y-65835770D01*
X114488375Y-81924299D02*
X114030439Y-81843486D01*
X114165126Y-82247547D02*
X113599441Y-81681862D01*
X113814940Y-81466363D01*
X113895752Y-81439425D01*
X113949627Y-81439425D01*
X114030439Y-81466363D01*
X114111251Y-81547175D01*
X114138189Y-81627987D01*
X114138189Y-81681862D01*
X114111251Y-81762674D01*
X113895752Y-81978173D01*
X114165126Y-81116176D02*
X114623062Y-81574112D01*
X114703874Y-81601050D01*
X114757749Y-81601050D01*
X114838561Y-81574112D01*
X114946311Y-81466363D01*
X114973248Y-81385551D01*
X114973248Y-81331676D01*
X114946311Y-81250864D01*
X114488375Y-80792928D01*
X115323435Y-81089239D02*
X114757749Y-80523554D01*
X115646683Y-80765990D01*
X115080998Y-80200305D01*
X88163096Y-81372082D02*
X88082284Y-81399019D01*
X88001471Y-81479831D01*
X87947597Y-81587581D01*
X87947597Y-81695331D01*
X87974534Y-81776143D01*
X88055346Y-81910830D01*
X88136158Y-81991642D01*
X88270845Y-82072454D01*
X88351658Y-82099392D01*
X88459407Y-82099392D01*
X88567157Y-82045517D01*
X88621032Y-81991642D01*
X88674906Y-81883892D01*
X88674906Y-81830018D01*
X88486345Y-81641456D01*
X88378595Y-81749205D01*
X88971218Y-81641456D02*
X88405532Y-81075770D01*
X88621032Y-80860271D01*
X88701844Y-80833334D01*
X88755719Y-80833334D01*
X88836531Y-80860271D01*
X88917343Y-80941083D01*
X88944280Y-81021896D01*
X88944280Y-81075770D01*
X88917343Y-81156583D01*
X88701844Y-81372082D01*
X89294467Y-80671709D02*
X89213654Y-80698647D01*
X89159780Y-80698647D01*
X89078967Y-80671709D01*
X89052030Y-80644772D01*
X89025093Y-80563960D01*
X89025093Y-80510085D01*
X89052030Y-80429273D01*
X89159780Y-80321523D01*
X89240592Y-80294586D01*
X89294467Y-80294586D01*
X89375279Y-80321523D01*
X89402216Y-80348461D01*
X89429154Y-80429273D01*
X89429154Y-80483148D01*
X89402216Y-80563960D01*
X89294467Y-80671709D01*
X89267529Y-80752522D01*
X89267529Y-80806396D01*
X89294467Y-80887209D01*
X89402216Y-80994958D01*
X89483028Y-81021896D01*
X89536903Y-81021896D01*
X89617715Y-80994958D01*
X89725465Y-80887209D01*
X89752402Y-80806396D01*
X89752402Y-80752522D01*
X89725465Y-80671709D01*
X89617715Y-80563960D01*
X89536903Y-80537022D01*
X89483028Y-80537022D01*
X89402216Y-80563960D01*
X113736158Y-99179019D02*
X113655346Y-99205957D01*
X113574534Y-99286769D01*
X113520659Y-99394518D01*
X113520659Y-99502268D01*
X113547597Y-99583080D01*
X113628409Y-99717767D01*
X113709221Y-99798579D01*
X113843908Y-99879392D01*
X113924720Y-99906329D01*
X114032470Y-99906329D01*
X114140219Y-99852454D01*
X114194094Y-99798579D01*
X114247969Y-99690830D01*
X114247969Y-99636955D01*
X114059407Y-99448393D01*
X113951658Y-99556143D01*
X114544280Y-99448393D02*
X113978595Y-98882708D01*
X114867529Y-99125144D01*
X114301844Y-98559459D01*
X115136903Y-98855770D02*
X114571218Y-98290085D01*
X114705905Y-98155398D01*
X114813654Y-98101523D01*
X114921404Y-98101523D01*
X115002216Y-98128461D01*
X115136903Y-98209273D01*
X115217715Y-98290085D01*
X115298528Y-98424772D01*
X115325465Y-98505584D01*
X115325465Y-98613334D01*
X115271590Y-98721083D01*
X115136903Y-98855770D01*
X88136158Y-99179019D02*
X88055346Y-99205957D01*
X87974534Y-99286769D01*
X87920659Y-99394518D01*
X87920659Y-99502268D01*
X87947597Y-99583080D01*
X88028409Y-99717767D01*
X88109221Y-99798579D01*
X88243908Y-99879392D01*
X88324720Y-99906329D01*
X88432470Y-99906329D01*
X88540219Y-99852454D01*
X88594094Y-99798579D01*
X88647969Y-99690830D01*
X88647969Y-99636955D01*
X88459407Y-99448393D01*
X88351658Y-99556143D01*
X88944280Y-99448393D02*
X88378595Y-98882708D01*
X89267529Y-99125144D01*
X88701844Y-98559459D01*
X89536903Y-98855770D02*
X88971218Y-98290085D01*
X89105905Y-98155398D01*
X89213654Y-98101523D01*
X89321404Y-98101523D01*
X89402216Y-98128461D01*
X89536903Y-98209273D01*
X89617715Y-98290085D01*
X89698528Y-98424772D01*
X89725465Y-98505584D01*
X89725465Y-98613334D01*
X89671590Y-98721083D01*
X89536903Y-98855770D01*
X113747722Y-101961456D02*
X113666910Y-101988393D01*
X113586097Y-102069205D01*
X113532223Y-102176955D01*
X113532223Y-102284705D01*
X113559160Y-102365517D01*
X113639972Y-102500204D01*
X113720784Y-102581016D01*
X113855471Y-102661828D01*
X113936284Y-102688766D01*
X114044033Y-102688766D01*
X114151783Y-102634891D01*
X114205658Y-102581016D01*
X114259532Y-102473266D01*
X114259532Y-102419392D01*
X114070971Y-102230830D01*
X113963221Y-102338579D01*
X114555844Y-102230830D02*
X113990158Y-101665144D01*
X114205658Y-101449645D01*
X114286470Y-101422708D01*
X114340345Y-101422708D01*
X114421157Y-101449645D01*
X114501969Y-101530457D01*
X114528906Y-101611270D01*
X114528906Y-101665144D01*
X114501969Y-101745957D01*
X114286470Y-101961456D01*
X115417841Y-101368833D02*
X115094592Y-101692082D01*
X115256216Y-101530457D02*
X114690531Y-100964772D01*
X114717468Y-101099459D01*
X114717468Y-101207209D01*
X114690531Y-101288021D01*
X115040717Y-100614586D02*
X115417841Y-100237462D01*
X115741089Y-101045584D01*
X94140476Y-106504673D02*
X94254761Y-106542768D01*
X94445238Y-106542768D01*
X94521428Y-106504673D01*
X94559523Y-106466578D01*
X94597619Y-106390387D01*
X94597619Y-106314197D01*
X94559523Y-106238006D01*
X94521428Y-106199911D01*
X94445238Y-106161816D01*
X94292857Y-106123721D01*
X94216666Y-106085625D01*
X94178571Y-106047530D01*
X94140476Y-105971340D01*
X94140476Y-105895149D01*
X94178571Y-105818959D01*
X94216666Y-105780864D01*
X94292857Y-105742768D01*
X94483333Y-105742768D01*
X94597619Y-105780864D01*
X94864285Y-105742768D02*
X95054761Y-106542768D01*
X95207142Y-105971340D01*
X95359523Y-106542768D01*
X95550000Y-105742768D01*
X96311904Y-106466578D02*
X96273809Y-106504673D01*
X96159523Y-106542768D01*
X96083333Y-106542768D01*
X95969047Y-106504673D01*
X95892857Y-106428483D01*
X95854761Y-106352292D01*
X95816666Y-106199911D01*
X95816666Y-106085625D01*
X95854761Y-105933244D01*
X95892857Y-105857054D01*
X95969047Y-105780864D01*
X96083333Y-105742768D01*
X96159523Y-105742768D01*
X96273809Y-105780864D01*
X96311904Y-105818959D01*
X97035714Y-106542768D02*
X96654761Y-106542768D01*
X96654761Y-105742768D01*
X97302380Y-106542768D02*
X97302380Y-105742768D01*
X97759523Y-106542768D02*
X97416666Y-106085625D01*
X97759523Y-105742768D02*
X97302380Y-106199911D01*
%TO.C,C1*%
X100107142Y-127147530D02*
X100154761Y-127195149D01*
X100202380Y-127338006D01*
X100202380Y-127433244D01*
X100154761Y-127576102D01*
X100059523Y-127671340D01*
X99964285Y-127718959D01*
X99773809Y-127766578D01*
X99630952Y-127766578D01*
X99440476Y-127718959D01*
X99345238Y-127671340D01*
X99250000Y-127576102D01*
X99202380Y-127433244D01*
X99202380Y-127338006D01*
X99250000Y-127195149D01*
X99297619Y-127147530D01*
X100202380Y-126195149D02*
X100202380Y-126766578D01*
X100202380Y-126480864D02*
X99202380Y-126480864D01*
X99345238Y-126576102D01*
X99440476Y-126671340D01*
X99488095Y-126766578D01*
%TO.C,R23*%
X86702380Y-102623721D02*
X86226190Y-102957054D01*
X86702380Y-103195149D02*
X85702380Y-103195149D01*
X85702380Y-102814197D01*
X85750000Y-102718959D01*
X85797619Y-102671340D01*
X85892857Y-102623721D01*
X86035714Y-102623721D01*
X86130952Y-102671340D01*
X86178571Y-102718959D01*
X86226190Y-102814197D01*
X86226190Y-103195149D01*
X85797619Y-102242768D02*
X85750000Y-102195149D01*
X85702380Y-102099911D01*
X85702380Y-101861816D01*
X85750000Y-101766578D01*
X85797619Y-101718959D01*
X85892857Y-101671340D01*
X85988095Y-101671340D01*
X86130952Y-101718959D01*
X86702380Y-102290387D01*
X86702380Y-101671340D01*
X85702380Y-101338006D02*
X85702380Y-100718959D01*
X86083333Y-101052292D01*
X86083333Y-100909435D01*
X86130952Y-100814197D01*
X86178571Y-100766578D01*
X86273809Y-100718959D01*
X86511904Y-100718959D01*
X86607142Y-100766578D01*
X86654761Y-100814197D01*
X86702380Y-100909435D01*
X86702380Y-101195149D01*
X86654761Y-101290387D01*
X86607142Y-101338006D01*
%TO.C,U3*%
X85988095Y-110933244D02*
X85988095Y-111742768D01*
X86035714Y-111838006D01*
X86083333Y-111885625D01*
X86178571Y-111933244D01*
X86369047Y-111933244D01*
X86464285Y-111885625D01*
X86511904Y-111838006D01*
X86559523Y-111742768D01*
X86559523Y-110933244D01*
X86940476Y-110933244D02*
X87559523Y-110933244D01*
X87226190Y-111314197D01*
X87369047Y-111314197D01*
X87464285Y-111361816D01*
X87511904Y-111409435D01*
X87559523Y-111504673D01*
X87559523Y-111742768D01*
X87511904Y-111838006D01*
X87464285Y-111885625D01*
X87369047Y-111933244D01*
X87083333Y-111933244D01*
X86988095Y-111885625D01*
X86940476Y-111838006D01*
%TO.C,U1*%
X92488095Y-120303244D02*
X92488095Y-121112768D01*
X92535714Y-121208006D01*
X92583333Y-121255625D01*
X92678571Y-121303244D01*
X92869047Y-121303244D01*
X92964285Y-121255625D01*
X93011904Y-121208006D01*
X93059523Y-121112768D01*
X93059523Y-120303244D01*
X94059523Y-121303244D02*
X93488095Y-121303244D01*
X93773809Y-121303244D02*
X93773809Y-120303244D01*
X93678571Y-120446102D01*
X93583333Y-120541340D01*
X93488095Y-120588959D01*
%TO.C,R21*%
X78663142Y-103725244D02*
X78329809Y-103249054D01*
X78091714Y-103725244D02*
X78091714Y-102725244D01*
X78472666Y-102725244D01*
X78567904Y-102772864D01*
X78615523Y-102820483D01*
X78663142Y-102915721D01*
X78663142Y-103058578D01*
X78615523Y-103153816D01*
X78567904Y-103201435D01*
X78472666Y-103249054D01*
X78091714Y-103249054D01*
X79044095Y-102820483D02*
X79091714Y-102772864D01*
X79186952Y-102725244D01*
X79425047Y-102725244D01*
X79520285Y-102772864D01*
X79567904Y-102820483D01*
X79615523Y-102915721D01*
X79615523Y-103010959D01*
X79567904Y-103153816D01*
X78996476Y-103725244D01*
X79615523Y-103725244D01*
X80567904Y-103725244D02*
X79996476Y-103725244D01*
X80282190Y-103725244D02*
X80282190Y-102725244D01*
X80186952Y-102868102D01*
X80091714Y-102963340D01*
X79996476Y-103010959D01*
%TO.C,C3*%
X92508333Y-117998006D02*
X92460714Y-118045625D01*
X92317857Y-118093244D01*
X92222619Y-118093244D01*
X92079761Y-118045625D01*
X91984523Y-117950387D01*
X91936904Y-117855149D01*
X91889285Y-117664673D01*
X91889285Y-117521816D01*
X91936904Y-117331340D01*
X91984523Y-117236102D01*
X92079761Y-117140864D01*
X92222619Y-117093244D01*
X92317857Y-117093244D01*
X92460714Y-117140864D01*
X92508333Y-117188483D01*
X92841666Y-117093244D02*
X93460714Y-117093244D01*
X93127380Y-117474197D01*
X93270238Y-117474197D01*
X93365476Y-117521816D01*
X93413095Y-117569435D01*
X93460714Y-117664673D01*
X93460714Y-117902768D01*
X93413095Y-117998006D01*
X93365476Y-118045625D01*
X93270238Y-118093244D01*
X92984523Y-118093244D01*
X92889285Y-118045625D01*
X92841666Y-117998006D01*
%TO.C,C5*%
X111583333Y-126338006D02*
X111535714Y-126385625D01*
X111392857Y-126433244D01*
X111297619Y-126433244D01*
X111154761Y-126385625D01*
X111059523Y-126290387D01*
X111011904Y-126195149D01*
X110964285Y-126004673D01*
X110964285Y-125861816D01*
X111011904Y-125671340D01*
X111059523Y-125576102D01*
X111154761Y-125480864D01*
X111297619Y-125433244D01*
X111392857Y-125433244D01*
X111535714Y-125480864D01*
X111583333Y-125528483D01*
X112488095Y-125433244D02*
X112011904Y-125433244D01*
X111964285Y-125909435D01*
X112011904Y-125861816D01*
X112107142Y-125814197D01*
X112345238Y-125814197D01*
X112440476Y-125861816D01*
X112488095Y-125909435D01*
X112535714Y-126004673D01*
X112535714Y-126242768D01*
X112488095Y-126338006D01*
X112440476Y-126385625D01*
X112345238Y-126433244D01*
X112107142Y-126433244D01*
X112011904Y-126385625D01*
X111964285Y-126338006D01*
%TO.C,C4*%
X105703333Y-126358006D02*
X105655714Y-126405625D01*
X105512857Y-126453244D01*
X105417619Y-126453244D01*
X105274761Y-126405625D01*
X105179523Y-126310387D01*
X105131904Y-126215149D01*
X105084285Y-126024673D01*
X105084285Y-125881816D01*
X105131904Y-125691340D01*
X105179523Y-125596102D01*
X105274761Y-125500864D01*
X105417619Y-125453244D01*
X105512857Y-125453244D01*
X105655714Y-125500864D01*
X105703333Y-125548483D01*
X106560476Y-125786578D02*
X106560476Y-126453244D01*
X106322380Y-125405625D02*
X106084285Y-126119911D01*
X106703333Y-126119911D01*
%TO.C,R12*%
X74202380Y-114506463D02*
X73726190Y-114839796D01*
X74202380Y-115077891D02*
X73202380Y-115077891D01*
X73202380Y-114696939D01*
X73250000Y-114601701D01*
X73297619Y-114554082D01*
X73392857Y-114506463D01*
X73535714Y-114506463D01*
X73630952Y-114554082D01*
X73678571Y-114601701D01*
X73726190Y-114696939D01*
X73726190Y-115077891D01*
X74202380Y-113554082D02*
X74202380Y-114125510D01*
X74202380Y-113839796D02*
X73202380Y-113839796D01*
X73345238Y-113935034D01*
X73440476Y-114030272D01*
X73488095Y-114125510D01*
X73297619Y-113173129D02*
X73250000Y-113125510D01*
X73202380Y-113030272D01*
X73202380Y-112792177D01*
X73250000Y-112696939D01*
X73297619Y-112649320D01*
X73392857Y-112601701D01*
X73488095Y-112601701D01*
X73630952Y-112649320D01*
X74202380Y-113220748D01*
X74202380Y-112601701D01*
%TO.C,C13*%
X83607142Y-112338006D02*
X83559523Y-112385625D01*
X83416666Y-112433244D01*
X83321428Y-112433244D01*
X83178571Y-112385625D01*
X83083333Y-112290387D01*
X83035714Y-112195149D01*
X82988095Y-112004673D01*
X82988095Y-111861816D01*
X83035714Y-111671340D01*
X83083333Y-111576102D01*
X83178571Y-111480864D01*
X83321428Y-111433244D01*
X83416666Y-111433244D01*
X83559523Y-111480864D01*
X83607142Y-111528483D01*
X84559523Y-112433244D02*
X83988095Y-112433244D01*
X84273809Y-112433244D02*
X84273809Y-111433244D01*
X84178571Y-111576102D01*
X84083333Y-111671340D01*
X83988095Y-111718959D01*
X84892857Y-111433244D02*
X85511904Y-111433244D01*
X85178571Y-111814197D01*
X85321428Y-111814197D01*
X85416666Y-111861816D01*
X85464285Y-111909435D01*
X85511904Y-112004673D01*
X85511904Y-112242768D01*
X85464285Y-112338006D01*
X85416666Y-112385625D01*
X85321428Y-112433244D01*
X85035714Y-112433244D01*
X84940476Y-112385625D01*
X84892857Y-112338006D01*
%TO.C,R7*%
X83258333Y-90863244D02*
X82925000Y-90387054D01*
X82686904Y-90863244D02*
X82686904Y-89863244D01*
X83067857Y-89863244D01*
X83163095Y-89910864D01*
X83210714Y-89958483D01*
X83258333Y-90053721D01*
X83258333Y-90196578D01*
X83210714Y-90291816D01*
X83163095Y-90339435D01*
X83067857Y-90387054D01*
X82686904Y-90387054D01*
X83591666Y-89863244D02*
X84258333Y-89863244D01*
X83829761Y-90863244D01*
%TO.C,L1*%
X105703333Y-116073244D02*
X105227142Y-116073244D01*
X105227142Y-115073244D01*
X106560476Y-116073244D02*
X105989047Y-116073244D01*
X106274761Y-116073244D02*
X106274761Y-115073244D01*
X106179523Y-115216102D01*
X106084285Y-115311340D01*
X105989047Y-115358959D01*
%TO.C,R17*%
X85447142Y-83333244D02*
X85113809Y-82857054D01*
X84875714Y-83333244D02*
X84875714Y-82333244D01*
X85256666Y-82333244D01*
X85351904Y-82380864D01*
X85399523Y-82428483D01*
X85447142Y-82523721D01*
X85447142Y-82666578D01*
X85399523Y-82761816D01*
X85351904Y-82809435D01*
X85256666Y-82857054D01*
X84875714Y-82857054D01*
X86399523Y-83333244D02*
X85828095Y-83333244D01*
X86113809Y-83333244D02*
X86113809Y-82333244D01*
X86018571Y-82476102D01*
X85923333Y-82571340D01*
X85828095Y-82618959D01*
X86732857Y-82333244D02*
X87399523Y-82333244D01*
X86970952Y-83333244D01*
%TO.C,R16*%
X85607142Y-74503244D02*
X85273809Y-74027054D01*
X85035714Y-74503244D02*
X85035714Y-73503244D01*
X85416666Y-73503244D01*
X85511904Y-73550864D01*
X85559523Y-73598483D01*
X85607142Y-73693721D01*
X85607142Y-73836578D01*
X85559523Y-73931816D01*
X85511904Y-73979435D01*
X85416666Y-74027054D01*
X85035714Y-74027054D01*
X86559523Y-74503244D02*
X85988095Y-74503244D01*
X86273809Y-74503244D02*
X86273809Y-73503244D01*
X86178571Y-73646102D01*
X86083333Y-73741340D01*
X85988095Y-73788959D01*
X87416666Y-73503244D02*
X87226190Y-73503244D01*
X87130952Y-73550864D01*
X87083333Y-73598483D01*
X86988095Y-73741340D01*
X86940476Y-73931816D01*
X86940476Y-74312768D01*
X86988095Y-74408006D01*
X87035714Y-74455625D01*
X87130952Y-74503244D01*
X87321428Y-74503244D01*
X87416666Y-74455625D01*
X87464285Y-74408006D01*
X87511904Y-74312768D01*
X87511904Y-74074673D01*
X87464285Y-73979435D01*
X87416666Y-73931816D01*
X87321428Y-73884197D01*
X87130952Y-73884197D01*
X87035714Y-73931816D01*
X86988095Y-73979435D01*
X86940476Y-74074673D01*
%TO.C,C15*%
X80367142Y-72338006D02*
X80319523Y-72385625D01*
X80176666Y-72433244D01*
X80081428Y-72433244D01*
X79938571Y-72385625D01*
X79843333Y-72290387D01*
X79795714Y-72195149D01*
X79748095Y-72004673D01*
X79748095Y-71861816D01*
X79795714Y-71671340D01*
X79843333Y-71576102D01*
X79938571Y-71480864D01*
X80081428Y-71433244D01*
X80176666Y-71433244D01*
X80319523Y-71480864D01*
X80367142Y-71528483D01*
X81319523Y-72433244D02*
X80748095Y-72433244D01*
X81033809Y-72433244D02*
X81033809Y-71433244D01*
X80938571Y-71576102D01*
X80843333Y-71671340D01*
X80748095Y-71718959D01*
X82224285Y-71433244D02*
X81748095Y-71433244D01*
X81700476Y-71909435D01*
X81748095Y-71861816D01*
X81843333Y-71814197D01*
X82081428Y-71814197D01*
X82176666Y-71861816D01*
X82224285Y-71909435D01*
X82271904Y-72004673D01*
X82271904Y-72242768D01*
X82224285Y-72338006D01*
X82176666Y-72385625D01*
X82081428Y-72433244D01*
X81843333Y-72433244D01*
X81748095Y-72385625D01*
X81700476Y-72338006D01*
%TO.C,C18*%
X64607142Y-117338006D02*
X64559523Y-117385625D01*
X64416666Y-117433244D01*
X64321428Y-117433244D01*
X64178571Y-117385625D01*
X64083333Y-117290387D01*
X64035714Y-117195149D01*
X63988095Y-117004673D01*
X63988095Y-116861816D01*
X64035714Y-116671340D01*
X64083333Y-116576102D01*
X64178571Y-116480864D01*
X64321428Y-116433244D01*
X64416666Y-116433244D01*
X64559523Y-116480864D01*
X64607142Y-116528483D01*
X65559523Y-117433244D02*
X64988095Y-117433244D01*
X65273809Y-117433244D02*
X65273809Y-116433244D01*
X65178571Y-116576102D01*
X65083333Y-116671340D01*
X64988095Y-116718959D01*
X66130952Y-116861816D02*
X66035714Y-116814197D01*
X65988095Y-116766578D01*
X65940476Y-116671340D01*
X65940476Y-116623721D01*
X65988095Y-116528483D01*
X66035714Y-116480864D01*
X66130952Y-116433244D01*
X66321428Y-116433244D01*
X66416666Y-116480864D01*
X66464285Y-116528483D01*
X66511904Y-116623721D01*
X66511904Y-116671340D01*
X66464285Y-116766578D01*
X66416666Y-116814197D01*
X66321428Y-116861816D01*
X66130952Y-116861816D01*
X66035714Y-116909435D01*
X65988095Y-116957054D01*
X65940476Y-117052292D01*
X65940476Y-117242768D01*
X65988095Y-117338006D01*
X66035714Y-117385625D01*
X66130952Y-117433244D01*
X66321428Y-117433244D01*
X66416666Y-117385625D01*
X66464285Y-117338006D01*
X66511904Y-117242768D01*
X66511904Y-117052292D01*
X66464285Y-116957054D01*
X66416666Y-116909435D01*
X66321428Y-116861816D01*
%TO.C,R28*%
X75107142Y-118523244D02*
X74773809Y-118047054D01*
X74535714Y-118523244D02*
X74535714Y-117523244D01*
X74916666Y-117523244D01*
X75011904Y-117570864D01*
X75059523Y-117618483D01*
X75107142Y-117713721D01*
X75107142Y-117856578D01*
X75059523Y-117951816D01*
X75011904Y-117999435D01*
X74916666Y-118047054D01*
X74535714Y-118047054D01*
X75488095Y-117618483D02*
X75535714Y-117570864D01*
X75630952Y-117523244D01*
X75869047Y-117523244D01*
X75964285Y-117570864D01*
X76011904Y-117618483D01*
X76059523Y-117713721D01*
X76059523Y-117808959D01*
X76011904Y-117951816D01*
X75440476Y-118523244D01*
X76059523Y-118523244D01*
X76630952Y-117951816D02*
X76535714Y-117904197D01*
X76488095Y-117856578D01*
X76440476Y-117761340D01*
X76440476Y-117713721D01*
X76488095Y-117618483D01*
X76535714Y-117570864D01*
X76630952Y-117523244D01*
X76821428Y-117523244D01*
X76916666Y-117570864D01*
X76964285Y-117618483D01*
X77011904Y-117713721D01*
X77011904Y-117761340D01*
X76964285Y-117856578D01*
X76916666Y-117904197D01*
X76821428Y-117951816D01*
X76630952Y-117951816D01*
X76535714Y-117999435D01*
X76488095Y-118047054D01*
X76440476Y-118142292D01*
X76440476Y-118332768D01*
X76488095Y-118428006D01*
X76535714Y-118475625D01*
X76630952Y-118523244D01*
X76821428Y-118523244D01*
X76916666Y-118475625D01*
X76964285Y-118428006D01*
X77011904Y-118332768D01*
X77011904Y-118142292D01*
X76964285Y-118047054D01*
X76916666Y-117999435D01*
X76821428Y-117951816D01*
%TO.C,U5*%
X78488095Y-85933244D02*
X78488095Y-86742768D01*
X78535714Y-86838006D01*
X78583333Y-86885625D01*
X78678571Y-86933244D01*
X78869047Y-86933244D01*
X78964285Y-86885625D01*
X79011904Y-86838006D01*
X79059523Y-86742768D01*
X79059523Y-85933244D01*
X80011904Y-85933244D02*
X79535714Y-85933244D01*
X79488095Y-86409435D01*
X79535714Y-86361816D01*
X79630952Y-86314197D01*
X79869047Y-86314197D01*
X79964285Y-86361816D01*
X80011904Y-86409435D01*
X80059523Y-86504673D01*
X80059523Y-86742768D01*
X80011904Y-86838006D01*
X79964285Y-86885625D01*
X79869047Y-86933244D01*
X79630952Y-86933244D01*
X79535714Y-86885625D01*
X79488095Y-86838006D01*
%TO.C,J6*%
X80014380Y-65103333D02*
X80728666Y-65103333D01*
X80871523Y-65150952D01*
X80966761Y-65246190D01*
X81014380Y-65389047D01*
X81014380Y-65484285D01*
X80014380Y-64198571D02*
X80014380Y-64389047D01*
X80062000Y-64484285D01*
X80109619Y-64531904D01*
X80252476Y-64627142D01*
X80442952Y-64674761D01*
X80823904Y-64674761D01*
X80919142Y-64627142D01*
X80966761Y-64579523D01*
X81014380Y-64484285D01*
X81014380Y-64293809D01*
X80966761Y-64198571D01*
X80919142Y-64150952D01*
X80823904Y-64103333D01*
X80585809Y-64103333D01*
X80490571Y-64150952D01*
X80442952Y-64198571D01*
X80395333Y-64293809D01*
X80395333Y-64484285D01*
X80442952Y-64579523D01*
X80490571Y-64627142D01*
X80585809Y-64674761D01*
%TO.C,C11*%
X80607142Y-112338006D02*
X80559523Y-112385625D01*
X80416666Y-112433244D01*
X80321428Y-112433244D01*
X80178571Y-112385625D01*
X80083333Y-112290387D01*
X80035714Y-112195149D01*
X79988095Y-112004673D01*
X79988095Y-111861816D01*
X80035714Y-111671340D01*
X80083333Y-111576102D01*
X80178571Y-111480864D01*
X80321428Y-111433244D01*
X80416666Y-111433244D01*
X80559523Y-111480864D01*
X80607142Y-111528483D01*
X81559523Y-112433244D02*
X80988095Y-112433244D01*
X81273809Y-112433244D02*
X81273809Y-111433244D01*
X81178571Y-111576102D01*
X81083333Y-111671340D01*
X80988095Y-111718959D01*
X82511904Y-112433244D02*
X81940476Y-112433244D01*
X82226190Y-112433244D02*
X82226190Y-111433244D01*
X82130952Y-111576102D01*
X82035714Y-111671340D01*
X81940476Y-111718959D01*
%TO.C,R29*%
X65482142Y-92503244D02*
X65148809Y-92027054D01*
X64910714Y-92503244D02*
X64910714Y-91503244D01*
X65291666Y-91503244D01*
X65386904Y-91550864D01*
X65434523Y-91598483D01*
X65482142Y-91693721D01*
X65482142Y-91836578D01*
X65434523Y-91931816D01*
X65386904Y-91979435D01*
X65291666Y-92027054D01*
X64910714Y-92027054D01*
X65863095Y-91598483D02*
X65910714Y-91550864D01*
X66005952Y-91503244D01*
X66244047Y-91503244D01*
X66339285Y-91550864D01*
X66386904Y-91598483D01*
X66434523Y-91693721D01*
X66434523Y-91788959D01*
X66386904Y-91931816D01*
X65815476Y-92503244D01*
X66434523Y-92503244D01*
X66910714Y-92503244D02*
X67101190Y-92503244D01*
X67196428Y-92455625D01*
X67244047Y-92408006D01*
X67339285Y-92265149D01*
X67386904Y-92074673D01*
X67386904Y-91693721D01*
X67339285Y-91598483D01*
X67291666Y-91550864D01*
X67196428Y-91503244D01*
X67005952Y-91503244D01*
X66910714Y-91550864D01*
X66863095Y-91598483D01*
X66815476Y-91693721D01*
X66815476Y-91931816D01*
X66863095Y-92027054D01*
X66910714Y-92074673D01*
X67005952Y-92122292D01*
X67196428Y-92122292D01*
X67291666Y-92074673D01*
X67339285Y-92027054D01*
X67386904Y-91931816D01*
%TO.C,D8*%
X94502380Y-114918959D02*
X93502380Y-114918959D01*
X93502380Y-114680864D01*
X93550000Y-114538006D01*
X93645238Y-114442768D01*
X93740476Y-114395149D01*
X93930952Y-114347530D01*
X94073809Y-114347530D01*
X94264285Y-114395149D01*
X94359523Y-114442768D01*
X94454761Y-114538006D01*
X94502380Y-114680864D01*
X94502380Y-114918959D01*
X93930952Y-113776102D02*
X93883333Y-113871340D01*
X93835714Y-113918959D01*
X93740476Y-113966578D01*
X93692857Y-113966578D01*
X93597619Y-113918959D01*
X93550000Y-113871340D01*
X93502380Y-113776102D01*
X93502380Y-113585625D01*
X93550000Y-113490387D01*
X93597619Y-113442768D01*
X93692857Y-113395149D01*
X93740476Y-113395149D01*
X93835714Y-113442768D01*
X93883333Y-113490387D01*
X93930952Y-113585625D01*
X93930952Y-113776102D01*
X93978571Y-113871340D01*
X94026190Y-113918959D01*
X94121428Y-113966578D01*
X94311904Y-113966578D01*
X94407142Y-113918959D01*
X94454761Y-113871340D01*
X94502380Y-113776102D01*
X94502380Y-113585625D01*
X94454761Y-113490387D01*
X94407142Y-113442768D01*
X94311904Y-113395149D01*
X94121428Y-113395149D01*
X94026190Y-113442768D01*
X93978571Y-113490387D01*
X93930952Y-113585625D01*
%TO.C,J7*%
X81454666Y-91400380D02*
X81454666Y-92114666D01*
X81407047Y-92257523D01*
X81311809Y-92352761D01*
X81168952Y-92400380D01*
X81073714Y-92400380D01*
X81835619Y-91400380D02*
X82502285Y-91400380D01*
X82073714Y-92400380D01*
%TO.C,R1*%
X74126333Y-91433244D02*
X73793000Y-90957054D01*
X73554904Y-91433244D02*
X73554904Y-90433244D01*
X73935857Y-90433244D01*
X74031095Y-90480864D01*
X74078714Y-90528483D01*
X74126333Y-90623721D01*
X74126333Y-90766578D01*
X74078714Y-90861816D01*
X74031095Y-90909435D01*
X73935857Y-90957054D01*
X73554904Y-90957054D01*
X75078714Y-91433244D02*
X74507285Y-91433244D01*
X74793000Y-91433244D02*
X74793000Y-90433244D01*
X74697761Y-90576102D01*
X74602523Y-90671340D01*
X74507285Y-90718959D01*
%TO.C,R14*%
X74202380Y-122600979D02*
X73726190Y-122934312D01*
X74202380Y-123172407D02*
X73202380Y-123172407D01*
X73202380Y-122791455D01*
X73250000Y-122696217D01*
X73297619Y-122648598D01*
X73392857Y-122600979D01*
X73535714Y-122600979D01*
X73630952Y-122648598D01*
X73678571Y-122696217D01*
X73726190Y-122791455D01*
X73726190Y-123172407D01*
X74202380Y-121648598D02*
X74202380Y-122220026D01*
X74202380Y-121934312D02*
X73202380Y-121934312D01*
X73345238Y-122029550D01*
X73440476Y-122124788D01*
X73488095Y-122220026D01*
X73535714Y-120791455D02*
X74202380Y-120791455D01*
X73154761Y-121029550D02*
X73869047Y-121267645D01*
X73869047Y-120648598D01*
%TO.C,C14*%
X84107142Y-101623721D02*
X84154761Y-101671340D01*
X84202380Y-101814197D01*
X84202380Y-101909435D01*
X84154761Y-102052292D01*
X84059523Y-102147530D01*
X83964285Y-102195149D01*
X83773809Y-102242768D01*
X83630952Y-102242768D01*
X83440476Y-102195149D01*
X83345238Y-102147530D01*
X83250000Y-102052292D01*
X83202380Y-101909435D01*
X83202380Y-101814197D01*
X83250000Y-101671340D01*
X83297619Y-101623721D01*
X84202380Y-100671340D02*
X84202380Y-101242768D01*
X84202380Y-100957054D02*
X83202380Y-100957054D01*
X83345238Y-101052292D01*
X83440476Y-101147530D01*
X83488095Y-101242768D01*
X83535714Y-99814197D02*
X84202380Y-99814197D01*
X83154761Y-100052292D02*
X83869047Y-100290387D01*
X83869047Y-99671340D01*
%TO.C,FID1*%
X63678571Y-65909435D02*
X63345238Y-65909435D01*
X63345238Y-66433244D02*
X63345238Y-65433244D01*
X63821428Y-65433244D01*
X64202380Y-66433244D02*
X64202380Y-65433244D01*
X64678571Y-66433244D02*
X64678571Y-65433244D01*
X64916666Y-65433244D01*
X65059523Y-65480864D01*
X65154761Y-65576102D01*
X65202380Y-65671340D01*
X65250000Y-65861816D01*
X65250000Y-66004673D01*
X65202380Y-66195149D01*
X65154761Y-66290387D01*
X65059523Y-66385625D01*
X64916666Y-66433244D01*
X64678571Y-66433244D01*
X66202380Y-66433244D02*
X65630952Y-66433244D01*
X65916666Y-66433244D02*
X65916666Y-65433244D01*
X65821428Y-65576102D01*
X65726190Y-65671340D01*
X65630952Y-65718959D01*
%TO.C,R11*%
X74202380Y-110933721D02*
X73726190Y-111267054D01*
X74202380Y-111505149D02*
X73202380Y-111505149D01*
X73202380Y-111124197D01*
X73250000Y-111028959D01*
X73297619Y-110981340D01*
X73392857Y-110933721D01*
X73535714Y-110933721D01*
X73630952Y-110981340D01*
X73678571Y-111028959D01*
X73726190Y-111124197D01*
X73726190Y-111505149D01*
X74202380Y-109981340D02*
X74202380Y-110552768D01*
X74202380Y-110267054D02*
X73202380Y-110267054D01*
X73345238Y-110362292D01*
X73440476Y-110457530D01*
X73488095Y-110552768D01*
X74202380Y-109028959D02*
X74202380Y-109600387D01*
X74202380Y-109314673D02*
X73202380Y-109314673D01*
X73345238Y-109409911D01*
X73440476Y-109505149D01*
X73488095Y-109600387D01*
%TO.C,R13*%
X74202380Y-119123721D02*
X73726190Y-119457054D01*
X74202380Y-119695149D02*
X73202380Y-119695149D01*
X73202380Y-119314197D01*
X73250000Y-119218959D01*
X73297619Y-119171340D01*
X73392857Y-119123721D01*
X73535714Y-119123721D01*
X73630952Y-119171340D01*
X73678571Y-119218959D01*
X73726190Y-119314197D01*
X73726190Y-119695149D01*
X74202380Y-118171340D02*
X74202380Y-118742768D01*
X74202380Y-118457054D02*
X73202380Y-118457054D01*
X73345238Y-118552292D01*
X73440476Y-118647530D01*
X73488095Y-118742768D01*
X73202380Y-117838006D02*
X73202380Y-117218959D01*
X73583333Y-117552292D01*
X73583333Y-117409435D01*
X73630952Y-117314197D01*
X73678571Y-117266578D01*
X73773809Y-117218959D01*
X74011904Y-117218959D01*
X74107142Y-117266578D01*
X74154761Y-117314197D01*
X74202380Y-117409435D01*
X74202380Y-117695149D01*
X74154761Y-117790387D01*
X74107142Y-117838006D01*
D13*
%TO.C,R19*%
X85852742Y-73003364D02*
X86327258Y-73003364D01*
X85852742Y-71958364D02*
X86327258Y-71958364D01*
%TO.C,R27*%
X86942742Y-107228364D02*
X87417258Y-107228364D01*
X86942742Y-108273364D02*
X87417258Y-108273364D01*
%TO.C,C20*%
X69540580Y-120960864D02*
X69259420Y-120960864D01*
X69540580Y-119940864D02*
X69259420Y-119940864D01*
%TO.C,R2*%
X87917742Y-122243364D02*
X88392258Y-122243364D01*
X87917742Y-121198364D02*
X88392258Y-121198364D01*
%TO.C,R3*%
X112457258Y-121088364D02*
X111982742Y-121088364D01*
X112457258Y-122133364D02*
X111982742Y-122133364D01*
%TO.C,R22*%
X85895500Y-115608122D02*
X85895500Y-115133606D01*
X86940500Y-115608122D02*
X86940500Y-115133606D01*
%TO.C,J5*%
X122235000Y-90670864D02*
X116265000Y-90670864D01*
X116275000Y-104980864D02*
X117025000Y-104980864D01*
X121475000Y-91430864D02*
X121475000Y-99480864D01*
X117025000Y-92480864D02*
X117025000Y-90680864D01*
X117025000Y-108280864D02*
X117025000Y-106480864D01*
X121475000Y-107530864D02*
X121475000Y-99480864D01*
X118525000Y-91430864D02*
X121475000Y-91430864D01*
X118525000Y-107530864D02*
X121475000Y-107530864D01*
X117025000Y-104980864D02*
X117025000Y-93980864D01*
X122235000Y-108290864D02*
X122235000Y-90670864D01*
X117025000Y-106480864D02*
X116275000Y-106480864D01*
X116265000Y-108290864D02*
X122235000Y-108290864D01*
X116265000Y-90670864D02*
X116265000Y-108290864D01*
X115975000Y-108580864D02*
X117225000Y-108580864D01*
X118525000Y-108280864D02*
X118525000Y-107530864D01*
X116275000Y-93980864D02*
X116275000Y-104980864D01*
X116275000Y-108280864D02*
X117025000Y-108280864D01*
X115975000Y-107330864D02*
X115975000Y-108580864D01*
X116275000Y-92480864D02*
X117025000Y-92480864D01*
X116275000Y-90680864D02*
X116275000Y-92480864D01*
X118525000Y-90680864D02*
X118525000Y-91430864D01*
X117025000Y-90680864D02*
X116275000Y-90680864D01*
X117025000Y-93980864D02*
X116275000Y-93980864D01*
X116275000Y-106480864D02*
X116275000Y-108280864D01*
%TO.C,TP1*%
X79690000Y-125000000D02*
G75*
G03*
X79690000Y-125000000I-950000J0D01*
G01*
%TO.C,R4*%
X90002500Y-125308606D02*
X90002500Y-125783122D01*
X88957500Y-125308606D02*
X88957500Y-125783122D01*
%TO.C,J8*%
X76648000Y-95444000D02*
X77978000Y-95444000D01*
X76648000Y-98044000D02*
X76648000Y-100644000D01*
X76648000Y-98044000D02*
X79308000Y-98044000D01*
X79308000Y-98044000D02*
X79308000Y-100644000D01*
X76648000Y-96774000D02*
X76648000Y-95444000D01*
X76648000Y-100644000D02*
X79308000Y-100644000D01*
%TO.C,R26*%
X75987258Y-105958364D02*
X75512742Y-105958364D01*
X75987258Y-107003364D02*
X75512742Y-107003364D01*
%TO.C,R25*%
X86942742Y-117388364D02*
X87417258Y-117388364D01*
X86942742Y-118433364D02*
X87417258Y-118433364D01*
%TO.C,R24*%
X79259742Y-115385364D02*
X79734258Y-115385364D01*
X79259742Y-114340364D02*
X79734258Y-114340364D01*
%TO.C,R10*%
X72462500Y-106718122D02*
X72462500Y-106243606D01*
X71417500Y-106718122D02*
X71417500Y-106243606D01*
%TO.C,R9*%
X77687742Y-94603364D02*
X78162258Y-94603364D01*
X77687742Y-93558364D02*
X78162258Y-93558364D01*
%TO.C,TP4*%
X77150000Y-125000000D02*
G75*
G03*
X77150000Y-125000000I-950000J0D01*
G01*
%TO.C,C21*%
X117451600Y-68795020D02*
X117451600Y-69076180D01*
X116431600Y-68795020D02*
X116431600Y-69076180D01*
%TO.C,G1*%
G36*
X120303802Y-88953536D02*
G01*
X120303579Y-89130297D01*
X120302459Y-89266542D01*
X120299764Y-89370043D01*
X120294818Y-89448573D01*
X120286944Y-89509904D01*
X120275465Y-89561809D01*
X120259703Y-89612060D01*
X120242300Y-89659632D01*
X120201795Y-89752598D01*
X120155883Y-89836275D01*
X120116551Y-89890087D01*
X120020806Y-89964772D01*
X119897348Y-90026343D01*
X119766536Y-90066240D01*
X119672439Y-90076806D01*
X119556918Y-90059506D01*
X119429640Y-90013300D01*
X119309333Y-89946732D01*
X119214728Y-89868343D01*
X119214247Y-89867823D01*
X119167206Y-89797227D01*
X119120810Y-89694617D01*
X119080723Y-89576005D01*
X119052608Y-89457404D01*
X119043156Y-89384051D01*
X119036216Y-89282835D01*
X118399047Y-89667748D01*
X118240387Y-89763175D01*
X118094717Y-89849985D01*
X117967238Y-89925144D01*
X117863150Y-89985614D01*
X117787655Y-90028360D01*
X117745951Y-90050346D01*
X117739685Y-90052662D01*
X117726881Y-90049295D01*
X117731126Y-90037737D01*
X117755695Y-90015802D01*
X117803868Y-89981303D01*
X117878922Y-89932052D01*
X117984135Y-89865864D01*
X118122783Y-89780552D01*
X118298145Y-89673929D01*
X118397250Y-89613978D01*
X119049428Y-89219920D01*
X119045071Y-88965061D01*
X119096578Y-88965061D01*
X119096876Y-89140708D01*
X119098209Y-89275979D01*
X119101235Y-89378788D01*
X119106613Y-89457047D01*
X119115002Y-89518669D01*
X119127059Y-89571566D01*
X119143443Y-89623650D01*
X119153808Y-89652810D01*
X119198948Y-89759348D01*
X119251707Y-89837439D01*
X119324623Y-89900932D01*
X119430232Y-89963674D01*
X119439834Y-89968743D01*
X119587315Y-90020661D01*
X119737871Y-90024974D01*
X119886462Y-89981679D01*
X119912257Y-89969015D01*
X120017218Y-89909483D01*
X120088976Y-89853291D01*
X120139667Y-89787162D01*
X120181427Y-89697817D01*
X120196313Y-89658235D01*
X120215798Y-89602095D01*
X120230471Y-89550239D01*
X120241011Y-89494710D01*
X120248097Y-89427552D01*
X120252408Y-89340809D01*
X120254626Y-89226523D01*
X120255428Y-89076738D01*
X120255513Y-88965061D01*
X120255513Y-88434981D01*
X119096578Y-88434981D01*
X119096578Y-88965061D01*
X119045071Y-88965061D01*
X119042822Y-88833487D01*
X119036216Y-88447053D01*
X118372243Y-88434396D01*
X118239513Y-88431706D01*
X118142257Y-88429332D01*
X118081787Y-88427236D01*
X118059419Y-88425381D01*
X118076466Y-88423730D01*
X118134242Y-88422243D01*
X118234062Y-88420885D01*
X118377240Y-88419617D01*
X118565090Y-88418402D01*
X118798925Y-88417203D01*
X119006036Y-88416287D01*
X119096578Y-88415907D01*
X120303802Y-88410836D01*
X120303802Y-88953536D01*
G37*
G36*
X119772923Y-72505371D02*
G01*
X119958251Y-72506705D01*
X120115130Y-72508636D01*
X120239132Y-72511116D01*
X120325825Y-72514098D01*
X120370782Y-72517533D01*
X120376235Y-72519324D01*
X120356403Y-72535428D01*
X120299251Y-72575017D01*
X120208296Y-72635802D01*
X120087053Y-72715496D01*
X119939040Y-72811810D01*
X119767772Y-72922457D01*
X119576767Y-73045149D01*
X119369541Y-73177597D01*
X119149610Y-73317515D01*
X119142341Y-73322128D01*
X117908447Y-74105228D01*
X119142341Y-74111484D01*
X119445349Y-74113484D01*
X119708011Y-74116192D01*
X119929086Y-74119577D01*
X120107328Y-74123609D01*
X120241496Y-74128257D01*
X120330345Y-74133491D01*
X120372632Y-74139281D01*
X120376235Y-74141664D01*
X120352265Y-74147498D01*
X120281040Y-74152553D01*
X120163587Y-74156811D01*
X120000935Y-74160252D01*
X119794110Y-74162858D01*
X119544142Y-74164609D01*
X119252057Y-74165485D01*
X119096578Y-74165589D01*
X118804087Y-74165367D01*
X118556700Y-74164649D01*
X118351234Y-74163361D01*
X118184507Y-74161428D01*
X118053334Y-74158775D01*
X117954533Y-74155326D01*
X117884920Y-74151006D01*
X117841314Y-74145740D01*
X117820530Y-74139454D01*
X117817674Y-74135409D01*
X117837668Y-74117406D01*
X117895009Y-74076057D01*
X117986146Y-74013698D01*
X118107530Y-73932662D01*
X118255613Y-73835283D01*
X118426846Y-73723896D01*
X118617679Y-73600835D01*
X118824563Y-73468435D01*
X119036970Y-73333450D01*
X119255898Y-73194484D01*
X119462206Y-73062938D01*
X119652350Y-72941110D01*
X119822792Y-72831296D01*
X119969988Y-72735795D01*
X120090399Y-72656902D01*
X120180481Y-72596917D01*
X120236695Y-72558136D01*
X120255513Y-72542939D01*
X120232125Y-72539175D01*
X120164985Y-72535412D01*
X120058632Y-72531745D01*
X119917602Y-72528267D01*
X119746433Y-72525070D01*
X119549663Y-72522249D01*
X119331830Y-72519897D01*
X119097469Y-72518107D01*
X119030180Y-72517723D01*
X117804848Y-72511240D01*
X119090542Y-72505430D01*
X119334638Y-72504685D01*
X119563575Y-72504682D01*
X119772923Y-72505371D01*
G37*
G36*
X116281133Y-78479974D02*
G01*
X116339508Y-78535406D01*
X116428802Y-78620677D01*
X116545178Y-78732102D01*
X116684799Y-78865997D01*
X116843828Y-79018678D01*
X117018427Y-79186461D01*
X117204759Y-79365662D01*
X117398986Y-79552597D01*
X117584103Y-79730894D01*
X118661641Y-80769106D01*
X118065872Y-80775574D01*
X117900816Y-80776636D01*
X117751892Y-80776202D01*
X117625864Y-80774404D01*
X117529495Y-80771377D01*
X117469549Y-80767252D01*
X117452546Y-80763502D01*
X117437916Y-80739579D01*
X117401957Y-80677203D01*
X117346785Y-80580138D01*
X117274516Y-80452145D01*
X117187266Y-80296987D01*
X117087152Y-80118427D01*
X116976290Y-79920227D01*
X116856796Y-79706150D01*
X116745346Y-79506115D01*
X116055702Y-78267268D01*
X116281133Y-78479974D01*
G37*
G36*
X120303802Y-84994392D02*
G01*
X120303044Y-85228750D01*
X120300800Y-85421987D01*
X120297119Y-85572611D01*
X120292048Y-85679128D01*
X120285634Y-85740044D01*
X120279658Y-85754943D01*
X120272169Y-85731061D01*
X120266004Y-85660435D01*
X120261212Y-85544592D01*
X120257842Y-85385060D01*
X120255942Y-85183365D01*
X120255513Y-85006464D01*
X120255513Y-84257985D01*
X119096578Y-84257985D01*
X119096578Y-84716730D01*
X119095370Y-84882833D01*
X119091887Y-85015552D01*
X119086336Y-85110838D01*
X119078926Y-85164645D01*
X119072966Y-85175475D01*
X119064225Y-85152121D01*
X119056456Y-85085209D01*
X119049974Y-84979466D01*
X119045096Y-84839619D01*
X119042785Y-84722766D01*
X119036216Y-84270057D01*
X118390351Y-84263627D01*
X117744486Y-84257196D01*
X117744486Y-85006070D01*
X117743716Y-85238277D01*
X117741439Y-85429459D01*
X117737704Y-85578087D01*
X117732561Y-85682637D01*
X117726057Y-85741581D01*
X117720342Y-85754943D01*
X117712902Y-85731056D01*
X117706767Y-85660389D01*
X117701986Y-85544437D01*
X117698604Y-85384693D01*
X117696670Y-85182651D01*
X117696197Y-84994392D01*
X117696197Y-84233840D01*
X120303802Y-84233840D01*
X120303802Y-84994392D01*
G37*
G36*
X120400380Y-71159601D02*
G01*
X120399622Y-71393959D01*
X120397378Y-71587196D01*
X120393697Y-71737820D01*
X120388626Y-71844337D01*
X120382212Y-71905253D01*
X120376235Y-71920152D01*
X120368698Y-71896277D01*
X120362502Y-71825693D01*
X120357700Y-71709963D01*
X120354341Y-71550650D01*
X120352478Y-71349317D01*
X120352091Y-71183745D01*
X120352091Y-70447338D01*
X119169011Y-70447338D01*
X119169011Y-70894011D01*
X119167735Y-71063000D01*
X119164019Y-71194740D01*
X119158032Y-71286113D01*
X119149943Y-71334001D01*
X119144867Y-71340684D01*
X119135732Y-71317077D01*
X119128611Y-71248334D01*
X119123672Y-71137574D01*
X119121083Y-70987915D01*
X119120722Y-70894011D01*
X119120722Y-70447338D01*
X117841064Y-70447338D01*
X117841064Y-71183745D01*
X117840282Y-71413638D01*
X117837967Y-71602608D01*
X117834173Y-71749093D01*
X117828950Y-71851528D01*
X117822348Y-71908351D01*
X117816920Y-71920152D01*
X117809480Y-71896265D01*
X117803345Y-71825598D01*
X117798564Y-71709646D01*
X117795182Y-71549902D01*
X117793248Y-71347860D01*
X117792775Y-71159601D01*
X117792775Y-70399049D01*
X120400380Y-70399049D01*
X120400380Y-71159601D01*
G37*
G36*
X119292148Y-81795467D02*
G01*
X119539220Y-81796176D01*
X119744426Y-81797450D01*
X119910978Y-81799367D01*
X120042086Y-81802001D01*
X120140962Y-81805430D01*
X120210816Y-81809729D01*
X120254860Y-81814975D01*
X120276303Y-81821243D01*
X120279658Y-81825594D01*
X120259805Y-81843601D01*
X120202591Y-81884996D01*
X120111535Y-81947462D01*
X119990153Y-82028681D01*
X119841964Y-82126336D01*
X119670484Y-82238109D01*
X119479232Y-82361683D01*
X119271726Y-82494740D01*
X119051482Y-82634963D01*
X119042800Y-82640471D01*
X117805943Y-83425000D01*
X119042800Y-83431255D01*
X119346226Y-83433253D01*
X119609295Y-83435956D01*
X119830768Y-83439336D01*
X120009404Y-83443360D01*
X120143964Y-83448000D01*
X120233208Y-83453225D01*
X120275895Y-83459004D01*
X120279658Y-83461436D01*
X120255687Y-83467270D01*
X120184462Y-83472325D01*
X120067009Y-83476583D01*
X119904357Y-83480024D01*
X119697532Y-83482630D01*
X119447564Y-83484380D01*
X119155479Y-83485257D01*
X119000000Y-83485361D01*
X118707450Y-83485138D01*
X118460005Y-83484419D01*
X118254481Y-83483130D01*
X118087695Y-83481194D01*
X117956464Y-83478537D01*
X117857606Y-83475083D01*
X117787937Y-83470759D01*
X117744274Y-83465488D01*
X117723435Y-83459195D01*
X117720548Y-83455181D01*
X117740437Y-83437203D01*
X117797684Y-83395832D01*
X117888771Y-83333385D01*
X118010179Y-83252180D01*
X118158391Y-83154534D01*
X118329889Y-83042763D01*
X118521155Y-82919186D01*
X118728671Y-82786119D01*
X118948919Y-82645879D01*
X118957706Y-82640304D01*
X120194658Y-81855608D01*
X118957500Y-81849353D01*
X118654032Y-81847356D01*
X118390922Y-81844653D01*
X118169409Y-81841274D01*
X117990732Y-81837250D01*
X117856133Y-81832611D01*
X117766849Y-81827387D01*
X117724120Y-81821609D01*
X117720342Y-81819172D01*
X117744312Y-81813339D01*
X117815538Y-81808283D01*
X117932990Y-81804025D01*
X118095643Y-81800584D01*
X118302467Y-81797978D01*
X118552436Y-81796228D01*
X118844520Y-81795352D01*
X119000000Y-81795247D01*
X119292148Y-81795467D01*
G37*
G36*
X119033004Y-75137231D02*
G01*
X120604098Y-75143441D01*
X121383251Y-76531749D01*
X121526460Y-76787823D01*
X121659225Y-77027006D01*
X121779884Y-77246208D01*
X121886776Y-77442339D01*
X121978241Y-77612311D01*
X122052617Y-77753034D01*
X122108244Y-77861419D01*
X122143460Y-77934376D01*
X122156604Y-77968817D01*
X122156630Y-77970133D01*
X122144094Y-77999376D01*
X122109840Y-78067044D01*
X122055854Y-78169490D01*
X121984120Y-78303068D01*
X121896623Y-78464129D01*
X121795347Y-78649029D01*
X121682278Y-78854118D01*
X121559398Y-79075752D01*
X121428694Y-79310282D01*
X121378232Y-79400520D01*
X120605608Y-80780829D01*
X119386312Y-80781179D01*
X119387268Y-79030703D01*
X119560837Y-78949130D01*
X119755455Y-78832755D01*
X119916560Y-78685315D01*
X120042358Y-78512153D01*
X120131059Y-78318611D01*
X120180870Y-78110032D01*
X120189998Y-77891759D01*
X120156652Y-77669134D01*
X120079040Y-77447502D01*
X120070584Y-77429383D01*
X119973752Y-77266784D01*
X119847237Y-77114836D01*
X119703651Y-76987076D01*
X119590914Y-76914511D01*
X119379436Y-76828412D01*
X119152456Y-76783420D01*
X118918931Y-76779002D01*
X118687814Y-76814626D01*
X118468063Y-76889762D01*
X118285542Y-76992005D01*
X118130185Y-77125254D01*
X117994991Y-77292908D01*
X117888321Y-77482544D01*
X117818533Y-77681744D01*
X117817000Y-77688146D01*
X117797404Y-77852261D01*
X117806775Y-78036434D01*
X117842140Y-78224499D01*
X117900529Y-78400295D01*
X117973470Y-78539485D01*
X118073644Y-78666878D01*
X118200291Y-78792927D01*
X118336783Y-78902426D01*
X118441829Y-78967855D01*
X118595920Y-79049006D01*
X118283008Y-79345760D01*
X118175711Y-79447048D01*
X118074897Y-79541359D01*
X117988090Y-79621716D01*
X117922819Y-79681144D01*
X117891717Y-79708465D01*
X117813338Y-79774416D01*
X117640082Y-79605819D01*
X117584640Y-79552354D01*
X117498890Y-79470297D01*
X117387626Y-79364207D01*
X117255648Y-79238649D01*
X117107753Y-79098185D01*
X116948737Y-78947377D01*
X116783398Y-78790787D01*
X116718346Y-78729236D01*
X116558283Y-78577819D01*
X116408067Y-78435689D01*
X116271554Y-78306497D01*
X116152601Y-78193894D01*
X116055063Y-78101530D01*
X115982797Y-78033058D01*
X115939661Y-77992127D01*
X115929800Y-77982726D01*
X115916794Y-77965947D01*
X115913126Y-77943621D01*
X115921437Y-77909319D01*
X115944366Y-77856608D01*
X115984554Y-77779060D01*
X116044639Y-77670243D01*
X116094296Y-77582034D01*
X116148443Y-77485855D01*
X116222651Y-77353573D01*
X116313511Y-77191288D01*
X116417615Y-77005097D01*
X116531554Y-76801101D01*
X116651920Y-76585398D01*
X116775304Y-76364088D01*
X116880384Y-76175444D01*
X117461910Y-75131022D01*
X119033004Y-75137231D01*
G37*
G36*
X120303802Y-87070817D02*
G01*
X120303044Y-87305175D01*
X120300800Y-87498413D01*
X120297119Y-87649037D01*
X120292048Y-87755554D01*
X120285634Y-87816469D01*
X120279658Y-87831369D01*
X120272120Y-87807493D01*
X120265924Y-87736909D01*
X120261122Y-87621179D01*
X120257763Y-87461866D01*
X120255900Y-87260533D01*
X120255513Y-87094962D01*
X120255513Y-86358555D01*
X119096578Y-86358555D01*
X119096578Y-86805228D01*
X119095302Y-86974217D01*
X119091586Y-87105957D01*
X119085599Y-87197330D01*
X119077509Y-87245218D01*
X119072433Y-87251901D01*
X119063299Y-87228294D01*
X119056178Y-87159551D01*
X119051239Y-87048791D01*
X119048650Y-86899131D01*
X119048289Y-86805228D01*
X119048289Y-86358555D01*
X117744486Y-86358555D01*
X117744486Y-87094962D01*
X117743704Y-87324855D01*
X117741389Y-87513825D01*
X117737595Y-87660309D01*
X117732372Y-87762745D01*
X117725771Y-87819568D01*
X117720342Y-87831369D01*
X117712902Y-87807481D01*
X117706767Y-87736815D01*
X117701986Y-87620863D01*
X117698604Y-87461119D01*
X117696670Y-87259076D01*
X117696197Y-87070817D01*
X117696197Y-86310266D01*
X120303802Y-86310266D01*
X120303802Y-87070817D01*
G37*
G36*
X119024144Y-81264068D02*
G01*
X118686121Y-81264068D01*
X118686121Y-80623636D01*
X118323954Y-80262072D01*
X118216763Y-80154436D01*
X118122304Y-80058391D01*
X118045550Y-79979094D01*
X117991477Y-79921701D01*
X117965057Y-79891368D01*
X117963257Y-79888135D01*
X117980505Y-79868673D01*
X118027892Y-79821283D01*
X118100245Y-79750975D01*
X118192393Y-79662758D01*
X118299163Y-79561644D01*
X118337400Y-79525665D01*
X118710072Y-79175570D01*
X118699825Y-78553850D01*
X118689578Y-77932129D01*
X119024144Y-77932129D01*
X119024144Y-81264068D01*
G37*
%TO.C,C17*%
X69540580Y-109530864D02*
X69259420Y-109530864D01*
X69540580Y-108510864D02*
X69259420Y-108510864D01*
%TO.C,C12*%
X82610000Y-104081444D02*
X82610000Y-103800284D01*
X81590000Y-104081444D02*
X81590000Y-103800284D01*
%TO.C,C2*%
X101325000Y-123889612D02*
X101325000Y-124412116D01*
X102795000Y-123889612D02*
X102795000Y-124412116D01*
%TO.C,R18*%
X85852742Y-65503364D02*
X86327258Y-65503364D01*
X85852742Y-64458364D02*
X86327258Y-64458364D01*
%TO.C,U4*%
X81465000Y-115985864D02*
X83415000Y-115985864D01*
X81465000Y-121105864D02*
X83415000Y-121105864D01*
X81465000Y-115985864D02*
X78015000Y-115985864D01*
X81465000Y-121105864D02*
X79515000Y-121105864D01*
%TO.C,R6*%
X75532258Y-72503364D02*
X75057742Y-72503364D01*
X75532258Y-71458364D02*
X75057742Y-71458364D01*
%TO.C,C16*%
X81150580Y-76180864D02*
X80869420Y-76180864D01*
X81150580Y-77200864D02*
X80869420Y-77200864D01*
%TO.C,R20*%
X85852742Y-82003364D02*
X86327258Y-82003364D01*
X85852742Y-80958364D02*
X86327258Y-80958364D01*
%TO.C,TP3*%
X82230000Y-125000000D02*
G75*
G03*
X82230000Y-125000000I-950000J0D01*
G01*
%TO.C,R15*%
X86012742Y-68958364D02*
X86487258Y-68958364D01*
X86012742Y-70003364D02*
X86487258Y-70003364D01*
%TO.C,C19*%
X69540580Y-113340864D02*
X69259420Y-113340864D01*
X69540580Y-112320864D02*
X69259420Y-112320864D01*
%TO.C,R8*%
X83662258Y-86458364D02*
X83187742Y-86458364D01*
X83662258Y-87503364D02*
X83187742Y-87503364D01*
%TO.C,TP2*%
X84770000Y-125000000D02*
G75*
G03*
X84770000Y-125000000I-950000J0D01*
G01*
%TO.C,R5*%
X75532258Y-68003364D02*
X75057742Y-68003364D01*
X75532258Y-66958364D02*
X75057742Y-66958364D01*
%TO.C,U6*%
X112150000Y-87380864D02*
X112150000Y-87780864D01*
X91150000Y-72180864D02*
X91150000Y-72580864D01*
X91150000Y-82280864D02*
X91150000Y-82680864D01*
X91150000Y-57147864D02*
X94157000Y-57147864D01*
X94157000Y-57147864D02*
X94157000Y-54480864D01*
X91150000Y-102680864D02*
X91150000Y-103080864D01*
X91150000Y-61980864D02*
X91150000Y-62380864D01*
X112150000Y-74680864D02*
X112150000Y-75080864D01*
X91150000Y-79780864D02*
X91150000Y-80180864D01*
X97950000Y-105480864D02*
X91150000Y-105480864D01*
X112150000Y-105480864D02*
X105350000Y-105480864D01*
X91150000Y-100080864D02*
X91150000Y-100480864D01*
X91150000Y-87380864D02*
X91150000Y-87780864D01*
X91150000Y-84880864D02*
X91150000Y-85280864D01*
X112150000Y-89980864D02*
X112150000Y-90380864D01*
X112150000Y-67080864D02*
X112150000Y-67480864D01*
X112150000Y-84880864D02*
X112150000Y-85280864D01*
X112150000Y-72180864D02*
X112150000Y-72580864D01*
X112150000Y-69580864D02*
X112150000Y-69980864D01*
X91150000Y-54480864D02*
X112150000Y-54480864D01*
X91150000Y-74680864D02*
X91150000Y-75080864D01*
X112150000Y-79780864D02*
X112150000Y-80180864D01*
X102750000Y-105480864D02*
X103150000Y-105480864D01*
X91150000Y-64580864D02*
X91150000Y-64980864D01*
X112150000Y-77280864D02*
X112150000Y-77680864D01*
X112150000Y-82280864D02*
X112150000Y-82680864D01*
X112150000Y-95080864D02*
X112150000Y-95480864D01*
X91150000Y-95080864D02*
X91150000Y-95480864D01*
X91150000Y-77280864D02*
X91150000Y-77680864D01*
X91150000Y-69580864D02*
X91150000Y-69980864D01*
X100150000Y-105480864D02*
X100550000Y-105480864D01*
X112150000Y-92480864D02*
X112150000Y-92880864D01*
X112150000Y-64580864D02*
X112150000Y-64980864D01*
X112150000Y-56880864D02*
X112150000Y-57280864D01*
X112150000Y-61980864D02*
X112150000Y-62380864D01*
X91150000Y-97580864D02*
X91150000Y-97980864D01*
X112150000Y-97580864D02*
X112150000Y-97980864D01*
X91150000Y-54480864D02*
X91150000Y-54780864D01*
X112150000Y-59480864D02*
X112150000Y-59880864D01*
X91150000Y-59480864D02*
X91150000Y-59880864D01*
X112150000Y-102680864D02*
X112150000Y-103080864D01*
X91150000Y-67080864D02*
X91150000Y-67480864D01*
X112150000Y-54480864D02*
X112150000Y-54780864D01*
X91150000Y-89980864D02*
X91150000Y-90380864D01*
X112150000Y-100080864D02*
X112150000Y-100480864D01*
X91150000Y-56880864D02*
X91150000Y-57280864D01*
X91150000Y-92480864D02*
X91150000Y-92880864D01*
%TO.C,C1*%
X99010000Y-124010284D02*
X99010000Y-124291444D01*
X100030000Y-124010284D02*
X100030000Y-124291444D01*
%TO.C,R23*%
X85895500Y-105448122D02*
X85895500Y-104973606D01*
X86940500Y-105448122D02*
X86940500Y-104973606D01*
%TO.C,U3*%
X81465000Y-110945864D02*
X83415000Y-110945864D01*
X81465000Y-105825864D02*
X78015000Y-105825864D01*
X81465000Y-105825864D02*
X83415000Y-105825864D01*
X81465000Y-110945864D02*
X79515000Y-110945864D01*
D10*
%TO.C,U1*%
X92365000Y-121575864D02*
X92365000Y-121775864D01*
X96515000Y-121575864D02*
X96515000Y-121775864D01*
X92365000Y-126725864D02*
X92365000Y-126525864D01*
X92365000Y-121575864D02*
X96515000Y-121575864D01*
X96515000Y-126725864D02*
X96515000Y-126525864D01*
X92365000Y-126725864D02*
X96515000Y-126725864D01*
X92365000Y-121775864D02*
X91065000Y-121775864D01*
D13*
%TO.C,R21*%
X79068742Y-105225364D02*
X79543258Y-105225364D01*
X79068742Y-104180364D02*
X79543258Y-104180364D01*
%TO.C,C3*%
X92534420Y-118560864D02*
X92815580Y-118560864D01*
X92534420Y-119580864D02*
X92815580Y-119580864D01*
%TO.C,C5*%
X112079420Y-124660864D02*
X112360580Y-124660864D01*
X112079420Y-123640864D02*
X112360580Y-123640864D01*
%TO.C,C4*%
X106581252Y-125060864D02*
X105158748Y-125060864D01*
X106581252Y-123240864D02*
X105158748Y-123240864D01*
%TO.C,R12*%
X71417500Y-114338122D02*
X71417500Y-113863606D01*
X72462500Y-114338122D02*
X72462500Y-113863606D01*
%TO.C,C13*%
X83495000Y-114241444D02*
X83495000Y-113960284D01*
X84515000Y-114241444D02*
X84515000Y-113960284D01*
%TO.C,R7*%
X83662258Y-88458364D02*
X83187742Y-88458364D01*
X83662258Y-89503364D02*
X83187742Y-89503364D01*
%TO.C,L1*%
X102420000Y-121620864D02*
X109320000Y-121620864D01*
X102420000Y-116520864D02*
X109320000Y-116520864D01*
%TO.C,R17*%
X85852742Y-84833364D02*
X86327258Y-84833364D01*
X85852742Y-83788364D02*
X86327258Y-83788364D01*
%TO.C,R16*%
X86012742Y-74958364D02*
X86487258Y-74958364D01*
X86012742Y-76003364D02*
X86487258Y-76003364D01*
%TO.C,C15*%
X81150580Y-74660864D02*
X80869420Y-74660864D01*
X81150580Y-73640864D02*
X80869420Y-73640864D01*
%TO.C,C18*%
X69540580Y-117150864D02*
X69259420Y-117150864D01*
X69540580Y-116130864D02*
X69259420Y-116130864D01*
%TO.C,R28*%
X75987258Y-116118364D02*
X75512742Y-116118364D01*
X75987258Y-117163364D02*
X75512742Y-117163364D01*
%TO.C,U5*%
X79105000Y-78385864D02*
X81305000Y-78385864D01*
X79105000Y-78385864D02*
X75505000Y-78385864D01*
X79105000Y-85155864D02*
X81305000Y-85155864D01*
X79105000Y-85155864D02*
X76905000Y-85155864D01*
%TO.C,J6*%
X76962000Y-66100000D02*
X74362000Y-66100000D01*
X79562000Y-63440000D02*
X79562000Y-64770000D01*
X76962000Y-63440000D02*
X76962000Y-66100000D01*
X78232000Y-63440000D02*
X79562000Y-63440000D01*
X76962000Y-63440000D02*
X74362000Y-63440000D01*
X74362000Y-63440000D02*
X74362000Y-66100000D01*
%TO.C,C11*%
X81590000Y-114241444D02*
X81590000Y-113960284D01*
X82610000Y-114241444D02*
X82610000Y-113960284D01*
%TO.C,R29*%
X65887742Y-92958364D02*
X66362258Y-92958364D01*
X65887742Y-94003364D02*
X66362258Y-94003364D01*
%TO.C,D8*%
X101400000Y-120980864D02*
X94900000Y-120980864D01*
X94900000Y-120980864D02*
X94900000Y-109780864D01*
X101400000Y-120980864D02*
X101400000Y-109780864D01*
%TO.C,J7*%
X80324000Y-89921000D02*
X80324000Y-87321000D01*
X80324000Y-89921000D02*
X77664000Y-89921000D01*
X77664000Y-89921000D02*
X77664000Y-87321000D01*
X80324000Y-91191000D02*
X80324000Y-92521000D01*
X80324000Y-92521000D02*
X78994000Y-92521000D01*
X80324000Y-87321000D02*
X77664000Y-87321000D01*
%TO.C,R1*%
X74530258Y-92458364D02*
X74055742Y-92458364D01*
X74530258Y-93503364D02*
X74055742Y-93503364D01*
%TO.C,R14*%
X72462500Y-121958122D02*
X72462500Y-121483606D01*
X71417500Y-121958122D02*
X71417500Y-121483606D01*
%TO.C,C14*%
X83495000Y-104081444D02*
X83495000Y-103800284D01*
X84515000Y-104081444D02*
X84515000Y-103800284D01*
%TO.C,R11*%
X72462500Y-110528122D02*
X72462500Y-110053606D01*
X71417500Y-110528122D02*
X71417500Y-110053606D01*
%TO.C,R13*%
X72462500Y-118148122D02*
X72462500Y-117673606D01*
X71417500Y-118148122D02*
X71417500Y-117673606D01*
%TD*%
M02*
