%TF.GenerationSoftware,KiCad,Pcbnew,(6.0.10)*%
%TF.CreationDate,2023-03-05T19:00:04+01:00*%
%TF.ProjectId,HighPrecPosSens,48696768-5072-4656-9350-6f7353656e73,1*%
%TF.SameCoordinates,Original*%
%TF.FileFunction,Paste,Top*%
%TF.FilePolarity,Positive*%
%FSLAX46Y46*%
G04 Gerber Fmt 4.6, Leading zero omitted, Abs format (unit mm)*
G04 Created by KiCad (PCBNEW (6.0.10)) date 2023-03-05 19:00:04*
%MOMM*%
%LPD*%
G01*
G04 APERTURE LIST*
G04 Aperture macros list*
%AMRoundRect*
0 Rectangle with rounded corners*
0 $1 Rounding radius*
0 $2 $3 $4 $5 $6 $7 $8 $9 X,Y pos of 4 corners*
0 Add a 4 corners polygon primitive as box body*
4,1,4,$2,$3,$4,$5,$6,$7,$8,$9,$2,$3,0*
0 Add four circle primitives for the rounded corners*
1,1,$1+$1,$2,$3*
1,1,$1+$1,$4,$5*
1,1,$1+$1,$6,$7*
1,1,$1+$1,$8,$9*
0 Add four rect primitives between the rounded corners*
20,1,$1+$1,$2,$3,$4,$5,0*
20,1,$1+$1,$4,$5,$6,$7,0*
20,1,$1+$1,$6,$7,$8,$9,0*
20,1,$1+$1,$8,$9,$2,$3,0*%
G04 Aperture macros list end*
%ADD10RoundRect,0.200000X-0.200000X-0.275000X0.200000X-0.275000X0.200000X0.275000X-0.200000X0.275000X0*%
%ADD11RoundRect,0.225000X0.225000X0.250000X-0.225000X0.250000X-0.225000X-0.250000X0.225000X-0.250000X0*%
%ADD12RoundRect,0.200000X0.200000X0.275000X-0.200000X0.275000X-0.200000X-0.275000X0.200000X-0.275000X0*%
%ADD13RoundRect,0.200000X0.275000X-0.200000X0.275000X0.200000X-0.275000X0.200000X-0.275000X-0.200000X0*%
%ADD14RoundRect,0.200000X-0.275000X0.200000X-0.275000X-0.200000X0.275000X-0.200000X0.275000X0.200000X0*%
%ADD15RoundRect,0.225000X-0.250000X0.225000X-0.250000X-0.225000X0.250000X-0.225000X0.250000X0.225000X0*%
%ADD16RoundRect,0.225000X0.250000X-0.225000X0.250000X0.225000X-0.250000X0.225000X-0.250000X-0.225000X0*%
%ADD17RoundRect,0.250000X-0.475000X0.337500X-0.475000X-0.337500X0.475000X-0.337500X0.475000X0.337500X0*%
%ADD18RoundRect,0.150000X-0.825000X-0.150000X0.825000X-0.150000X0.825000X0.150000X-0.825000X0.150000X0*%
%ADD19R,1.910000X0.610000*%
%ADD20R,0.723000X0.930000*%
%ADD21RoundRect,0.225000X-0.225000X-0.250000X0.225000X-0.250000X0.225000X0.250000X-0.225000X0.250000X0*%
%ADD22RoundRect,0.250000X0.412500X0.650000X-0.412500X0.650000X-0.412500X-0.650000X0.412500X-0.650000X0*%
%ADD23R,2.400000X4.200000*%
%ADD24RoundRect,0.100000X-0.637500X-0.100000X0.637500X-0.100000X0.637500X0.100000X-0.637500X0.100000X0*%
%ADD25R,3.300000X4.500000*%
G04 APERTURE END LIST*
D10*
%TO.C,R19*%
X85265000Y-72480864D03*
X86915000Y-72480864D03*
%TD*%
%TO.C,R27*%
X86355000Y-107750864D03*
X88005000Y-107750864D03*
%TD*%
D11*
%TO.C,C20*%
X70175000Y-120450864D03*
X68625000Y-120450864D03*
%TD*%
D10*
%TO.C,R2*%
X87330000Y-121720864D03*
X88980000Y-121720864D03*
%TD*%
D12*
%TO.C,R3*%
X113045000Y-121610864D03*
X111395000Y-121610864D03*
%TD*%
D13*
%TO.C,R22*%
X86418000Y-116195864D03*
X86418000Y-114545864D03*
%TD*%
D14*
%TO.C,R4*%
X89480000Y-124720864D03*
X89480000Y-126370864D03*
%TD*%
D12*
%TO.C,R26*%
X76575000Y-106480864D03*
X74925000Y-106480864D03*
%TD*%
D10*
%TO.C,R25*%
X86355000Y-117910864D03*
X88005000Y-117910864D03*
%TD*%
%TO.C,R24*%
X78672000Y-114862864D03*
X80322000Y-114862864D03*
%TD*%
D13*
%TO.C,R10*%
X71940000Y-107305864D03*
X71940000Y-105655864D03*
%TD*%
D10*
%TO.C,R9*%
X77100000Y-94080864D03*
X78750000Y-94080864D03*
%TD*%
D15*
%TO.C,C21*%
X116941600Y-68160600D03*
X116941600Y-69710600D03*
%TD*%
D11*
%TO.C,C17*%
X70175000Y-109020864D03*
X68625000Y-109020864D03*
%TD*%
D16*
%TO.C,C12*%
X82100000Y-104715864D03*
X82100000Y-103165864D03*
%TD*%
D17*
%TO.C,C2*%
X102060000Y-123113364D03*
X102060000Y-125188364D03*
%TD*%
D10*
%TO.C,R18*%
X85265000Y-64980864D03*
X86915000Y-64980864D03*
%TD*%
D18*
%TO.C,U4*%
X78990000Y-116640864D03*
X78990000Y-117910864D03*
X78990000Y-119180864D03*
X78990000Y-120450864D03*
X83940000Y-120450864D03*
X83940000Y-119180864D03*
X83940000Y-117910864D03*
X83940000Y-116640864D03*
%TD*%
D12*
%TO.C,R6*%
X76120000Y-71980864D03*
X74470000Y-71980864D03*
%TD*%
D11*
%TO.C,C16*%
X81785000Y-76690864D03*
X80235000Y-76690864D03*
%TD*%
D10*
%TO.C,R20*%
X85265000Y-81480864D03*
X86915000Y-81480864D03*
%TD*%
%TO.C,R15*%
X85425000Y-69480864D03*
X87075000Y-69480864D03*
%TD*%
D11*
%TO.C,C19*%
X70175000Y-112830864D03*
X68625000Y-112830864D03*
%TD*%
D12*
%TO.C,R8*%
X84250000Y-86980864D03*
X82600000Y-86980864D03*
%TD*%
%TO.C,R5*%
X76120000Y-67480864D03*
X74470000Y-67480864D03*
%TD*%
D15*
%TO.C,C1*%
X99520000Y-123375864D03*
X99520000Y-124925864D03*
%TD*%
D13*
%TO.C,R23*%
X86418000Y-106035864D03*
X86418000Y-104385864D03*
%TD*%
D18*
%TO.C,U3*%
X78990000Y-106480864D03*
X78990000Y-107750864D03*
X78990000Y-109020864D03*
X78990000Y-110290864D03*
X83940000Y-110290864D03*
X83940000Y-109020864D03*
X83940000Y-107750864D03*
X83940000Y-106480864D03*
%TD*%
D19*
%TO.C,U1*%
X91660000Y-122245864D03*
X91660000Y-123515864D03*
X91660000Y-124785864D03*
X91660000Y-126055864D03*
X97220000Y-126055864D03*
X97220000Y-124785864D03*
X97220000Y-123515864D03*
X97220000Y-122245864D03*
D20*
X95042500Y-123375864D03*
X93837500Y-123375864D03*
X95042500Y-124925864D03*
X93837500Y-124925864D03*
%TD*%
D10*
%TO.C,R21*%
X78481000Y-104702864D03*
X80131000Y-104702864D03*
%TD*%
D21*
%TO.C,C3*%
X91900000Y-119070864D03*
X93450000Y-119070864D03*
%TD*%
%TO.C,C5*%
X111445000Y-124150864D03*
X112995000Y-124150864D03*
%TD*%
D22*
%TO.C,C4*%
X107432500Y-124150864D03*
X104307500Y-124150864D03*
%TD*%
D13*
%TO.C,R12*%
X71940000Y-114925864D03*
X71940000Y-113275864D03*
%TD*%
D16*
%TO.C,C13*%
X84005000Y-114875864D03*
X84005000Y-113325864D03*
%TD*%
D12*
%TO.C,R7*%
X84250000Y-88980864D03*
X82600000Y-88980864D03*
%TD*%
D23*
%TO.C,L1*%
X103620000Y-119070864D03*
X108120000Y-119070864D03*
%TD*%
D10*
%TO.C,R17*%
X85265000Y-84310864D03*
X86915000Y-84310864D03*
%TD*%
%TO.C,R16*%
X85425000Y-75480864D03*
X87075000Y-75480864D03*
%TD*%
D11*
%TO.C,C15*%
X81785000Y-74150864D03*
X80235000Y-74150864D03*
%TD*%
%TO.C,C18*%
X70175000Y-116640864D03*
X68625000Y-116640864D03*
%TD*%
D12*
%TO.C,R28*%
X76575000Y-116640864D03*
X74925000Y-116640864D03*
%TD*%
D24*
%TO.C,U5*%
X76242500Y-78845864D03*
X76242500Y-79495864D03*
X76242500Y-80145864D03*
X76242500Y-80795864D03*
X76242500Y-81445864D03*
X76242500Y-82095864D03*
X76242500Y-82745864D03*
X76242500Y-83395864D03*
X76242500Y-84045864D03*
X76242500Y-84695864D03*
X81967500Y-84695864D03*
X81967500Y-84045864D03*
X81967500Y-83395864D03*
X81967500Y-82745864D03*
X81967500Y-82095864D03*
X81967500Y-81445864D03*
X81967500Y-80795864D03*
X81967500Y-80145864D03*
X81967500Y-79495864D03*
X81967500Y-78845864D03*
%TD*%
D16*
%TO.C,C11*%
X82100000Y-114875864D03*
X82100000Y-113325864D03*
%TD*%
D10*
%TO.C,R29*%
X65300000Y-93480864D03*
X66950000Y-93480864D03*
%TD*%
D25*
%TO.C,D8*%
X98150000Y-118580864D03*
X98150000Y-109780864D03*
%TD*%
D12*
%TO.C,R1*%
X75118000Y-92980864D03*
X73468000Y-92980864D03*
%TD*%
D13*
%TO.C,R14*%
X71940000Y-122545864D03*
X71940000Y-120895864D03*
%TD*%
D16*
%TO.C,C14*%
X84005000Y-104715864D03*
X84005000Y-103165864D03*
%TD*%
D13*
%TO.C,R11*%
X71940000Y-111115864D03*
X71940000Y-109465864D03*
%TD*%
%TO.C,R13*%
X71940000Y-118735864D03*
X71940000Y-117085864D03*
%TD*%
M02*
