M48
; DRILL file {KiCad (6.0.10)} date Sun Mar  5 19:00:10 2023
; FORMAT={-:-/ absolute / inch / decimal}
; #@! TF.CreationDate,2023-03-05T19:00:10+01:00
; #@! TF.GenerationSoftware,Kicad,Pcbnew,(6.0.10)
; #@! TF.FileFunction,Plated,1,2,PTH
FMAT,2
INCH
; #@! TA.AperFunction,Plated,PTH,ViaDrill
T1C0.0157
; #@! TA.AperFunction,Plated,PTH,ViaDrill
T2C0.0197
; #@! TA.AperFunction,Plated,PTH,ComponentDrill
T3C0.0276
; #@! TA.AperFunction,Plated,PTH,ComponentDrill
T4C0.0374
; #@! TA.AperFunction,Plated,PTH,ComponentDrill
T5C0.0394
; #@! TA.AperFunction,Plated,PTH,ComponentDrill
T6C0.0402
; #@! TA.AperFunction,Plated,PTH,ComponentDrill
T7C0.1260
%
G90
G05
T1
X2.628Y-3.6016
X2.687Y-3.0504
X2.687Y-3.5032
X2.706Y-2.8139
X2.7461Y-3.7
X2.8445Y-2.8595
X2.8839Y-3.5819
X2.9528Y-4.1437
X2.96Y-4.54
X3.0707Y-3.1944
X3.0723Y-3.1305
X3.0974Y-3.1609
X3.1329Y-3.2262
X3.2061Y-4.3176
X3.2087Y-4.7138
X3.2189Y-3.7014
X3.435Y-4.2118
X3.4646Y-4.5859
X3.5433Y-4.7532
T2
X2.5118Y-2.8894
X2.5157Y-2.4209
X2.5906Y-3.8146
X2.5984Y-2.5272
X2.6083Y-2.8142
X2.6083Y-4.704
X2.622Y-4.1807
X2.6476Y-4.2906
X2.6476Y-4.4481
X2.6476Y-4.5859
X2.7047Y-3.3107
X2.7677Y-5.0351
X2.811Y-2.1847
X2.8189Y-3.0823
X2.8323Y-4.854
X2.8346Y-3.3343
X2.8346Y-3.5705
X2.8937Y-4.9311
X2.9331Y-3.8477
X2.9499Y-2.7876
X2.952Y-4.464
X2.9606Y-4.728
X2.962Y-4.284
X2.9626Y-3.7591
X2.9644Y-2.8748
X2.996Y-4.406
X3.0039Y-3.98
X3.0118Y-3.3661
X3.0217Y-3.641
X3.028Y-4.142
X3.0512Y-2.6863
X3.0608Y-3.0888
X3.1004Y-4.7827
X3.1134Y-2.9193
X3.1494Y-4.3965
X3.1589Y-2.9717
X3.1693Y-3.1292
X3.1693Y-4.4587
X3.1802Y-4.0544
X3.2362Y-2.7359
X3.252Y-3.7792
X3.2551Y-2.8036
X3.2559Y-2.5902
X3.2656Y-3.5587
X3.3268Y-3.6256
X3.3307Y-2.6847
X3.3502Y-4.4616
X3.3563Y-4.0544
X3.3583Y-3.9918
X3.3622Y-4.8382
X3.378Y-3.9052
X3.3858Y-3.0351
X3.3898Y-3.1492
X3.4134Y-4.9563
X3.4409Y-3.5115
X3.4528Y-2.1847
X3.4567Y-3.7555
X3.5079Y-2.4052
X3.5079Y-2.9012
X3.5081Y-4.1176
X3.5118Y-2.5295
X3.652Y-4.57
X3.6909Y-4.8024
X3.6909Y-4.9756
X3.7244Y-2.4052
X3.7323Y-2.8815
X3.75Y-2.5689
X3.75Y-4.8024
X3.7507Y-4.9756
X3.7598Y-2.1807
X3.7638Y-3.0587
X3.7638Y-3.4366
X3.7697Y-4.33
X3.8268Y-3.791
X3.8287Y-4.2118
X3.8681Y-4.4481
X3.937Y-5.0036
X3.9613Y-4.847
X3.97Y-4.812
X3.9862Y-4.33
X4.0866Y-3.0941
X4.0984Y-5.0036
X4.1102Y-4.9485
X4.1772Y-3.7004
X4.2126Y-3.9996
X4.2205Y-2.1965
X4.2205Y-2.5311
X4.2402Y-4.4563
X4.2559Y-2.4091
X4.2559Y-2.8461
X4.3228Y-4.9839
X4.4055Y-5.0351
X4.4449Y-4.3185
X4.4724Y-4.5115
X4.4882Y-3.8976
X4.498Y-2.8839
X4.498Y-3.3957
X4.5236Y-2.4327
X4.5268Y-4.684
X4.6181Y-4.6217
X4.6614Y-4.3225
X4.689Y-2.6729
T3
X3.0Y-4.9213
X3.1Y-4.9213
X3.2Y-4.9213
X3.3Y-4.9213
T4
X4.6742Y-3.6705
X4.6742Y-3.7689
X4.6742Y-3.8674
X4.6742Y-3.9658
X4.6742Y-4.0642
X4.6742Y-4.1626
T5
X2.7317Y-2.4599
X2.7317Y-2.6174
X2.7319Y-3.8705
X2.7319Y-4.028
X2.8317Y-2.4599
X2.8317Y-2.6174
X2.8319Y-3.8705
X2.8319Y-4.028
X2.98Y-2.55
X3.07Y-3.81
X3.07Y-3.91
X3.08Y-2.55
X3.11Y-3.4902
X3.11Y-3.5902
T6
X3.652Y-2.1989
X3.652Y-2.2989
X3.652Y-2.3989
X3.652Y-2.4989
X3.652Y-2.5989
X3.652Y-2.6989
X3.652Y-2.7989
X3.652Y-2.8989
X3.652Y-2.9989
X3.652Y-3.0989
X3.652Y-3.1989
X3.652Y-3.2989
X3.652Y-3.3989
X3.652Y-3.4989
X3.652Y-3.5989
X3.652Y-3.6989
X3.652Y-3.7989
X3.652Y-3.8989
X3.652Y-3.9989
X3.652Y-4.0989
X3.902Y-4.0898
X4.002Y-4.0898
X4.102Y-4.0898
X4.352Y-2.1989
X4.352Y-2.2989
X4.352Y-2.3989
X4.352Y-2.4989
X4.352Y-2.5989
X4.352Y-2.6989
X4.352Y-2.7989
X4.352Y-2.8989
X4.352Y-2.9989
X4.352Y-3.0989
X4.352Y-3.1989
X4.352Y-3.2989
X4.352Y-3.3989
X4.352Y-3.4989
X4.352Y-3.5989
X4.352Y-3.6989
X4.352Y-3.7989
X4.352Y-3.8989
X4.352Y-3.9989
X4.352Y-4.0989
T7
X2.628Y-2.2827
X2.628Y-4.9205
X4.6752Y-2.2827
X4.6752Y-4.9205
T0
M30
