%TF.GenerationSoftware,KiCad,Pcbnew,(6.0.10)*%
%TF.CreationDate,2023-03-05T19:00:13+01:00*%
%TF.ProjectId,HighPrecPosSens,48696768-5072-4656-9350-6f7353656e73,1*%
%TF.SameCoordinates,Original*%
%TF.FileFunction,Drillmap*%
%TF.FilePolarity,Positive*%
%FSLAX45Y45*%
G04 Gerber Fmt 4.5, Leading zero omitted, Abs format (unit mm)*
G04 Created by KiCad (PCBNEW (6.0.10)) date 2023-03-05 19:00:13*
%MOMM*%
%LPD*%
G01*
G04 APERTURE LIST*
%ADD10C,0.100000*%
%ADD11C,0.200000*%
%ADD12C,0.150000*%
%ADD13C,0.180000*%
G04 APERTURE END LIST*
D10*
X6275000Y-5398086D02*
X12275000Y-5398086D01*
X12275000Y-5398086D02*
X12275000Y-12898086D01*
X12275000Y-12898086D02*
X6275000Y-12898086D01*
X6275000Y-12898086D02*
X6275000Y-5398086D01*
D11*
D12*
X9847500Y-5826086D02*
X9997500Y-5976086D01*
X9997500Y-5826086D02*
X9847500Y-5976086D01*
X10332500Y-5826086D02*
X10482500Y-5976086D01*
X10482500Y-5826086D02*
X10332500Y-5976086D01*
D13*
X9982500Y-5598086D02*
G75*
G03*
X9982500Y-5598086I-90000J0D01*
G01*
X10527500Y-5598086D02*
G75*
G03*
X10527500Y-5598086I-90000J0D01*
G01*
D11*
X6527619Y-13213562D02*
X6527619Y-13013562D01*
X6575238Y-13013562D01*
X6603809Y-13023086D01*
X6622857Y-13042134D01*
X6632381Y-13061182D01*
X6641905Y-13099277D01*
X6641905Y-13127848D01*
X6632381Y-13165943D01*
X6622857Y-13184991D01*
X6603809Y-13204039D01*
X6575238Y-13213562D01*
X6527619Y-13213562D01*
X6727619Y-13213562D02*
X6727619Y-13080229D01*
X6727619Y-13118324D02*
X6737143Y-13099277D01*
X6746667Y-13089753D01*
X6765714Y-13080229D01*
X6784762Y-13080229D01*
X6851428Y-13213562D02*
X6851428Y-13080229D01*
X6851428Y-13013562D02*
X6841905Y-13023086D01*
X6851428Y-13032610D01*
X6860952Y-13023086D01*
X6851428Y-13013562D01*
X6851428Y-13032610D01*
X6975238Y-13213562D02*
X6956190Y-13204039D01*
X6946667Y-13184991D01*
X6946667Y-13013562D01*
X7080000Y-13213562D02*
X7060952Y-13204039D01*
X7051428Y-13184991D01*
X7051428Y-13013562D01*
X7308571Y-13213562D02*
X7308571Y-13013562D01*
X7375238Y-13156420D01*
X7441905Y-13013562D01*
X7441905Y-13213562D01*
X7622857Y-13213562D02*
X7622857Y-13108801D01*
X7613333Y-13089753D01*
X7594286Y-13080229D01*
X7556190Y-13080229D01*
X7537143Y-13089753D01*
X7622857Y-13204039D02*
X7603809Y-13213562D01*
X7556190Y-13213562D01*
X7537143Y-13204039D01*
X7527619Y-13184991D01*
X7527619Y-13165943D01*
X7537143Y-13146896D01*
X7556190Y-13137372D01*
X7603809Y-13137372D01*
X7622857Y-13127848D01*
X7718095Y-13080229D02*
X7718095Y-13280229D01*
X7718095Y-13089753D02*
X7737143Y-13080229D01*
X7775238Y-13080229D01*
X7794286Y-13089753D01*
X7803809Y-13099277D01*
X7813333Y-13118324D01*
X7813333Y-13175467D01*
X7803809Y-13194515D01*
X7794286Y-13204039D01*
X7775238Y-13213562D01*
X7737143Y-13213562D01*
X7718095Y-13204039D01*
X7899048Y-13194515D02*
X7908571Y-13204039D01*
X7899048Y-13213562D01*
X7889524Y-13204039D01*
X7899048Y-13194515D01*
X7899048Y-13213562D01*
X7899048Y-13089753D02*
X7908571Y-13099277D01*
X7899048Y-13108801D01*
X7889524Y-13099277D01*
X7899048Y-13089753D01*
X7899048Y-13108801D01*
D12*
X6120000Y-13468086D02*
X6270000Y-13618086D01*
X6270000Y-13468086D02*
X6120000Y-13618086D01*
D11*
X6632381Y-13633562D02*
X6518095Y-13633562D01*
X6575238Y-13633562D02*
X6575238Y-13433562D01*
X6556190Y-13462134D01*
X6537143Y-13481182D01*
X6518095Y-13490705D01*
X6718095Y-13614515D02*
X6727619Y-13624039D01*
X6718095Y-13633562D01*
X6708571Y-13624039D01*
X6718095Y-13614515D01*
X6718095Y-13633562D01*
X6908571Y-13433562D02*
X6813333Y-13433562D01*
X6803809Y-13528801D01*
X6813333Y-13519277D01*
X6832381Y-13509753D01*
X6880000Y-13509753D01*
X6899048Y-13519277D01*
X6908571Y-13528801D01*
X6918095Y-13547848D01*
X6918095Y-13595467D01*
X6908571Y-13614515D01*
X6899048Y-13624039D01*
X6880000Y-13633562D01*
X6832381Y-13633562D01*
X6813333Y-13624039D01*
X6803809Y-13614515D01*
X7041905Y-13433562D02*
X7060952Y-13433562D01*
X7080000Y-13443086D01*
X7089524Y-13452610D01*
X7099048Y-13471658D01*
X7108571Y-13509753D01*
X7108571Y-13557372D01*
X7099048Y-13595467D01*
X7089524Y-13614515D01*
X7080000Y-13624039D01*
X7060952Y-13633562D01*
X7041905Y-13633562D01*
X7022857Y-13624039D01*
X7013333Y-13614515D01*
X7003809Y-13595467D01*
X6994286Y-13557372D01*
X6994286Y-13509753D01*
X7003809Y-13471658D01*
X7013333Y-13452610D01*
X7022857Y-13443086D01*
X7041905Y-13433562D01*
X7232381Y-13433562D02*
X7251428Y-13433562D01*
X7270476Y-13443086D01*
X7280000Y-13452610D01*
X7289524Y-13471658D01*
X7299048Y-13509753D01*
X7299048Y-13557372D01*
X7289524Y-13595467D01*
X7280000Y-13614515D01*
X7270476Y-13624039D01*
X7251428Y-13633562D01*
X7232381Y-13633562D01*
X7213333Y-13624039D01*
X7203809Y-13614515D01*
X7194286Y-13595467D01*
X7184762Y-13557372D01*
X7184762Y-13509753D01*
X7194286Y-13471658D01*
X7203809Y-13452610D01*
X7213333Y-13443086D01*
X7232381Y-13433562D01*
X7384762Y-13633562D02*
X7384762Y-13500229D01*
X7384762Y-13519277D02*
X7394286Y-13509753D01*
X7413333Y-13500229D01*
X7441905Y-13500229D01*
X7460952Y-13509753D01*
X7470476Y-13528801D01*
X7470476Y-13633562D01*
X7470476Y-13528801D02*
X7480000Y-13509753D01*
X7499048Y-13500229D01*
X7527619Y-13500229D01*
X7546667Y-13509753D01*
X7556190Y-13528801D01*
X7556190Y-13633562D01*
X7651428Y-13633562D02*
X7651428Y-13500229D01*
X7651428Y-13519277D02*
X7660952Y-13509753D01*
X7680000Y-13500229D01*
X7708571Y-13500229D01*
X7727619Y-13509753D01*
X7737143Y-13528801D01*
X7737143Y-13633562D01*
X7737143Y-13528801D02*
X7746667Y-13509753D01*
X7765714Y-13500229D01*
X7794286Y-13500229D01*
X7813333Y-13509753D01*
X7822857Y-13528801D01*
X7822857Y-13633562D01*
X8213333Y-13424039D02*
X8041905Y-13681182D01*
X8470476Y-13433562D02*
X8489524Y-13433562D01*
X8508571Y-13443086D01*
X8518095Y-13452610D01*
X8527619Y-13471658D01*
X8537143Y-13509753D01*
X8537143Y-13557372D01*
X8527619Y-13595467D01*
X8518095Y-13614515D01*
X8508571Y-13624039D01*
X8489524Y-13633562D01*
X8470476Y-13633562D01*
X8451429Y-13624039D01*
X8441905Y-13614515D01*
X8432381Y-13595467D01*
X8422857Y-13557372D01*
X8422857Y-13509753D01*
X8432381Y-13471658D01*
X8441905Y-13452610D01*
X8451429Y-13443086D01*
X8470476Y-13433562D01*
X8622857Y-13614515D02*
X8632381Y-13624039D01*
X8622857Y-13633562D01*
X8613333Y-13624039D01*
X8622857Y-13614515D01*
X8622857Y-13633562D01*
X8756190Y-13433562D02*
X8775238Y-13433562D01*
X8794286Y-13443086D01*
X8803810Y-13452610D01*
X8813333Y-13471658D01*
X8822857Y-13509753D01*
X8822857Y-13557372D01*
X8813333Y-13595467D01*
X8803810Y-13614515D01*
X8794286Y-13624039D01*
X8775238Y-13633562D01*
X8756190Y-13633562D01*
X8737143Y-13624039D01*
X8727619Y-13614515D01*
X8718095Y-13595467D01*
X8708571Y-13557372D01*
X8708571Y-13509753D01*
X8718095Y-13471658D01*
X8727619Y-13452610D01*
X8737143Y-13443086D01*
X8756190Y-13433562D01*
X9003810Y-13433562D02*
X8908571Y-13433562D01*
X8899048Y-13528801D01*
X8908571Y-13519277D01*
X8927619Y-13509753D01*
X8975238Y-13509753D01*
X8994286Y-13519277D01*
X9003810Y-13528801D01*
X9013333Y-13547848D01*
X9013333Y-13595467D01*
X9003810Y-13614515D01*
X8994286Y-13624039D01*
X8975238Y-13633562D01*
X8927619Y-13633562D01*
X8908571Y-13624039D01*
X8899048Y-13614515D01*
X9108571Y-13633562D02*
X9146667Y-13633562D01*
X9165714Y-13624039D01*
X9175238Y-13614515D01*
X9194286Y-13585943D01*
X9203810Y-13547848D01*
X9203810Y-13471658D01*
X9194286Y-13452610D01*
X9184762Y-13443086D01*
X9165714Y-13433562D01*
X9127619Y-13433562D01*
X9108571Y-13443086D01*
X9099048Y-13452610D01*
X9089524Y-13471658D01*
X9089524Y-13519277D01*
X9099048Y-13538324D01*
X9108571Y-13547848D01*
X9127619Y-13557372D01*
X9165714Y-13557372D01*
X9184762Y-13547848D01*
X9194286Y-13538324D01*
X9203810Y-13519277D01*
X9394286Y-13633562D02*
X9280000Y-13633562D01*
X9337143Y-13633562D02*
X9337143Y-13433562D01*
X9318095Y-13462134D01*
X9299048Y-13481182D01*
X9280000Y-13490705D01*
X9470476Y-13433562D02*
X9470476Y-13471658D01*
X9546667Y-13433562D02*
X9546667Y-13471658D01*
X9841905Y-13709753D02*
X9832381Y-13700229D01*
X9813333Y-13671658D01*
X9803810Y-13652610D01*
X9794286Y-13624039D01*
X9784762Y-13576420D01*
X9784762Y-13538324D01*
X9794286Y-13490705D01*
X9803810Y-13462134D01*
X9813333Y-13443086D01*
X9832381Y-13414515D01*
X9841905Y-13404991D01*
X9908571Y-13452610D02*
X9918095Y-13443086D01*
X9937143Y-13433562D01*
X9984762Y-13433562D01*
X10003810Y-13443086D01*
X10013333Y-13452610D01*
X10022857Y-13471658D01*
X10022857Y-13490705D01*
X10013333Y-13519277D01*
X9899048Y-13633562D01*
X10022857Y-13633562D01*
X10260952Y-13633562D02*
X10260952Y-13433562D01*
X10346667Y-13633562D02*
X10346667Y-13528801D01*
X10337143Y-13509753D01*
X10318095Y-13500229D01*
X10289524Y-13500229D01*
X10270476Y-13509753D01*
X10260952Y-13519277D01*
X10470476Y-13633562D02*
X10451429Y-13624039D01*
X10441905Y-13614515D01*
X10432381Y-13595467D01*
X10432381Y-13538324D01*
X10441905Y-13519277D01*
X10451429Y-13509753D01*
X10470476Y-13500229D01*
X10499048Y-13500229D01*
X10518095Y-13509753D01*
X10527619Y-13519277D01*
X10537143Y-13538324D01*
X10537143Y-13595467D01*
X10527619Y-13614515D01*
X10518095Y-13624039D01*
X10499048Y-13633562D01*
X10470476Y-13633562D01*
X10651429Y-13633562D02*
X10632381Y-13624039D01*
X10622857Y-13604991D01*
X10622857Y-13433562D01*
X10803810Y-13624039D02*
X10784762Y-13633562D01*
X10746667Y-13633562D01*
X10727619Y-13624039D01*
X10718095Y-13604991D01*
X10718095Y-13528801D01*
X10727619Y-13509753D01*
X10746667Y-13500229D01*
X10784762Y-13500229D01*
X10803810Y-13509753D01*
X10813333Y-13528801D01*
X10813333Y-13547848D01*
X10718095Y-13566896D01*
X10889524Y-13624039D02*
X10908571Y-13633562D01*
X10946667Y-13633562D01*
X10965714Y-13624039D01*
X10975238Y-13604991D01*
X10975238Y-13595467D01*
X10965714Y-13576420D01*
X10946667Y-13566896D01*
X10918095Y-13566896D01*
X10899048Y-13557372D01*
X10889524Y-13538324D01*
X10889524Y-13528801D01*
X10899048Y-13509753D01*
X10918095Y-13500229D01*
X10946667Y-13500229D01*
X10965714Y-13509753D01*
X11041905Y-13709753D02*
X11051429Y-13700229D01*
X11070476Y-13671658D01*
X11080000Y-13652610D01*
X11089524Y-13624039D01*
X11099048Y-13576420D01*
X11099048Y-13538324D01*
X11089524Y-13490705D01*
X11080000Y-13462134D01*
X11070476Y-13443086D01*
X11051429Y-13414515D01*
X11041905Y-13404991D01*
X11403809Y-13709753D02*
X11394286Y-13700229D01*
X11375238Y-13671658D01*
X11365714Y-13652610D01*
X11356190Y-13624039D01*
X11346667Y-13576420D01*
X11346667Y-13538324D01*
X11356190Y-13490705D01*
X11365714Y-13462134D01*
X11375238Y-13443086D01*
X11394286Y-13414515D01*
X11403809Y-13404991D01*
X11480000Y-13500229D02*
X11480000Y-13633562D01*
X11480000Y-13519277D02*
X11489524Y-13509753D01*
X11508571Y-13500229D01*
X11537143Y-13500229D01*
X11556190Y-13509753D01*
X11565714Y-13528801D01*
X11565714Y-13633562D01*
X11689524Y-13633562D02*
X11670476Y-13624039D01*
X11660952Y-13614515D01*
X11651428Y-13595467D01*
X11651428Y-13538324D01*
X11660952Y-13519277D01*
X11670476Y-13509753D01*
X11689524Y-13500229D01*
X11718095Y-13500229D01*
X11737143Y-13509753D01*
X11746667Y-13519277D01*
X11756190Y-13538324D01*
X11756190Y-13595467D01*
X11746667Y-13614515D01*
X11737143Y-13624039D01*
X11718095Y-13633562D01*
X11689524Y-13633562D01*
X11813333Y-13500229D02*
X11889524Y-13500229D01*
X11841905Y-13433562D02*
X11841905Y-13604991D01*
X11851428Y-13624039D01*
X11870476Y-13633562D01*
X11889524Y-13633562D01*
X12108571Y-13500229D02*
X12108571Y-13700229D01*
X12108571Y-13509753D02*
X12127619Y-13500229D01*
X12165714Y-13500229D01*
X12184762Y-13509753D01*
X12194286Y-13519277D01*
X12203809Y-13538324D01*
X12203809Y-13595467D01*
X12194286Y-13614515D01*
X12184762Y-13624039D01*
X12165714Y-13633562D01*
X12127619Y-13633562D01*
X12108571Y-13624039D01*
X12318095Y-13633562D02*
X12299048Y-13624039D01*
X12289524Y-13604991D01*
X12289524Y-13433562D01*
X12480000Y-13633562D02*
X12480000Y-13528801D01*
X12470476Y-13509753D01*
X12451428Y-13500229D01*
X12413333Y-13500229D01*
X12394286Y-13509753D01*
X12480000Y-13624039D02*
X12460952Y-13633562D01*
X12413333Y-13633562D01*
X12394286Y-13624039D01*
X12384762Y-13604991D01*
X12384762Y-13585943D01*
X12394286Y-13566896D01*
X12413333Y-13557372D01*
X12460952Y-13557372D01*
X12480000Y-13547848D01*
X12546667Y-13500229D02*
X12622857Y-13500229D01*
X12575238Y-13433562D02*
X12575238Y-13604991D01*
X12584762Y-13624039D01*
X12603809Y-13633562D01*
X12622857Y-13633562D01*
X12765714Y-13624039D02*
X12746667Y-13633562D01*
X12708571Y-13633562D01*
X12689524Y-13624039D01*
X12680000Y-13604991D01*
X12680000Y-13528801D01*
X12689524Y-13509753D01*
X12708571Y-13500229D01*
X12746667Y-13500229D01*
X12765714Y-13509753D01*
X12775238Y-13528801D01*
X12775238Y-13547848D01*
X12680000Y-13566896D01*
X12946667Y-13633562D02*
X12946667Y-13433562D01*
X12946667Y-13624039D02*
X12927619Y-13633562D01*
X12889524Y-13633562D01*
X12870476Y-13624039D01*
X12860952Y-13614515D01*
X12851428Y-13595467D01*
X12851428Y-13538324D01*
X12860952Y-13519277D01*
X12870476Y-13509753D01*
X12889524Y-13500229D01*
X12927619Y-13500229D01*
X12946667Y-13509753D01*
X13022857Y-13709753D02*
X13032381Y-13700229D01*
X13051428Y-13671658D01*
X13060952Y-13652610D01*
X13070476Y-13624039D01*
X13080000Y-13576420D01*
X13080000Y-13538324D01*
X13070476Y-13490705D01*
X13060952Y-13462134D01*
X13051428Y-13443086D01*
X13032381Y-13414515D01*
X13022857Y-13404991D01*
D13*
X6270000Y-13813086D02*
G75*
G03*
X6270000Y-13813086I-90000J0D01*
G01*
D11*
X6632381Y-13903562D02*
X6518095Y-13903562D01*
X6575238Y-13903562D02*
X6575238Y-13703562D01*
X6556190Y-13732134D01*
X6537143Y-13751182D01*
X6518095Y-13760705D01*
X6718095Y-13884515D02*
X6727619Y-13894039D01*
X6718095Y-13903562D01*
X6708571Y-13894039D01*
X6718095Y-13884515D01*
X6718095Y-13903562D01*
X6841905Y-13789277D02*
X6822857Y-13779753D01*
X6813333Y-13770229D01*
X6803809Y-13751182D01*
X6803809Y-13741658D01*
X6813333Y-13722610D01*
X6822857Y-13713086D01*
X6841905Y-13703562D01*
X6880000Y-13703562D01*
X6899048Y-13713086D01*
X6908571Y-13722610D01*
X6918095Y-13741658D01*
X6918095Y-13751182D01*
X6908571Y-13770229D01*
X6899048Y-13779753D01*
X6880000Y-13789277D01*
X6841905Y-13789277D01*
X6822857Y-13798801D01*
X6813333Y-13808324D01*
X6803809Y-13827372D01*
X6803809Y-13865467D01*
X6813333Y-13884515D01*
X6822857Y-13894039D01*
X6841905Y-13903562D01*
X6880000Y-13903562D01*
X6899048Y-13894039D01*
X6908571Y-13884515D01*
X6918095Y-13865467D01*
X6918095Y-13827372D01*
X6908571Y-13808324D01*
X6899048Y-13798801D01*
X6880000Y-13789277D01*
X7041905Y-13703562D02*
X7060952Y-13703562D01*
X7080000Y-13713086D01*
X7089524Y-13722610D01*
X7099048Y-13741658D01*
X7108571Y-13779753D01*
X7108571Y-13827372D01*
X7099048Y-13865467D01*
X7089524Y-13884515D01*
X7080000Y-13894039D01*
X7060952Y-13903562D01*
X7041905Y-13903562D01*
X7022857Y-13894039D01*
X7013333Y-13884515D01*
X7003809Y-13865467D01*
X6994286Y-13827372D01*
X6994286Y-13779753D01*
X7003809Y-13741658D01*
X7013333Y-13722610D01*
X7022857Y-13713086D01*
X7041905Y-13703562D01*
X7232381Y-13703562D02*
X7251428Y-13703562D01*
X7270476Y-13713086D01*
X7280000Y-13722610D01*
X7289524Y-13741658D01*
X7299048Y-13779753D01*
X7299048Y-13827372D01*
X7289524Y-13865467D01*
X7280000Y-13884515D01*
X7270476Y-13894039D01*
X7251428Y-13903562D01*
X7232381Y-13903562D01*
X7213333Y-13894039D01*
X7203809Y-13884515D01*
X7194286Y-13865467D01*
X7184762Y-13827372D01*
X7184762Y-13779753D01*
X7194286Y-13741658D01*
X7203809Y-13722610D01*
X7213333Y-13713086D01*
X7232381Y-13703562D01*
X7384762Y-13903562D02*
X7384762Y-13770229D01*
X7384762Y-13789277D02*
X7394286Y-13779753D01*
X7413333Y-13770229D01*
X7441905Y-13770229D01*
X7460952Y-13779753D01*
X7470476Y-13798801D01*
X7470476Y-13903562D01*
X7470476Y-13798801D02*
X7480000Y-13779753D01*
X7499048Y-13770229D01*
X7527619Y-13770229D01*
X7546667Y-13779753D01*
X7556190Y-13798801D01*
X7556190Y-13903562D01*
X7651428Y-13903562D02*
X7651428Y-13770229D01*
X7651428Y-13789277D02*
X7660952Y-13779753D01*
X7680000Y-13770229D01*
X7708571Y-13770229D01*
X7727619Y-13779753D01*
X7737143Y-13798801D01*
X7737143Y-13903562D01*
X7737143Y-13798801D02*
X7746667Y-13779753D01*
X7765714Y-13770229D01*
X7794286Y-13770229D01*
X7813333Y-13779753D01*
X7822857Y-13798801D01*
X7822857Y-13903562D01*
X8213333Y-13694039D02*
X8041905Y-13951182D01*
X8470476Y-13703562D02*
X8489524Y-13703562D01*
X8508571Y-13713086D01*
X8518095Y-13722610D01*
X8527619Y-13741658D01*
X8537143Y-13779753D01*
X8537143Y-13827372D01*
X8527619Y-13865467D01*
X8518095Y-13884515D01*
X8508571Y-13894039D01*
X8489524Y-13903562D01*
X8470476Y-13903562D01*
X8451429Y-13894039D01*
X8441905Y-13884515D01*
X8432381Y-13865467D01*
X8422857Y-13827372D01*
X8422857Y-13779753D01*
X8432381Y-13741658D01*
X8441905Y-13722610D01*
X8451429Y-13713086D01*
X8470476Y-13703562D01*
X8622857Y-13884515D02*
X8632381Y-13894039D01*
X8622857Y-13903562D01*
X8613333Y-13894039D01*
X8622857Y-13884515D01*
X8622857Y-13903562D01*
X8756190Y-13703562D02*
X8775238Y-13703562D01*
X8794286Y-13713086D01*
X8803810Y-13722610D01*
X8813333Y-13741658D01*
X8822857Y-13779753D01*
X8822857Y-13827372D01*
X8813333Y-13865467D01*
X8803810Y-13884515D01*
X8794286Y-13894039D01*
X8775238Y-13903562D01*
X8756190Y-13903562D01*
X8737143Y-13894039D01*
X8727619Y-13884515D01*
X8718095Y-13865467D01*
X8708571Y-13827372D01*
X8708571Y-13779753D01*
X8718095Y-13741658D01*
X8727619Y-13722610D01*
X8737143Y-13713086D01*
X8756190Y-13703562D01*
X8889524Y-13703562D02*
X9022857Y-13703562D01*
X8937143Y-13903562D01*
X9137143Y-13703562D02*
X9156190Y-13703562D01*
X9175238Y-13713086D01*
X9184762Y-13722610D01*
X9194286Y-13741658D01*
X9203810Y-13779753D01*
X9203810Y-13827372D01*
X9194286Y-13865467D01*
X9184762Y-13884515D01*
X9175238Y-13894039D01*
X9156190Y-13903562D01*
X9137143Y-13903562D01*
X9118095Y-13894039D01*
X9108571Y-13884515D01*
X9099048Y-13865467D01*
X9089524Y-13827372D01*
X9089524Y-13779753D01*
X9099048Y-13741658D01*
X9108571Y-13722610D01*
X9118095Y-13713086D01*
X9137143Y-13703562D01*
X9299048Y-13903562D02*
X9337143Y-13903562D01*
X9356190Y-13894039D01*
X9365714Y-13884515D01*
X9384762Y-13855943D01*
X9394286Y-13817848D01*
X9394286Y-13741658D01*
X9384762Y-13722610D01*
X9375238Y-13713086D01*
X9356190Y-13703562D01*
X9318095Y-13703562D01*
X9299048Y-13713086D01*
X9289524Y-13722610D01*
X9280000Y-13741658D01*
X9280000Y-13789277D01*
X9289524Y-13808324D01*
X9299048Y-13817848D01*
X9318095Y-13827372D01*
X9356190Y-13827372D01*
X9375238Y-13817848D01*
X9384762Y-13808324D01*
X9394286Y-13789277D01*
X9470476Y-13703562D02*
X9470476Y-13741658D01*
X9546667Y-13703562D02*
X9546667Y-13741658D01*
X9841905Y-13979753D02*
X9832381Y-13970229D01*
X9813333Y-13941658D01*
X9803810Y-13922610D01*
X9794286Y-13894039D01*
X9784762Y-13846420D01*
X9784762Y-13808324D01*
X9794286Y-13760705D01*
X9803810Y-13732134D01*
X9813333Y-13713086D01*
X9832381Y-13684515D01*
X9841905Y-13674991D01*
X9908571Y-13722610D02*
X9918095Y-13713086D01*
X9937143Y-13703562D01*
X9984762Y-13703562D01*
X10003810Y-13713086D01*
X10013333Y-13722610D01*
X10022857Y-13741658D01*
X10022857Y-13760705D01*
X10013333Y-13789277D01*
X9899048Y-13903562D01*
X10022857Y-13903562D01*
X10260952Y-13903562D02*
X10260952Y-13703562D01*
X10346667Y-13903562D02*
X10346667Y-13798801D01*
X10337143Y-13779753D01*
X10318095Y-13770229D01*
X10289524Y-13770229D01*
X10270476Y-13779753D01*
X10260952Y-13789277D01*
X10470476Y-13903562D02*
X10451429Y-13894039D01*
X10441905Y-13884515D01*
X10432381Y-13865467D01*
X10432381Y-13808324D01*
X10441905Y-13789277D01*
X10451429Y-13779753D01*
X10470476Y-13770229D01*
X10499048Y-13770229D01*
X10518095Y-13779753D01*
X10527619Y-13789277D01*
X10537143Y-13808324D01*
X10537143Y-13865467D01*
X10527619Y-13884515D01*
X10518095Y-13894039D01*
X10499048Y-13903562D01*
X10470476Y-13903562D01*
X10651429Y-13903562D02*
X10632381Y-13894039D01*
X10622857Y-13874991D01*
X10622857Y-13703562D01*
X10803810Y-13894039D02*
X10784762Y-13903562D01*
X10746667Y-13903562D01*
X10727619Y-13894039D01*
X10718095Y-13874991D01*
X10718095Y-13798801D01*
X10727619Y-13779753D01*
X10746667Y-13770229D01*
X10784762Y-13770229D01*
X10803810Y-13779753D01*
X10813333Y-13798801D01*
X10813333Y-13817848D01*
X10718095Y-13836896D01*
X10889524Y-13894039D02*
X10908571Y-13903562D01*
X10946667Y-13903562D01*
X10965714Y-13894039D01*
X10975238Y-13874991D01*
X10975238Y-13865467D01*
X10965714Y-13846420D01*
X10946667Y-13836896D01*
X10918095Y-13836896D01*
X10899048Y-13827372D01*
X10889524Y-13808324D01*
X10889524Y-13798801D01*
X10899048Y-13779753D01*
X10918095Y-13770229D01*
X10946667Y-13770229D01*
X10965714Y-13779753D01*
X11041905Y-13979753D02*
X11051429Y-13970229D01*
X11070476Y-13941658D01*
X11080000Y-13922610D01*
X11089524Y-13894039D01*
X11099048Y-13846420D01*
X11099048Y-13808324D01*
X11089524Y-13760705D01*
X11080000Y-13732134D01*
X11070476Y-13713086D01*
X11051429Y-13684515D01*
X11041905Y-13674991D01*
X11403809Y-13979753D02*
X11394286Y-13970229D01*
X11375238Y-13941658D01*
X11365714Y-13922610D01*
X11356190Y-13894039D01*
X11346667Y-13846420D01*
X11346667Y-13808324D01*
X11356190Y-13760705D01*
X11365714Y-13732134D01*
X11375238Y-13713086D01*
X11394286Y-13684515D01*
X11403809Y-13674991D01*
X11480000Y-13770229D02*
X11480000Y-13903562D01*
X11480000Y-13789277D02*
X11489524Y-13779753D01*
X11508571Y-13770229D01*
X11537143Y-13770229D01*
X11556190Y-13779753D01*
X11565714Y-13798801D01*
X11565714Y-13903562D01*
X11689524Y-13903562D02*
X11670476Y-13894039D01*
X11660952Y-13884515D01*
X11651428Y-13865467D01*
X11651428Y-13808324D01*
X11660952Y-13789277D01*
X11670476Y-13779753D01*
X11689524Y-13770229D01*
X11718095Y-13770229D01*
X11737143Y-13779753D01*
X11746667Y-13789277D01*
X11756190Y-13808324D01*
X11756190Y-13865467D01*
X11746667Y-13884515D01*
X11737143Y-13894039D01*
X11718095Y-13903562D01*
X11689524Y-13903562D01*
X11813333Y-13770229D02*
X11889524Y-13770229D01*
X11841905Y-13703562D02*
X11841905Y-13874991D01*
X11851428Y-13894039D01*
X11870476Y-13903562D01*
X11889524Y-13903562D01*
X12108571Y-13770229D02*
X12108571Y-13970229D01*
X12108571Y-13779753D02*
X12127619Y-13770229D01*
X12165714Y-13770229D01*
X12184762Y-13779753D01*
X12194286Y-13789277D01*
X12203809Y-13808324D01*
X12203809Y-13865467D01*
X12194286Y-13884515D01*
X12184762Y-13894039D01*
X12165714Y-13903562D01*
X12127619Y-13903562D01*
X12108571Y-13894039D01*
X12318095Y-13903562D02*
X12299048Y-13894039D01*
X12289524Y-13874991D01*
X12289524Y-13703562D01*
X12480000Y-13903562D02*
X12480000Y-13798801D01*
X12470476Y-13779753D01*
X12451428Y-13770229D01*
X12413333Y-13770229D01*
X12394286Y-13779753D01*
X12480000Y-13894039D02*
X12460952Y-13903562D01*
X12413333Y-13903562D01*
X12394286Y-13894039D01*
X12384762Y-13874991D01*
X12384762Y-13855943D01*
X12394286Y-13836896D01*
X12413333Y-13827372D01*
X12460952Y-13827372D01*
X12480000Y-13817848D01*
X12546667Y-13770229D02*
X12622857Y-13770229D01*
X12575238Y-13703562D02*
X12575238Y-13874991D01*
X12584762Y-13894039D01*
X12603809Y-13903562D01*
X12622857Y-13903562D01*
X12765714Y-13894039D02*
X12746667Y-13903562D01*
X12708571Y-13903562D01*
X12689524Y-13894039D01*
X12680000Y-13874991D01*
X12680000Y-13798801D01*
X12689524Y-13779753D01*
X12708571Y-13770229D01*
X12746667Y-13770229D01*
X12765714Y-13779753D01*
X12775238Y-13798801D01*
X12775238Y-13817848D01*
X12680000Y-13836896D01*
X12946667Y-13903562D02*
X12946667Y-13703562D01*
X12946667Y-13894039D02*
X12927619Y-13903562D01*
X12889524Y-13903562D01*
X12870476Y-13894039D01*
X12860952Y-13884515D01*
X12851428Y-13865467D01*
X12851428Y-13808324D01*
X12860952Y-13789277D01*
X12870476Y-13779753D01*
X12889524Y-13770229D01*
X12927619Y-13770229D01*
X12946667Y-13779753D01*
X13022857Y-13979753D02*
X13032381Y-13970229D01*
X13051428Y-13941658D01*
X13060952Y-13922610D01*
X13070476Y-13894039D01*
X13080000Y-13846420D01*
X13080000Y-13808324D01*
X13070476Y-13760705D01*
X13060952Y-13732134D01*
X13051428Y-13713086D01*
X13032381Y-13684515D01*
X13022857Y-13674991D01*
M02*
