%TF.GenerationSoftware,KiCad,Pcbnew,(6.0.10)*%
%TF.CreationDate,2023-03-05T19:00:04+01:00*%
%TF.ProjectId,HighPrecPosSens,48696768-5072-4656-9350-6f7353656e73,1*%
%TF.SameCoordinates,Original*%
%TF.FileFunction,OtherDrawing,Comment*%
%FSLAX46Y46*%
G04 Gerber Fmt 4.6, Leading zero omitted, Abs format (unit mm)*
G04 Created by KiCad (PCBNEW (6.0.10)) date 2023-03-05 19:00:04*
%MOMM*%
%LPD*%
G01*
G04 APERTURE LIST*
%ADD10C,0.150000*%
%ADD11C,0.100000*%
G04 APERTURE END LIST*
D10*
X57202380Y-96452530D02*
X57202380Y-95785864D01*
X58202380Y-96214435D01*
X57535714Y-94976340D02*
X58202380Y-94976340D01*
X57154761Y-95214435D02*
X57869047Y-95452530D01*
X57869047Y-94833483D01*
X58154761Y-94404911D02*
X58202380Y-94404911D01*
X58297619Y-94452530D01*
X58345238Y-94500149D01*
X57202380Y-94071578D02*
X57202380Y-93452530D01*
X57583333Y-93785864D01*
X57583333Y-93643006D01*
X57630952Y-93547768D01*
X57678571Y-93500149D01*
X57773809Y-93452530D01*
X58011904Y-93452530D01*
X58107142Y-93500149D01*
X58154761Y-93547768D01*
X58202380Y-93643006D01*
X58202380Y-93928721D01*
X58154761Y-94023959D01*
X58107142Y-94071578D01*
X58202380Y-92976340D02*
X58202380Y-92785864D01*
X58154761Y-92690625D01*
X58107142Y-92643006D01*
X57964285Y-92547768D01*
X57773809Y-92500149D01*
X57392857Y-92500149D01*
X57297619Y-92547768D01*
X57250000Y-92595387D01*
X57202380Y-92690625D01*
X57202380Y-92881102D01*
X57250000Y-92976340D01*
X57297619Y-93023959D01*
X57392857Y-93071578D01*
X57630952Y-93071578D01*
X57726190Y-93023959D01*
X57773809Y-92976340D01*
X57821428Y-92881102D01*
X57821428Y-92690625D01*
X57773809Y-92595387D01*
X57726190Y-92547768D01*
X57630952Y-92500149D01*
X57202380Y-91881102D02*
X57202380Y-91785864D01*
X57250000Y-91690625D01*
X57297619Y-91643006D01*
X57392857Y-91595387D01*
X57583333Y-91547768D01*
X57821428Y-91547768D01*
X58011904Y-91595387D01*
X58107142Y-91643006D01*
X58154761Y-91690625D01*
X58202380Y-91785864D01*
X58202380Y-91881102D01*
X58154761Y-91976340D01*
X58107142Y-92023959D01*
X58011904Y-92071578D01*
X57821428Y-92119197D01*
X57583333Y-92119197D01*
X57392857Y-92071578D01*
X57297619Y-92023959D01*
X57250000Y-91976340D01*
X57202380Y-91881102D01*
X57202380Y-90928721D02*
X57202380Y-90833483D01*
X57250000Y-90738244D01*
X57297619Y-90690625D01*
X57392857Y-90643006D01*
X57583333Y-90595387D01*
X57821428Y-90595387D01*
X58011904Y-90643006D01*
X58107142Y-90690625D01*
X58154761Y-90738244D01*
X58202380Y-90833483D01*
X58202380Y-90928721D01*
X58154761Y-91023959D01*
X58107142Y-91071578D01*
X58011904Y-91119197D01*
X57821428Y-91166816D01*
X57583333Y-91166816D01*
X57392857Y-91119197D01*
X57297619Y-91071578D01*
X57250000Y-91023959D01*
X57202380Y-90928721D01*
X58202380Y-89404911D02*
X57535714Y-89404911D01*
X57630952Y-89404911D02*
X57583333Y-89357292D01*
X57535714Y-89262054D01*
X57535714Y-89119197D01*
X57583333Y-89023959D01*
X57678571Y-88976340D01*
X58202380Y-88976340D01*
X57678571Y-88976340D02*
X57583333Y-88928721D01*
X57535714Y-88833483D01*
X57535714Y-88690625D01*
X57583333Y-88595387D01*
X57678571Y-88547768D01*
X58202380Y-88547768D01*
X58202380Y-88071578D02*
X57535714Y-88071578D01*
X57630952Y-88071578D02*
X57583333Y-88023959D01*
X57535714Y-87928721D01*
X57535714Y-87785864D01*
X57583333Y-87690625D01*
X57678571Y-87643006D01*
X58202380Y-87643006D01*
X57678571Y-87643006D02*
X57583333Y-87595387D01*
X57535714Y-87500149D01*
X57535714Y-87357292D01*
X57583333Y-87262054D01*
X57678571Y-87214435D01*
X58202380Y-87214435D01*
X62250000Y-54590864D02*
X58313580Y-54590864D01*
X62250000Y-128980864D02*
X58313580Y-128980864D01*
X58900000Y-54590864D02*
X58900000Y-128980864D01*
X58900000Y-54590864D02*
X58900000Y-128980864D01*
X58900000Y-54590864D02*
X58313579Y-55717368D01*
X58900000Y-54590864D02*
X59486421Y-55717368D01*
X58900000Y-128980864D02*
X59486421Y-127854360D01*
X58900000Y-128980864D02*
X58313579Y-127854360D01*
X88607142Y-44393244D02*
X88416666Y-44393244D01*
X88321428Y-44440864D01*
X88273809Y-44488483D01*
X88178571Y-44631340D01*
X88130952Y-44821816D01*
X88130952Y-45202768D01*
X88178571Y-45298006D01*
X88226190Y-45345625D01*
X88321428Y-45393244D01*
X88511904Y-45393244D01*
X88607142Y-45345625D01*
X88654761Y-45298006D01*
X88702380Y-45202768D01*
X88702380Y-44964673D01*
X88654761Y-44869435D01*
X88607142Y-44821816D01*
X88511904Y-44774197D01*
X88321428Y-44774197D01*
X88226190Y-44821816D01*
X88178571Y-44869435D01*
X88130952Y-44964673D01*
X89321428Y-44393244D02*
X89416666Y-44393244D01*
X89511904Y-44440864D01*
X89559523Y-44488483D01*
X89607142Y-44583721D01*
X89654761Y-44774197D01*
X89654761Y-45012292D01*
X89607142Y-45202768D01*
X89559523Y-45298006D01*
X89511904Y-45345625D01*
X89416666Y-45393244D01*
X89321428Y-45393244D01*
X89226190Y-45345625D01*
X89178571Y-45298006D01*
X89130952Y-45202768D01*
X89083333Y-45012292D01*
X89083333Y-44774197D01*
X89130952Y-44583721D01*
X89178571Y-44488483D01*
X89226190Y-44440864D01*
X89321428Y-44393244D01*
X90130952Y-45345625D02*
X90130952Y-45393244D01*
X90083333Y-45488483D01*
X90035714Y-45536102D01*
X90750000Y-44393244D02*
X90845238Y-44393244D01*
X90940476Y-44440864D01*
X90988095Y-44488483D01*
X91035714Y-44583721D01*
X91083333Y-44774197D01*
X91083333Y-45012292D01*
X91035714Y-45202768D01*
X90988095Y-45298006D01*
X90940476Y-45345625D01*
X90845238Y-45393244D01*
X90750000Y-45393244D01*
X90654761Y-45345625D01*
X90607142Y-45298006D01*
X90559523Y-45202768D01*
X90511904Y-45012292D01*
X90511904Y-44774197D01*
X90559523Y-44583721D01*
X90607142Y-44488483D01*
X90654761Y-44440864D01*
X90750000Y-44393244D01*
X91702380Y-44393244D02*
X91797619Y-44393244D01*
X91892857Y-44440864D01*
X91940476Y-44488483D01*
X91988095Y-44583721D01*
X92035714Y-44774197D01*
X92035714Y-45012292D01*
X91988095Y-45202768D01*
X91940476Y-45298006D01*
X91892857Y-45345625D01*
X91797619Y-45393244D01*
X91702380Y-45393244D01*
X91607142Y-45345625D01*
X91559523Y-45298006D01*
X91511904Y-45202768D01*
X91464285Y-45012292D01*
X91464285Y-44774197D01*
X91511904Y-44583721D01*
X91559523Y-44488483D01*
X91607142Y-44440864D01*
X91702380Y-44393244D01*
X92654761Y-44393244D02*
X92750000Y-44393244D01*
X92845238Y-44440864D01*
X92892857Y-44488483D01*
X92940476Y-44583721D01*
X92988095Y-44774197D01*
X92988095Y-45012292D01*
X92940476Y-45202768D01*
X92892857Y-45298006D01*
X92845238Y-45345625D01*
X92750000Y-45393244D01*
X92654761Y-45393244D01*
X92559523Y-45345625D01*
X92511904Y-45298006D01*
X92464285Y-45202768D01*
X92416666Y-45012292D01*
X92416666Y-44774197D01*
X92464285Y-44583721D01*
X92511904Y-44488483D01*
X92559523Y-44440864D01*
X92654761Y-44393244D01*
X93607142Y-44393244D02*
X93702380Y-44393244D01*
X93797619Y-44440864D01*
X93845238Y-44488483D01*
X93892857Y-44583721D01*
X93940476Y-44774197D01*
X93940476Y-45012292D01*
X93892857Y-45202768D01*
X93845238Y-45298006D01*
X93797619Y-45345625D01*
X93702380Y-45393244D01*
X93607142Y-45393244D01*
X93511904Y-45345625D01*
X93464285Y-45298006D01*
X93416666Y-45202768D01*
X93369047Y-45012292D01*
X93369047Y-44774197D01*
X93416666Y-44583721D01*
X93464285Y-44488483D01*
X93511904Y-44440864D01*
X93607142Y-44393244D01*
X95130952Y-45393244D02*
X95130952Y-44726578D01*
X95130952Y-44821816D02*
X95178571Y-44774197D01*
X95273809Y-44726578D01*
X95416666Y-44726578D01*
X95511904Y-44774197D01*
X95559523Y-44869435D01*
X95559523Y-45393244D01*
X95559523Y-44869435D02*
X95607142Y-44774197D01*
X95702380Y-44726578D01*
X95845238Y-44726578D01*
X95940476Y-44774197D01*
X95988095Y-44869435D01*
X95988095Y-45393244D01*
X96464285Y-45393244D02*
X96464285Y-44726578D01*
X96464285Y-44821816D02*
X96511904Y-44774197D01*
X96607142Y-44726578D01*
X96750000Y-44726578D01*
X96845238Y-44774197D01*
X96892857Y-44869435D01*
X96892857Y-45393244D01*
X96892857Y-44869435D02*
X96940476Y-44774197D01*
X97035714Y-44726578D01*
X97178571Y-44726578D01*
X97273809Y-44774197D01*
X97321428Y-44869435D01*
X97321428Y-45393244D01*
X62750000Y-53480864D02*
X62750000Y-45504444D01*
X122750000Y-53480864D02*
X122750000Y-45504444D01*
X62750000Y-46090864D02*
X122750000Y-46090864D01*
X62750000Y-46090864D02*
X122750000Y-46090864D01*
X62750000Y-46090864D02*
X63876504Y-46677285D01*
X62750000Y-46090864D02*
X63876504Y-45504443D01*
X122750000Y-46090864D02*
X121623496Y-45504443D01*
X122750000Y-46090864D02*
X121623496Y-46677285D01*
%TO.C,U6*%
G36*
X100150000Y-63480864D02*
G01*
X98150000Y-63480864D01*
X98150000Y-61480864D01*
X100150000Y-61480864D01*
X100150000Y-63480864D01*
G37*
D11*
X100150000Y-63480864D02*
X98150000Y-63480864D01*
X98150000Y-61480864D01*
X100150000Y-61480864D01*
X100150000Y-63480864D01*
G36*
X100150000Y-65980864D02*
G01*
X98150000Y-65980864D01*
X98150000Y-63980864D01*
X100150000Y-63980864D01*
X100150000Y-65980864D01*
G37*
X100150000Y-65980864D02*
X98150000Y-65980864D01*
X98150000Y-63980864D01*
X100150000Y-63980864D01*
X100150000Y-65980864D01*
G36*
X105350000Y-59780864D02*
G01*
X97950000Y-59780864D01*
X97950000Y-55080864D01*
X105350000Y-55080864D01*
X105350000Y-59780864D01*
G37*
X105350000Y-59780864D02*
X97950000Y-59780864D01*
X97950000Y-55080864D01*
X105350000Y-55080864D01*
X105350000Y-59780864D01*
G36*
X100150000Y-68480864D02*
G01*
X98150000Y-68480864D01*
X98150000Y-66480864D01*
X100150000Y-66480864D01*
X100150000Y-68480864D01*
G37*
X100150000Y-68480864D02*
X98150000Y-68480864D01*
X98150000Y-66480864D01*
X100150000Y-66480864D01*
X100150000Y-68480864D01*
%TD*%
M02*
